if (_typeface_js && _typeface_js.loadFace) _typeface_js.loadFace({"glyphs":{"0":{"ha":989,"x_min":69,"x_max":929,"o":"m 529 1074 q 724 1020 646 1067 q 848 899 801 974 q 912 726 894 824 q 924 518 929 628 q 913 403 921 465 q 886 281 904 342 q 838 166 868 221 q 761 69 807 111 q 652 3 715 28 q 506 -18 589 -21 q 331 13 403 -15 q 209 85 258 40 q 131 189 160 131 q 88 311 103 247 q 72 441 74 375 q 72 567 69 507 q 105 746 81 669 q 163 877 129 822 q 236 967 196 932 q 317 1025 276 1003 q 529 1074 413 1076 m 663 508 q 658 617 665 569 q 649 657 656 638 q 633 692 643 676 q 607 717 622 707 q 571 729 592 728 q 511 718 539 735 q 465 662 488 703 q 432 533 442 621 q 434 397 422 444 q 465 325 446 349 q 518 293 488 299 q 597 318 568 286 q 640 393 625 350 q 663 508 657 442 z "},"1":{"ha":610,"x_min":79,"x_max":633,"o":"m 633 1042 q 592 903 613 982 q 553 733 572 824 q 518 545 535 643 q 488 351 501 447 q 464 165 474 256 q 449 0 454 75 l 125 0 q 171 433 136 239 q 250 797 206 628 l 79 797 q 79 826 79 806 q 79 867 79 846 q 79 903 79 888 q 81 919 79 919 q 115 943 82 919 q 216 993 149 967 q 387 1037 283 1019 q 633 1042 490 1054 z "},"2":{"ha":936,"x_min":88,"x_max":893,"o":"m 831 569 q 749 420 800 483 q 650 317 699 357 q 529 236 593 268 q 626 228 582 231 q 711 228 669 226 q 797 236 753 231 q 893 253 840 242 l 849 0 l 88 0 l 101 106 q 106 144 104 125 q 110 177 108 163 q 114 200 113 192 q 115 208 115 208 q 199 256 151 225 q 292 330 246 288 q 381 424 339 372 q 449 535 422 476 q 467 586 454 549 q 483 666 481 624 q 468 747 485 708 q 400 801 451 785 q 354 802 375 810 q 316 780 333 794 q 286 749 299 765 q 268 722 274 732 l 88 835 q 143 911 111 875 q 210 975 171 943 q 297 1028 249 1007 q 449 1058 371 1054 q 519 1057 482 1060 q 597 1043 557 1054 q 677 1013 636 1032 q 757 961 718 993 q 819 885 796 929 q 852 790 843 842 q 856 682 861 739 q 831 569 850 625 z "},"3":{"ha":872,"x_min":24,"x_max":813,"o":"m 288 238 q 353 248 329 235 q 390 279 378 261 q 406 316 403 297 q 410 343 410 335 q 395 401 408 378 q 363 438 382 424 q 319 460 343 453 q 274 472 296 468 q 234 476 251 475 q 210 476 217 476 l 221 546 q 229 593 225 572 q 233 613 233 614 q 326 615 288 613 q 397 650 364 618 q 419 685 410 663 q 428 733 428 708 q 416 781 428 758 q 375 818 404 804 q 333 828 353 828 q 297 823 313 829 q 268 806 281 817 q 250 786 256 796 l 114 864 q 151 926 126 896 q 206 981 172 953 q 292 1028 239 1008 q 439 1053 364 1050 q 506 1051 471 1054 q 576 1037 540 1047 q 647 1008 611 1026 q 714 961 682 990 q 777 873 751 928 q 808 755 803 818 q 792 626 813 692 q 717 504 772 560 q 745 456 732 482 q 767 397 758 429 q 776 325 775 365 q 769 233 778 285 q 667 49 751 119 q 447 -31 583 -22 q 293 -16 365 -36 q 165 45 221 4 q 72 146 108 86 q 24 281 35 206 l 174 338 q 187 307 179 324 q 208 276 194 290 q 240 250 221 261 q 288 238 260 239 z "},"4":{"ha":1035,"x_min":38,"x_max":999,"o":"m 971 1042 q 934 915 953 989 q 898 757 915 842 q 865 581 881 672 q 838 401 850 490 l 999 401 l 982 265 l 819 265 q 806 113 810 182 q 804 0 801 44 l 481 0 q 490 174 483 103 q 499 265 496 244 l 71 265 q 44 273 50 265 q 40 290 38 281 q 47 309 42 300 q 54 321 51 318 q 274 614 163 482 q 478 842 386 746 q 685 1042 585 953 l 971 1042 m 554 608 q 483 526 513 564 q 433 461 453 489 q 397 403 411 429 l 518 403 q 528 471 522 435 q 540 538 533 507 q 554 608 546 574 z "},"5":{"ha":838,"x_min":32,"x_max":807,"o":"m 738 565 q 774 499 758 538 q 799 413 790 460 q 806 316 807 367 q 793 215 806 265 q 678 33 765 104 q 454 -47 590 -39 q 300 -34 372 -53 q 172 24 228 -15 q 80 120 117 63 q 32 253 43 178 l 182 310 q 195 279 188 296 q 216 248 203 263 q 249 222 229 233 q 296 210 268 211 q 362 220 338 207 q 399 251 386 233 q 415 288 411 269 q 418 315 418 307 q 392 385 415 358 q 336 428 369 413 q 263 451 303 444 q 188 459 224 457 q 125 460 151 461 q 92 460 99 458 q 105 569 97 500 q 119 719 113 638 q 133 888 126 801 q 143 1050 139 974 q 364 1033 253 1039 q 464 1028 411 1031 q 571 1025 517 1026 q 678 1024 625 1024 q 779 1028 731 1025 q 778 1015 779 1028 q 776 983 778 1003 q 770 936 774 963 q 764 883 767 910 q 747 740 757 819 q 614 738 681 738 q 488 741 556 738 q 361 756 421 744 q 360 736 361 753 q 356 700 358 719 q 350 649 353 676 q 497 667 425 668 q 560 662 528 667 q 625 645 593 657 q 685 614 657 633 q 738 565 714 594 z "},"6":{"ha":878,"x_min":42,"x_max":831,"o":"m 544 349 q 542 409 549 388 q 524 442 535 431 q 503 457 514 454 q 488 461 492 460 q 447 456 465 464 q 417 426 432 449 q 396 360 401 404 q 396 322 394 340 q 404 288 397 303 q 425 263 411 272 q 461 253 439 253 q 517 276 494 250 q 544 349 539 301 m 425 610 q 497 638 454 629 q 586 640 540 646 q 677 613 632 633 q 757 555 722 593 q 811 460 792 517 q 825 325 831 403 q 776 138 818 225 q 646 0 735 50 q 544 -37 604 -24 q 420 -50 485 -51 q 290 -28 356 -49 q 172 35 225 -8 q 85 151 119 79 q 46 326 50 222 q 53 525 42 419 q 98 728 64 631 q 192 904 132 825 q 344 1024 251 983 q 459 1054 403 1049 q 563 1053 515 1060 q 647 1035 611 1047 q 697 1011 682 1022 q 775 930 750 976 q 808 840 800 883 q 813 738 818 790 l 642 700 q 642 732 643 714 q 635 767 642 750 q 615 797 629 783 q 574 817 600 811 q 523 813 544 822 q 486 788 501 803 q 457 747 469 771 q 435 678 442 719 q 425 610 428 638 z "},"7":{"ha":971,"x_min":49,"x_max":953,"o":"m 718 713 q 676 614 697 671 q 634 492 654 557 q 597 358 614 428 q 566 223 579 289 q 544 99 553 157 q 535 0 536 42 l 174 0 q 200 203 179 90 q 250 428 221 315 q 315 642 279 540 q 390 814 351 744 q 308 840 353 829 q 219 854 264 850 q 130 856 174 858 q 49 842 86 853 l 72 989 q 164 1005 110 1001 q 277 1003 218 1008 q 392 983 336 997 q 489 949 449 969 q 551 992 522 976 q 608 1015 581 1007 q 665 1023 636 1022 q 725 1024 693 1024 q 841 997 799 1018 q 907 951 883 975 q 943 888 933 924 q 936 796 953 843 q 867 722 919 749 q 819 708 844 711 q 771 707 793 706 q 718 713 744 708 m 803 871 q 781 863 790 868 q 764 844 772 856 q 751 813 756 833 q 778 806 764 808 q 801 802 789 803 q 824 806 813 801 q 836 814 831 808 q 847 840 847 825 q 840 860 846 854 q 825 869 833 867 q 803 871 815 872 z "},"8":{"ha":879,"x_min":47,"x_max":851,"o":"m 218 554 q 160 622 181 582 q 134 706 140 663 q 133 790 128 749 q 149 860 138 831 q 206 956 171 917 q 283 1022 240 996 q 376 1059 326 1047 q 478 1071 425 1071 q 553 1065 510 1071 q 640 1043 596 1060 q 726 998 685 1026 q 797 925 768 969 q 833 847 817 894 q 851 744 850 800 q 830 628 851 689 q 753 511 808 568 q 781 463 768 489 q 803 403 794 436 q 813 330 811 371 q 806 238 814 289 q 703 51 788 121 q 479 -31 619 -19 q 320 -24 396 -37 q 185 26 244 -10 q 90 119 126 61 q 49 260 53 178 q 48 276 49 258 q 50 322 47 294 q 62 385 53 350 q 90 452 71 419 q 140 513 108 485 q 218 554 171 540 m 349 742 q 340 672 331 707 q 381 622 349 638 q 442 615 408 607 q 496 653 476 622 q 507 680 501 663 q 512 716 513 697 q 502 753 511 735 q 469 783 493 771 q 400 789 436 803 q 349 742 364 775 m 275 388 q 265 308 256 347 q 314 250 275 269 q 384 241 346 232 q 446 286 422 250 q 459 316 453 297 q 464 356 465 335 q 452 399 463 378 q 415 435 442 419 q 335 441 375 457 q 275 388 294 425 z "},"9":{"ha":967,"x_min":88,"x_max":888,"o":"m 424 665 q 426 608 419 629 q 444 577 433 588 q 465 563 454 567 q 479 560 475 560 q 515 564 499 557 q 544 590 531 571 q 565 651 558 608 q 567 688 568 669 q 558 721 565 706 q 538 747 551 736 q 504 758 525 757 q 451 735 474 761 q 424 665 429 710 m 522 386 q 445 364 490 369 q 350 366 400 358 q 252 396 300 374 q 167 458 204 418 q 108 557 129 499 q 93 694 88 615 q 147 878 101 797 q 267 1006 192 958 q 376 1049 311 1033 q 513 1058 442 1064 q 652 1024 583 1053 q 774 937 721 996 q 857 786 826 878 q 881 564 888 694 q 860 401 876 482 q 814 249 844 321 q 735 119 783 178 q 618 24 686 61 q 531 -9 581 3 q 426 -22 481 -21 q 318 -10 372 -22 q 219 28 264 1 q 143 96 175 54 q 101 199 111 138 l 272 267 q 310 218 282 235 q 372 200 339 201 q 437 211 406 199 q 486 251 468 224 q 511 312 501 275 q 522 386 521 349 z "}," ":{"ha":383,"x_min":0,"x_max":0,"o":""},"d":{"ha":892,"x_min":1,"x_max":982,"o":"m 982 207 q 893 88 944 139 q 844 45 871 65 q 784 11 817 25 q 714 -9 751 -3 q 633 -10 676 -15 q 524 31 568 -1 q 453 100 479 63 q 415 42 438 64 q 365 10 392 21 q 310 -6 339 -1 q 253 -10 281 -10 q 133 16 181 -10 q 58 82 86 42 q 18 171 31 122 q 3 266 6 219 q 5 351 1 313 q 13 410 8 390 q 44 519 24 465 q 97 616 64 574 q 175 687 129 658 q 283 721 221 715 q 378 710 344 726 q 433 671 413 694 q 475 825 453 757 q 517 942 497 893 q 563 1042 540 997 l 894 1042 q 797 831 840 943 q 761 726 779 782 q 728 610 743 671 q 704 483 714 549 q 693 350 694 417 q 696 306 693 329 q 703 261 699 282 q 718 224 708 240 q 743 200 728 208 q 799 190 771 188 q 852 210 822 193 q 913 276 882 228 l 982 207 m 432 356 q 422 420 435 393 q 379 450 410 447 q 332 427 349 453 q 313 365 315 401 q 322 301 310 328 q 365 271 335 274 q 413 293 396 268 q 432 356 429 318 z "},"e":{"ha":713,"x_min":3,"x_max":689,"o":"m 629 439 q 578 358 614 390 q 499 304 542 325 q 413 273 456 283 q 339 258 369 263 q 371 199 347 221 q 411 169 394 178 q 467 157 438 157 q 523 169 492 157 q 589 219 554 182 l 689 149 q 653 99 674 124 q 608 56 635 78 q 549 19 582 35 q 479 -6 522 4 q 385 -19 436 -17 q 281 -12 335 -21 q 179 19 226 -4 q 91 83 126 44 q 35 167 56 121 q 9 263 15 213 q 7 361 3 313 q 25 453 11 410 q 58 529 39 496 q 169 647 103 601 q 305 710 235 692 q 443 718 375 728 q 560 669 511 708 q 617 595 600 635 q 636 521 633 556 q 629 439 640 481 m 332 349 q 397 358 368 350 q 444 382 422 365 q 471 429 467 399 q 453 469 474 451 q 401 479 432 486 q 356 450 371 471 q 336 406 342 429 q 332 349 331 379 z "},"f":{"ha":596,"x_min":-21,"x_max":601,"o":"m 589 911 q 593 840 601 874 q 562 783 585 807 q 505 747 539 758 q 429 742 471 735 q 426 729 428 736 q 424 713 425 722 q 419 693 422 704 l 539 693 l 517 572 l 401 572 q 385 453 393 518 q 369 313 376 388 q 356 160 363 239 q 349 0 350 81 l 8 0 q 21 164 13 74 q 40 346 28 242 q 74 572 53 450 l -21 572 l 1 693 l 94 693 q 102 728 99 711 q 108 761 106 744 q 138 856 119 815 q 180 925 157 896 q 228 974 203 954 q 279 1006 254 993 q 406 1033 338 1033 q 482 1018 446 1032 q 543 982 513 1007 q 589 911 574 957 m 489 882 q 461 867 471 879 q 446 839 451 854 q 439 801 440 822 q 483 800 464 796 q 515 813 500 803 q 529 851 529 824 q 520 872 529 858 q 489 882 511 886 z "},"g":{"ha":840,"x_min":-14,"x_max":790,"o":"m 211 -36 q 258 -35 233 -32 q 301 -42 282 -37 q 347 -56 325 -47 q 370 13 363 -25 q 379 75 378 51 q 332 28 364 51 q 244 4 300 4 q 124 28 172 4 q 47 91 76 53 q 6 175 18 129 q -10 265 -7 221 q -10 347 -14 310 q -3 404 -7 385 q 29 513 8 460 q 83 610 50 567 q 162 681 115 653 q 271 714 208 708 q 379 701 333 719 q 449 644 425 683 l 454 696 l 790 696 q 756 382 772 528 q 740 256 749 319 q 723 137 732 193 q 706 35 714 81 q 690 -36 697 -10 q 638 -170 671 -115 q 559 -259 604 -225 q 458 -309 514 -293 q 338 -325 401 -325 q 222 -305 267 -325 q 153 -261 178 -285 q 108 -196 122 -233 q 104 -125 99 -158 q 132 -72 110 -97 q 211 -36 154 -46 m 417 350 q 407 415 419 388 q 364 444 394 442 q 317 422 335 447 q 297 358 300 396 q 308 295 294 322 q 350 265 321 268 q 397 288 381 263 q 417 350 414 313 m 251 -132 q 275 -135 263 -135 q 299 -131 286 -135 q 328 -115 313 -126 q 307 -106 318 -111 q 285 -99 297 -103 q 258 -96 272 -96 q 247 -99 253 -96 q 238 -115 238 -104 q 244 -128 238 -124 q 251 -132 247 -131 z "},"h":{"ha":949,"x_min":-4,"x_max":1035,"o":"m 1035 204 q 938 76 994 121 q 824 13 881 32 q 719 -8 767 -7 q 649 -10 671 -10 q 535 9 581 -10 q 460 59 489 28 q 417 129 432 90 q 399 210 403 168 q 419 431 388 307 q 428 471 426 453 q 424 501 429 486 q 399 519 418 515 q 361 509 376 525 q 339 472 346 493 q 327 310 328 392 q 329 160 326 228 q 340 6 333 81 l 15 6 q -1 172 1 86 q -1 328 -4 257 q 10 490 1 411 q 47 732 24 629 q 93 904 69 835 q 149 1042 119 985 l 489 1042 q 431 915 456 976 q 389 797 406 853 q 363 695 372 742 q 349 617 353 649 q 401 659 375 640 q 455 690 426 678 q 516 706 483 701 q 589 710 549 711 q 696 674 653 703 q 729 642 714 661 q 753 597 744 624 q 762 533 763 569 q 749 450 761 497 q 724 347 731 394 q 719 265 717 306 q 749 200 722 224 q 819 174 783 169 q 886 197 856 178 q 938 241 917 217 q 965 274 960 265 l 1035 204 z "},"i":{"ha":553,"x_min":-11,"x_max":644,"o":"m 576 276 q 515 209 547 228 q 454 188 482 190 q 392 194 422 183 q 353 235 365 207 q 338 301 340 264 q 340 383 335 339 q 354 471 344 426 q 422 694 376 574 l 90 694 q -3 364 14 513 q -7 238 -11 300 q 22 124 -3 175 q 93 36 46 72 q 218 -11 140 0 q 328 -15 278 -19 q 419 3 378 -10 q 492 37 460 17 q 550 79 525 57 q 644 204 608 132 l 576 276 m 513 938 q 499 868 513 900 q 460 812 485 836 q 404 774 436 788 q 336 760 372 760 q 267 774 299 760 q 210 812 235 788 q 172 868 186 836 q 158 938 158 900 q 172 1006 158 974 q 210 1062 186 1038 q 267 1100 235 1086 q 336 1114 299 1114 q 404 1100 372 1114 q 460 1062 436 1086 q 499 1006 485 1038 q 513 938 513 974 z "},"j":{"ha":488,"x_min":-308,"x_max":469,"o":"m 469 938 q 456 868 469 900 q 417 812 442 836 q 361 774 393 788 q 292 760 329 760 q 223 774 256 760 q 166 812 190 788 q 128 868 142 836 q 114 938 114 900 q 128 1006 114 974 q 166 1062 142 1038 q 223 1100 190 1086 q 292 1114 256 1114 q 361 1100 329 1114 q 417 1062 393 1086 q 456 1006 442 1038 q 469 938 469 974 m -49 -56 q -104 -42 -78 -47 q -152 -35 -128 -37 q -196 -36 -176 -32 q -274 -73 -251 -47 q -303 -126 -297 -99 q -299 -196 -308 -158 q -258 -257 -287 -231 q -190 -301 -235 -281 q -69 -325 -144 -322 q 51 -311 -6 -325 q 155 -265 107 -297 q 240 -178 203 -232 q 304 -46 278 -125 q 331 49 318 -4 q 356 163 344 103 q 377 286 368 224 q 394 408 386 349 q 425 696 413 547 l 79 696 q 50 425 68 560 q 32 306 42 368 q 10 181 22 243 q -17 58 -3 118 q -49 -56 -32 -3 m -156 -132 q -162 -128 -160 -131 q -169 -115 -169 -124 q -160 -99 -169 -104 q -149 -96 -154 -96 q -122 -99 -135 -96 q -100 -106 -110 -103 q -79 -115 -89 -111 q -108 -131 -94 -126 q -132 -135 -121 -135 q -156 -132 -144 -135 z "},"k":{"ha":939,"x_min":-8,"x_max":1032,"o":"m 1032 204 q 929 76 988 121 q 814 12 871 32 q 710 -12 757 -8 q 642 -15 664 -15 q 551 -4 589 -15 q 488 25 514 7 q 446 66 461 43 q 422 113 431 89 q 411 242 403 168 q 415 283 417 265 q 408 311 414 299 q 383 325 401 324 q 350 319 364 326 q 333 285 336 313 q 335 165 331 218 q 347 76 340 113 q 367 0 354 32 l 17 0 q -3 162 1 74 q -8 329 -8 250 q -3 514 -8 421 q 21 740 4 642 q 54 906 38 839 q 97 1042 74 983 l 438 1042 q 384 848 407 947 q 347 646 361 749 q 465 713 396 692 q 614 729 535 733 q 696 708 665 726 q 742 667 726 690 q 763 621 758 644 q 765 583 767 597 q 754 528 763 554 q 734 483 746 503 q 710 448 722 463 q 688 426 697 433 q 718 401 707 414 q 734 369 729 388 q 738 328 739 351 q 735 274 738 306 q 736 243 733 258 q 744 217 739 231 q 763 196 750 204 q 833 178 799 172 q 894 203 867 185 q 940 245 921 222 q 964 276 958 268 l 1032 204 m 414 449 q 431 454 421 450 q 448 466 440 458 q 460 485 456 474 q 460 513 464 497 q 432 539 454 535 q 386 535 410 543 q 351 515 364 526 q 338 503 344 510 l 335 456 q 360 450 346 453 q 385 447 371 447 q 414 449 399 446 z "},"l":{"ha":574,"x_min":-6,"x_max":510,"o":"m 329 372 q 413 336 378 361 q 469 278 449 311 q 495 208 490 246 q 489 132 500 169 q 435 39 469 71 q 365 -8 400 7 q 279 -28 325 -25 q 132 6 196 -29 q 79 43 104 19 q 35 102 54 67 q 5 186 15 138 q -1 300 -6 235 q 35 585 7 451 q 93 822 63 719 q 169 1043 129 940 l 510 1043 q 413 790 447 910 q 358 576 378 669 q 329 372 336 468 m 360 161 q 394 169 382 157 q 410 201 407 181 q 399 246 413 229 q 367 274 385 263 q 319 292 346 286 q 322 229 318 257 q 333 185 325 206 q 360 161 342 164 z "},"m":{"ha":1342,"x_min":6,"x_max":1438,"o":"m 1438 204 q 1330 69 1389 115 q 1215 5 1271 24 q 1114 -15 1160 -14 q 1047 -17 1068 -17 q 933 2 979 -17 q 859 52 888 21 q 816 122 831 83 q 797 203 801 161 q 817 424 786 300 q 822 468 822 449 q 817 499 822 485 q 797 514 813 514 q 783 510 790 514 q 769 488 776 506 q 765 465 767 476 q 760 443 763 454 q 738 294 740 371 q 740 150 736 217 q 757 -1 746 74 l 428 -1 q 405 161 408 86 q 404 293 401 236 q 418 414 408 360 q 422 460 422 439 q 417 494 422 478 q 397 514 413 510 q 347 483 363 524 q 335 317 336 403 q 338 161 335 232 q 350 -1 342 78 l 25 -1 q 8 165 11 79 q 8 322 6 251 q 19 483 11 406 q 28 567 24 528 q 38 635 33 606 q 47 696 43 668 l 375 696 q 367 665 371 681 q 360 610 360 635 q 466 683 413 658 q 600 703 519 707 q 660 690 631 700 q 710 665 683 682 q 753 615 736 647 q 857 683 804 660 q 988 703 910 707 q 1093 668 1050 697 q 1127 637 1111 656 q 1151 591 1143 618 q 1160 527 1160 564 q 1147 443 1160 490 q 1119 339 1128 388 q 1116 256 1113 297 q 1147 193 1119 214 q 1223 172 1185 164 q 1292 200 1261 179 q 1344 245 1324 221 q 1369 276 1365 269 l 1438 204 z "},"n":{"ha":949,"x_min":-6,"x_max":1039,"o":"m 1039 204 q 970 106 1008 146 q 892 42 932 67 q 812 6 851 18 q 739 -12 772 -7 q 681 -17 706 -17 q 647 -17 657 -17 q 533 2 579 -17 q 459 52 488 21 q 416 122 431 83 q 397 203 401 161 q 418 424 386 300 q 426 464 425 446 q 422 494 428 479 q 397 514 417 510 q 360 502 375 518 q 338 465 344 486 q 325 303 326 385 q 326 153 324 221 q 338 -1 331 74 l 13 -1 q -3 165 -1 79 q -3 322 -6 251 q 7 483 0 406 q 16 567 11 528 q 25 635 21 606 q 36 696 31 668 l 364 696 q 356 665 360 681 q 350 637 353 651 q 347 610 347 622 q 399 652 374 633 q 453 683 425 671 q 515 699 482 694 q 588 703 547 704 q 693 668 650 697 q 727 637 711 656 q 751 591 743 618 q 760 527 760 564 q 747 443 760 490 q 721 340 728 389 q 717 257 714 299 q 747 193 721 215 q 816 172 779 165 q 885 197 853 178 q 940 240 917 217 q 969 274 964 264 l 1039 204 z "},"o":{"ha":760,"x_min":-6,"x_max":711,"o":"m 408 715 q 527 685 474 711 q 619 616 581 658 q 680 517 657 574 q 707 397 703 461 q 703 288 711 344 q 676 181 696 232 q 621 87 656 129 q 535 18 586 44 q 432 -13 486 -6 q 326 -17 378 -21 q 232 -2 275 -14 q 163 25 189 10 q 57 118 99 58 q 24 177 39 143 q 2 253 10 211 q -4 348 -6 296 q 14 463 -3 400 q 56 554 31 515 q 113 621 82 593 q 178 666 144 649 q 244 694 211 683 q 408 715 321 719 m 538 357 q 531 414 538 388 q 509 458 524 438 q 465 488 494 479 q 410 481 435 493 q 368 440 388 469 q 346 347 349 411 q 353 249 342 283 q 379 199 364 214 q 421 178 396 181 q 490 201 465 174 q 525 263 514 228 q 538 357 538 303 z "},"p":{"ha":844,"x_min":-3,"x_max":785,"o":"m 382 624 q 503 701 444 681 q 611 712 561 722 q 699 663 661 701 q 759 562 738 624 q 783 419 781 500 q 763 243 785 338 q 651 33 729 111 q 560 -18 614 -4 q 452 -28 506 -32 q 356 -2 399 -24 q 301 53 314 19 q 315 -77 307 -17 q 332 -185 324 -137 q 353 -286 342 -240 l 43 -286 q 18 -122 28 -193 q 3 13 8 -50 q -2 137 -1 75 q 1 274 -3 199 q 19 436 6 360 q 47 571 32 513 q 85 696 64 638 l 397 696 q 392 675 394 688 q 388 651 390 663 q 382 624 385 638 m 396 192 q 431 211 415 192 q 457 261 447 231 q 470 327 467 292 q 471 395 474 363 q 457 451 468 428 q 426 482 446 475 q 402 483 415 485 q 378 476 389 481 q 351 464 364 471 q 337 392 344 438 q 330 301 329 346 q 344 224 331 257 q 396 192 358 192 z "},"q":{"ha":843,"x_min":-8,"x_max":893,"o":"m 383 -68 q 383 -25 382 -49 q 383 21 383 -1 l 383 72 q 337 25 368 49 q 250 1 306 1 q 130 26 178 1 q 53 88 82 50 q 11 172 24 126 q -5 263 -1 218 q -5 344 -8 307 q 3 401 -1 382 q 35 511 14 457 q 88 608 56 565 q 167 678 121 650 q 276 713 214 707 q 384 700 338 718 q 454 642 431 682 l 460 694 l 769 694 q 728 454 746 582 q 700 206 713 346 q 690 -81 688 67 q 739 -83 714 -81 q 783 -92 760 -86 q 825 -111 806 -99 q 881 -173 869 -140 q 889 -233 893 -206 q 863 -299 883 -267 q 799 -342 840 -326 q 703 -358 763 -356 q 554 -337 644 -361 q 486 -304 517 -329 q 433 -243 456 -279 q 397 -162 410 -207 q 383 -68 383 -117 m 356 263 q 403 285 386 260 q 422 347 419 310 q 413 412 425 385 q 369 442 400 439 q 322 419 339 444 q 303 357 306 393 q 313 292 300 319 q 356 263 325 265 m 771 -176 q 768 -156 775 -162 q 760 -150 764 -151 q 733 -143 746 -144 q 710 -142 721 -142 q 688 -143 697 -142 q 708 -168 697 -160 q 729 -181 719 -176 q 751 -186 740 -186 q 760 -185 756 -186 q 771 -176 767 -182 z "},"r":{"ha":704,"x_min":-28,"x_max":790,"o":"m 790 213 q 718 96 764 146 q 674 53 699 74 q 617 18 649 33 q 547 -6 585 3 q 463 -12 508 -15 q 352 10 397 -10 q 278 61 307 31 q 233 130 249 92 q 213 208 218 168 q 225 418 199 301 l 153 418 q 125 306 142 358 q 85 201 108 254 l 15 272 q 36 311 25 286 q 56 365 46 332 q 76 443 65 397 q 1 506 29 463 q -28 603 -28 549 q -14 671 -28 639 q 24 726 0 703 q 79 764 47 750 q 147 778 111 778 q 233 755 194 778 q 296 696 272 732 l 296 697 l 579 697 q 497 475 521 575 q 483 389 486 432 q 487 310 479 346 q 517 247 494 274 q 579 210 539 221 q 632 208 607 203 q 678 228 654 213 q 722 282 703 244 l 790 213 z "},"s":{"ha":667,"x_min":-21,"x_max":579,"o":"m 511 468 q 567 321 558 388 q 567 205 576 254 q 542 127 558 156 q 524 94 526 99 q 432 11 479 35 q 340 -19 385 -12 q 226 -25 286 -28 q 114 -1 165 -22 q 26 65 63 21 q -15 185 -10 110 q -1 292 -21 247 q 47 368 19 338 q 121 428 79 404 q 87 558 83 496 q 124 668 90 621 q 212 743 157 715 q 332 771 267 771 q 415 764 374 771 q 489 740 456 757 q 546 697 522 724 q 576 628 569 669 q 576 586 579 608 q 566 544 574 567 q 539 499 558 522 l 511 468 m 183 321 q 154 286 165 306 q 138 247 143 269 q 140 197 133 225 q 153 174 144 183 q 172 158 160 165 q 203 154 183 151 q 239 175 226 157 q 250 208 251 193 q 226 264 249 232 q 183 321 204 296 m 449 542 q 464 567 458 553 q 467 591 468 578 q 450 618 465 604 q 431 626 440 626 q 414 620 421 626 q 406 605 407 614 q 411 588 404 596 q 425 570 418 578 q 438 556 432 563 q 449 542 443 549 z "},"t":{"ha":593,"x_min":-22,"x_max":518,"o":"m 339 369 q 423 333 388 358 q 479 276 458 308 q 505 205 500 243 q 499 129 510 167 q 444 36 479 68 q 375 -11 410 4 q 289 -31 335 -28 q 142 3 206 -32 q 89 40 114 17 q 44 99 64 64 q 15 183 25 135 q 8 297 4 232 q 22 442 13 372 q 44 579 32 513 l -22 579 l -3 700 l 69 700 q 108 840 89 776 q 142 947 126 903 q 178 1042 160 1000 l 518 1042 q 446 863 476 950 q 396 700 415 776 l 468 700 l 447 579 l 368 579 q 353 492 358 531 q 344 426 347 454 q 339 369 340 394 m 418 200 q 408 244 421 226 q 376 272 394 261 q 329 290 356 285 q 332 228 328 256 q 342 183 335 204 q 368 160 350 163 q 403 167 392 156 q 418 200 415 178 z "},"u":{"ha":982,"x_min":-25,"x_max":1071,"o":"m 1071 204 q 967 81 1029 132 q 907 38 940 58 q 833 4 874 18 q 746 -15 793 -10 q 644 -12 699 -19 q 547 20 594 -6 q 469 83 499 46 q 365 3 432 31 q 206 -12 299 -25 q 79 33 126 -3 q 8 122 32 69 q -21 236 -17 174 q -17 363 -25 299 q 76 696 0 511 l 410 696 q 333 446 358 557 q 316 352 322 399 q 313 268 310 306 q 328 205 315 231 q 369 174 342 179 q 388 171 378 171 q 406 174 396 171 q 428 185 417 176 q 419 267 419 224 q 423 353 418 310 q 436 440 428 397 q 456 519 444 482 q 517 696 481 608 l 850 696 q 782 472 804 575 q 767 384 772 428 q 765 303 763 340 q 781 236 768 265 q 819 194 793 207 q 882 188 850 183 q 941 209 910 190 q 1003 276 972 228 l 1071 204 z "},"v":{"ha":713,"x_min":-24,"x_max":661,"o":"m 547 164 q 461 75 511 114 q 355 15 418 42 q 207 -12 292 -12 q 81 18 128 -12 q 9 98 33 49 q -19 211 -15 147 q -15 342 -24 275 q 79 696 3 497 l 413 696 q 344 472 367 575 q 330 384 335 428 q 328 303 325 340 q 343 236 331 265 q 382 194 356 207 q 404 196 390 190 q 431 215 415 200 q 468 264 447 229 q 507 367 492 304 q 528 501 521 419 q 525 694 535 582 l 647 694 q 656 508 661 603 q 647 424 653 468 q 628 335 640 379 q 596 247 615 290 q 547 164 576 203 z "},"w":{"ha":1199,"x_min":-14,"x_max":1142,"o":"m 1128 694 q 1136 508 1142 603 q 1127 424 1133 468 q 1108 335 1121 379 q 1076 247 1096 290 q 1028 164 1057 203 q 942 75 992 114 q 835 15 899 42 q 688 -12 771 -12 q 569 13 615 -12 q 499 81 524 38 q 447 48 476 64 q 383 18 418 32 q 306 -4 347 4 q 217 -12 264 -12 q 90 18 138 -12 q 19 98 43 49 q -10 211 -6 147 q -6 342 -14 275 q 89 696 13 497 l 421 696 q 353 472 375 575 q 338 384 343 428 q 336 303 333 340 q 351 236 339 265 q 390 194 364 207 q 411 192 400 192 q 433 194 421 192 q 461 206 446 196 q 469 370 454 285 q 503 529 483 456 q 558 696 526 614 l 892 696 q 824 472 846 575 q 809 384 814 428 q 807 303 804 340 q 822 236 810 265 q 861 194 835 207 q 883 196 869 190 q 910 215 894 200 q 947 264 926 229 q 986 367 971 304 q 1008 501 1000 419 q 1004 694 1015 582 l 1128 694 l 1128 694 z "},"x":{"ha":786,"x_min":32,"x_max":714,"o":"m 714 694 q 685 567 707 629 q 628 456 665 514 q 528 356 592 397 q 599 180 557 272 q 703 0 642 88 l 335 0 q 306 60 321 26 q 276 126 292 88 q 242 213 260 165 q 194 142 211 179 q 168 74 176 106 q 154 0 157 38 l 35 0 q 47 112 32 60 q 86 208 63 164 q 139 286 110 251 q 193 344 168 321 q 147 517 167 428 q 125 694 128 607 l 444 694 q 453 636 447 668 q 467 570 458 608 q 488 486 475 532 q 519 520 503 500 q 551 566 536 540 q 575 624 565 592 q 585 694 585 657 l 714 694 l 714 694 z "},"y":{"ha":882,"x_min":-6,"x_max":811,"o":"m 499 699 l 811 699 q 769 379 790 526 q 751 252 761 317 q 733 131 742 188 q 715 28 724 74 q 699 -44 706 -18 q 648 -177 679 -124 q 574 -263 617 -231 q 476 -310 531 -296 q 358 -324 422 -324 q 246 -300 290 -321 q 175 -256 201 -279 q 128 -194 144 -229 q 125 -125 118 -157 q 153 -71 131 -97 q 232 -33 176 -44 q 274 -33 251 -31 q 318 -40 297 -35 q 368 -54 343 -46 q 391 15 383 -24 q 399 76 399 53 q 352 29 383 53 q 264 6 321 6 q 143 30 192 6 q 65 92 94 54 q 20 176 35 129 q 0 267 6 222 q -4 349 -6 311 q -1 406 -3 386 q 10 494 3 454 q 26 569 17 535 q 45 635 35 604 q 65 696 56 667 l 379 696 q 349 575 363 635 q 328 466 338 524 q 318 361 318 408 q 329 288 318 324 q 369 246 340 253 q 419 261 400 239 q 439 306 439 283 l 499 699 m 272 -131 q 296 -133 283 -133 q 320 -129 307 -133 q 349 -114 333 -125 q 328 -104 339 -110 q 306 -98 318 -101 q 278 -94 293 -94 q 268 -97 272 -94 q 258 -114 258 -103 q 265 -126 258 -122 q 272 -131 268 -129 z "},"z":{"ha":815,"x_min":19,"x_max":757,"o":"m 232 -132 q 256 -135 243 -136 q 280 -130 267 -135 q 308 -114 293 -125 q 288 -104 299 -110 q 265 -97 278 -100 q 238 -93 253 -93 q 228 -96 232 -93 q 218 -114 218 -101 q 225 -128 218 -124 q 232 -132 228 -131 m 368 67 q 329 135 360 113 q 264 168 299 158 q 202 179 229 178 q 175 181 175 181 q 177 196 174 178 q 185 238 181 214 l 196 299 q 254 297 226 293 q 301 313 278 300 q 339 356 325 326 q 353 399 346 371 q 358 454 360 426 q 340 504 356 482 q 290 531 325 526 q 256 530 274 533 q 224 515 239 526 q 197 486 208 504 q 185 442 186 468 l 19 479 q 160 716 49 643 q 471 765 271 789 q 594 726 540 757 q 684 651 647 696 q 739 550 721 606 q 756 436 757 494 q 728 301 754 361 q 661 204 701 242 q 672 184 661 201 q 691 133 682 167 q 703 53 700 100 q 694 -57 707 6 q 638 -185 675 -135 q 550 -267 600 -236 q 441 -311 500 -299 q 318 -324 382 -324 q 215 -308 257 -324 q 145 -270 172 -292 q 105 -227 118 -249 q 88 -194 92 -206 q 85 -125 78 -157 q 113 -71 90 -97 q 192 -33 136 -44 q 249 -30 222 -26 q 294 -40 275 -33 q 336 -60 318 -47 q 368 67 381 -11 z "},"c":{"ha":732,"x_min":-8,"x_max":683,"o":"m 413 164 q 464 174 443 164 q 499 197 485 183 q 521 226 513 211 q 533 253 529 242 l 683 214 q 661 162 675 188 q 631 113 647 136 q 596 72 614 90 q 563 43 578 54 q 510 8 540 24 q 442 -17 481 -8 q 353 -27 403 -26 q 243 -17 304 -28 q 103 46 157 0 q 23 153 50 92 q -6 284 -4 215 q 7 414 -8 353 q 80 568 29 504 q 183 664 131 632 q 299 710 243 701 q 400 717 356 719 q 496 696 451 713 q 578 640 547 676 q 626 569 610 604 q 653 483 646 528 l 513 424 q 503 452 508 435 q 488 485 499 469 q 459 510 478 501 q 410 514 440 519 q 365 485 382 508 q 338 433 347 461 q 321 364 326 401 q 321 267 314 310 q 347 199 326 231 q 413 164 367 167 z "},".":{"ha":419,"x_min":126,"x_max":375,"o":"m 375 115 q 339 26 375 63 q 251 -10 303 -10 q 163 26 199 -10 q 126 115 126 63 q 163 203 126 167 q 251 239 199 239 q 339 203 303 239 q 375 115 375 167 z "},"A":{"ha":1182,"x_min":25,"x_max":1161,"o":"m 726 0 q 717 75 719 36 q 715 146 715 114 q 717 221 715 183 l 588 221 l 560 58 q 519 -60 550 -7 q 488 -104 507 -82 q 444 -144 469 -126 q 385 -175 418 -162 q 310 -190 351 -187 q 182 -180 238 -196 q 90 -132 126 -164 q 40 -56 54 -100 q 35 40 25 -11 q 76 123 44 93 q 140 168 107 153 q 225 190 179 185 q 273 385 240 292 q 348 559 306 478 q 438 708 390 640 q 529 825 485 775 q 593 892 564 864 q 646 938 622 919 q 694 972 671 958 l 1161 972 q 1085 629 1113 801 q 1064 475 1072 556 q 1053 313 1056 394 q 1058 151 1051 231 q 1083 0 1064 71 l 726 0 m 740 390 q 750 464 744 428 q 760 531 754 496 q 772 596 765 567 q 713 544 740 574 q 665 481 689 518 q 629 390 640 443 l 740 390 m 154 68 q 156 53 153 58 q 176 38 161 38 q 193 42 186 38 q 203 51 200 46 q 208 67 207 57 q 213 89 211 78 q 217 110 215 100 q 219 132 218 121 q 178 117 192 128 q 160 96 165 107 q 154 68 154 82 z "},"B":{"ha":1292,"x_min":32,"x_max":1249,"o":"m 292 242 q 347 438 324 331 q 385 653 369 546 q 408 858 400 761 q 418 1022 415 954 q 448 1022 418 1022 q 523 1022 478 1022 q 620 1022 568 1022 q 717 1022 672 1022 q 791 1022 761 1022 q 821 1022 821 1022 q 819 1007 821 1019 q 817 980 818 994 q 814 953 815 965 q 813 938 813 940 q 854 967 831 956 q 903 984 878 978 q 955 991 929 990 q 1004 989 981 992 q 1117 953 1071 981 q 1193 884 1164 925 q 1235 792 1222 843 q 1247 685 1249 740 q 1237 615 1247 650 q 1210 551 1226 581 q 1172 501 1193 522 q 1125 469 1150 479 q 1177 384 1163 429 q 1190 292 1192 339 q 1172 201 1188 246 q 1133 119 1157 157 q 1079 53 1108 82 q 1021 11 1050 25 q 885 -29 950 -24 q 769 -28 821 -35 q 656 0 710 -21 q 605 24 626 11 q 554 53 583 36 q 418 -9 492 10 q 271 -28 344 -28 q 151 -4 196 -25 q 82 40 106 17 q 42 101 53 67 q 38 171 32 139 q 63 225 43 199 q 136 264 83 251 q 193 269 165 271 q 243 260 221 267 q 292 242 268 253 m 815 278 q 805 351 826 322 q 739 390 783 381 q 713 297 726 338 q 681 214 700 256 q 720 205 700 207 q 759 210 740 203 q 792 233 778 217 q 815 278 807 249 m 879 664 q 878 694 879 678 q 868 724 876 710 q 842 747 860 738 q 794 760 825 757 q 791 711 793 732 q 787 671 789 690 q 782 632 785 651 q 775 588 779 613 q 806 585 789 585 q 838 594 822 586 q 865 618 854 601 q 879 664 876 635 m 185 165 q 208 163 196 163 q 233 167 219 163 q 261 182 246 171 q 240 192 251 186 q 218 198 231 194 q 192 201 206 201 q 181 199 186 201 q 171 182 171 193 q 178 169 171 174 q 185 165 181 167 z "},"C":{"ha":1107,"x_min":53,"x_max":1032,"o":"m 647 221 q 720 235 690 221 q 770 268 750 249 q 801 309 790 288 q 819 346 813 331 l 1032 292 q 999 216 1021 254 q 952 144 978 178 q 901 84 926 110 q 860 46 876 58 q 787 -1 829 21 q 690 -35 744 -22 q 565 -51 635 -49 q 407 -36 494 -53 q 213 51 288 -14 q 101 204 139 117 q 58 390 63 292 q 74 575 53 488 q 116 693 89 639 q 177 792 143 747 q 249 872 211 838 q 324 929 286 906 q 488 996 408 982 q 629 1006 567 1010 q 765 975 701 1000 q 882 896 838 947 q 950 796 926 844 q 989 674 978 738 l 790 589 q 778 629 785 604 q 756 676 771 654 q 714 712 740 699 q 644 717 688 725 q 580 675 604 710 q 542 603 556 640 q 518 504 526 557 q 518 367 508 428 q 531 315 522 340 q 554 270 539 290 q 592 236 569 250 q 647 221 615 222 z "},"D":{"ha":1307,"x_min":32,"x_max":1254,"o":"m 292 242 q 347 438 324 331 q 385 653 369 546 q 408 858 400 761 q 418 1022 415 954 l 821 1022 q 819 1007 821 1019 q 817 980 818 994 q 814 953 815 965 q 813 938 813 940 q 858 967 831 956 q 917 983 886 978 q 978 989 947 989 q 1031 985 1008 989 q 1133 944 1090 974 q 1202 872 1175 914 q 1242 776 1229 829 q 1254 665 1254 724 q 1244 488 1254 583 q 1210 301 1235 392 q 1143 136 1185 211 q 1040 22 1101 61 q 939 -23 990 -10 q 839 -36 888 -36 q 746 -26 790 -36 q 664 -2 701 -17 q 598 28 626 13 q 554 53 569 43 q 418 -9 492 10 q 271 -28 344 -28 q 151 -4 196 -25 q 82 40 106 17 q 42 101 53 67 q 38 171 32 139 q 66 224 43 199 q 144 261 89 250 q 195 265 169 267 q 243 257 221 263 q 292 242 268 251 m 882 500 q 892 639 894 588 q 878 717 890 690 q 844 751 865 743 q 796 758 822 758 q 768 553 785 644 q 734 394 751 463 q 700 282 717 326 q 674 217 683 238 q 727 209 697 206 q 787 242 757 213 q 842 333 817 271 q 882 500 868 394 m 185 165 q 208 163 196 163 q 233 167 219 163 q 261 182 246 171 q 240 192 251 186 q 218 198 231 194 q 192 201 206 201 q 181 199 186 201 q 171 182 171 193 q 178 169 171 174 q 185 165 181 167 z "},"E":{"ha":882,"x_min":31,"x_max":847,"o":"m 540 142 q 595 152 572 142 q 633 177 618 163 q 656 208 647 192 q 669 236 665 225 l 822 203 q 743 61 789 117 q 636 -26 697 6 q 496 -65 575 -57 q 317 -60 417 -72 q 194 -21 247 -51 q 103 55 140 10 q 49 156 67 100 q 32 269 31 211 q 60 404 33 344 q 126 501 86 464 q 96 563 106 529 q 83 628 86 596 q 81 690 79 661 q 88 736 83 718 q 171 903 110 838 q 313 1001 232 969 q 488 1032 394 1033 q 671 997 582 1031 q 766 936 731 974 q 819 863 801 899 q 847 774 840 819 l 706 718 q 697 747 701 729 q 681 782 692 765 q 650 808 669 799 q 597 814 631 818 q 533 779 556 808 q 503 712 511 750 q 499 636 494 674 q 517 576 503 599 q 661 535 550 525 q 657 519 661 536 q 647 481 653 501 q 632 424 642 456 q 560 426 594 431 q 501 409 531 424 q 454 363 471 394 q 439 312 447 347 q 435 240 431 276 q 462 175 439 204 q 540 142 485 146 z "},"F":{"ha":1128,"x_min":32,"x_max":1129,"o":"m 944 463 q 890 461 915 461 l 801 461 q 741 258 776 350 q 647 97 706 165 q 499 -12 588 28 q 276 -56 410 -51 q 197 -45 231 -53 q 140 -28 163 -37 q 97 -3 115 -17 q 58 40 74 15 q 39 92 46 61 q 47 164 32 124 q 79 208 54 188 q 140 233 104 229 q 191 235 165 238 q 239 228 217 233 q 288 214 264 222 q 345 347 321 285 q 388 476 369 410 q 419 617 406 542 q 446 788 433 692 q 405 788 422 789 q 372 783 388 786 q 341 772 357 779 q 304 754 325 765 l 239 928 q 299 964 264 949 q 371 989 328 978 q 471 1000 414 1000 l 893 1000 q 961 1007 928 1001 q 1018 1017 989 1011 q 1067 1035 1047 1024 q 1070 1026 1067 1035 q 1078 1003 1074 1017 q 1089 972 1083 989 q 1100 936 1094 954 q 1129 840 1114 893 q 1058 814 1099 825 q 974 797 1024 804 q 861 789 925 789 q 850 722 857 757 q 836 646 843 688 l 981 646 q 978 632 981 646 q 971 598 975 618 q 962 554 967 578 q 953 510 957 531 q 947 476 949 490 q 944 463 944 463 m 181 138 q 204 135 192 135 q 228 139 215 135 q 257 154 242 143 q 236 164 247 158 q 214 170 226 167 q 188 174 201 174 q 176 171 182 174 q 167 154 167 165 q 174 142 167 146 q 181 138 176 139 z "},"G":{"ha":1121,"x_min":51,"x_max":1056,"o":"m 690 439 l 1056 439 q 1022 269 1036 347 q 1001 126 1007 190 q 1001 14 996 63 q 1026 -65 1007 -35 q 1006 -87 1028 -68 q 956 -126 983 -106 q 881 -181 922 -151 q 839 -140 860 -165 q 802 -87 821 -119 q 771 -7 783 -54 q 619 -49 708 -37 q 407 -36 531 -60 q 209 52 285 -14 q 96 205 133 118 q 55 390 58 292 q 74 575 51 488 q 116 689 89 635 q 177 789 143 743 q 249 870 211 835 q 324 929 286 906 q 488 996 408 982 q 629 1006 567 1010 q 765 975 701 1000 q 882 896 838 947 q 950 796 926 844 q 989 674 978 738 l 790 589 q 778 629 785 604 q 756 676 771 654 q 714 712 740 699 q 644 717 688 725 q 580 675 604 710 q 542 603 556 640 q 518 504 526 557 q 518 367 508 428 q 531 315 522 340 q 554 270 539 290 q 592 236 569 250 q 647 221 615 222 q 717 233 688 221 q 765 264 746 246 l 769 285 l 665 285 l 690 439 z "},"H":{"ha":1422,"x_min":44,"x_max":1388,"o":"m 911 0 q 901 156 906 78 q 899 326 896 235 l 742 326 q 728 274 735 297 q 715 231 722 250 q 642 99 689 151 q 536 16 594 47 q 412 -28 478 -15 q 282 -42 346 -42 q 183 -28 231 -42 q 103 10 136 -15 q 58 75 71 36 q 64 165 44 114 q 110 222 78 204 q 181 242 143 239 q 253 238 218 244 q 306 221 288 231 q 348 380 326 283 q 388 583 369 476 q 419 792 407 689 q 436 972 432 894 l 839 972 q 818 767 832 876 q 788 554 804 658 l 915 554 q 947 746 926 643 q 1001 972 968 849 l 1388 972 q 1311 629 1339 801 q 1290 475 1299 556 q 1280 313 1282 394 q 1284 151 1278 231 q 1310 0 1290 71 l 911 0 m 199 144 q 222 142 210 142 q 247 146 233 142 q 275 161 260 150 q 254 171 265 165 q 232 177 244 174 q 206 181 219 181 q 194 178 200 181 q 185 161 185 172 q 192 149 185 153 q 199 144 194 146 z "},"I":{"ha":660,"x_min":44,"x_max":633,"o":"m 453 372 q 537 336 501 361 q 593 278 572 311 q 619 208 614 246 q 613 132 624 169 q 558 39 593 71 q 489 -8 524 7 q 403 -28 449 -25 q 221 0 300 -33 q 155 38 188 14 q 97 97 122 61 q 58 185 72 133 q 47 307 44 236 q 79 592 53 458 q 136 826 106 726 q 215 1043 172 943 l 633 1043 q 536 790 571 910 q 482 576 501 669 q 453 372 460 468 m 483 161 q 518 169 506 157 q 533 201 531 181 q 522 246 536 229 q 490 274 508 263 q 443 292 469 286 q 446 229 442 257 q 457 185 449 206 q 483 161 465 164 z "},"J":{"ha":1004,"x_min":38,"x_max":975,"o":"m 297 221 q 335 357 318 283 q 365 506 351 431 q 390 653 379 581 q 407 786 400 725 q 348 779 375 786 q 289 754 321 772 l 224 928 q 283 964 249 949 q 356 989 313 978 q 456 1000 399 1000 l 721 1000 q 797 1006 761 1001 q 861 1015 829 1008 q 913 1033 893 1022 q 916 1024 913 1033 q 924 1001 919 1015 q 935 970 929 988 q 946 935 940 953 q 975 839 960 892 q 933 821 958 829 q 881 806 913 814 q 810 793 850 799 q 792 651 803 728 q 769 499 782 575 q 741 352 757 422 q 707 231 725 282 q 634 98 681 151 q 529 12 588 44 q 406 -35 471 -21 q 276 -49 340 -49 q 156 -25 201 -46 q 88 19 111 -4 q 47 81 58 46 q 43 150 38 118 q 72 203 49 178 q 150 240 94 229 q 208 242 182 244 q 254 235 235 240 q 297 221 278 229 m 190 144 q 214 142 201 142 q 238 146 225 142 q 267 161 251 150 q 246 171 257 165 q 197 181 224 181 q 186 178 192 181 q 176 161 176 172 q 183 149 176 153 q 190 144 186 146 z "},"K":{"ha":1360,"x_min":39,"x_max":1283,"o":"m 1207 972 q 1228 828 1222 907 q 1221 674 1235 750 q 1169 533 1207 597 q 1056 429 1131 468 q 1053 428 1053 428 q 1080 412 1065 422 q 1107 385 1094 401 q 1126 322 1128 357 q 1119 256 1125 288 q 1113 197 1114 224 q 1132 161 1111 171 q 1166 157 1151 151 q 1192 174 1181 163 q 1213 206 1204 186 l 1283 164 q 1251 94 1271 124 q 1206 46 1231 65 q 1156 15 1182 26 q 1103 -3 1129 3 q 974 -8 1042 -18 q 876 31 915 1 q 814 99 838 60 q 779 183 790 139 q 765 270 768 228 q 763 347 761 313 q 768 399 765 381 q 743 403 753 401 q 735 407 733 406 q 672 206 710 290 q 592 78 635 122 q 517 19 556 42 q 438 -14 478 -3 q 359 -28 399 -25 q 282 -32 319 -32 q 160 -9 206 -31 q 89 36 114 13 q 47 100 60 64 q 44 169 39 138 q 71 224 50 197 q 144 261 92 250 q 193 263 168 265 q 240 256 218 261 q 292 242 265 250 q 347 431 324 331 q 385 628 369 531 q 408 815 400 726 q 418 972 415 904 q 448 972 418 972 q 523 972 478 972 q 620 972 568 972 q 717 972 672 972 q 791 972 761 972 q 821 972 821 972 q 812 882 817 929 q 801 789 807 835 q 788 703 794 743 q 776 632 782 663 q 840 646 810 628 q 889 706 869 664 q 914 815 908 749 q 906 972 919 882 l 1207 972 m 185 165 q 208 163 196 163 q 233 167 219 163 q 261 182 246 171 q 240 192 251 186 q 218 198 231 194 q 192 201 206 201 q 181 200 186 201 q 171 183 171 194 q 178 169 171 174 q 185 165 181 167 z "},"L":{"ha":1100,"x_min":-7,"x_max":1032,"o":"m 328 317 q 374 481 358 393 q 396 658 389 569 q 403 828 403 746 q 407 972 404 910 l 810 972 q 805 858 808 922 q 795 726 801 794 q 781 586 789 657 q 761 449 772 515 q 737 327 750 383 q 707 231 724 271 l 690 190 q 772 164 728 175 q 862 149 817 153 q 951 148 907 144 q 1032 163 994 151 l 1008 15 q 922 -4 976 0 q 808 -2 868 -8 q 690 19 749 4 q 592 56 632 35 q 442 -25 525 -1 q 276 -49 360 -49 q 160 -36 207 -50 q 85 -1 114 -22 q 41 42 56 19 q 21 78 26 64 q 31 231 -7 165 q 161 321 69 296 q 219 328 189 328 q 272 326 249 329 q 328 317 300 322 m 192 139 q 233 139 214 133 q 266 155 250 142 q 289 197 282 168 q 251 204 269 201 q 219 206 236 207 q 189 199 201 206 q 178 190 183 196 q 170 179 174 186 q 168 164 167 172 q 172 151 168 156 q 181 143 176 146 q 192 139 186 139 z "},"M":{"ha":1828,"x_min":47,"x_max":1793,"o":"m 1793 326 q 1777 212 1792 261 q 1740 127 1763 163 q 1690 67 1718 92 q 1633 28 1663 43 q 1479 -10 1565 -8 q 1323 16 1386 -10 q 1220 85 1260 42 q 1160 182 1181 128 q 1135 293 1140 236 q 1163 596 1119 426 q 1171 656 1169 629 q 1165 699 1171 679 q 1136 721 1158 718 q 1113 712 1122 722 q 1099 685 1104 701 q 1090 652 1093 669 q 1083 624 1086 635 q 1059 414 1063 524 q 1061 213 1056 304 q 1081 0 1067 106 l 628 0 q 596 226 601 119 q 594 411 590 332 q 614 583 600 504 q 619 646 619 618 q 613 692 619 669 q 585 721 606 714 q 546 717 564 726 q 517 678 528 707 q 505 565 508 624 q 501 449 501 507 q 501 335 500 390 q 504 229 501 279 q 521 0 510 113 l 74 0 q 51 231 54 113 q 50 450 47 350 q 65 678 54 567 q 77 793 71 740 q 90 886 83 846 q 104 971 97 932 l 554 971 q 543 929 549 950 q 536 890 539 911 q 533 853 533 869 q 605 911 569 886 q 679 952 640 936 q 763 976 718 968 q 864 981 808 983 q 946 964 907 978 q 1015 928 979 953 q 1075 860 1051 904 q 1217 953 1144 921 q 1397 981 1290 986 q 1543 932 1485 972 q 1590 889 1568 915 q 1623 826 1611 863 q 1635 739 1635 789 q 1617 624 1635 689 q 1581 469 1592 539 q 1574 411 1576 440 q 1576 358 1572 382 q 1588 319 1579 335 q 1615 299 1597 303 q 1649 302 1635 294 q 1671 321 1663 310 q 1688 351 1681 333 l 1793 326 z "},"N":{"ha":1292,"x_min":36,"x_max":1246,"o":"m 1246 326 q 1228 210 1243 260 q 1192 124 1214 160 q 1142 64 1169 88 q 1085 25 1114 40 q 935 -10 1018 -11 q 778 16 842 -10 q 676 85 715 42 q 617 182 636 128 q 592 293 597 236 q 619 597 576 426 q 631 654 629 629 q 624 696 632 676 q 590 722 617 715 q 540 706 560 728 q 508 654 519 683 q 491 429 493 544 q 493 218 489 314 q 508 1 499 107 l 60 1 q 39 233 42 114 q 39 451 36 351 q 53 679 43 568 q 65 794 58 742 q 79 888 72 847 q 93 972 86 933 l 544 972 q 533 931 539 951 q 526 892 529 913 q 522 854 522 871 q 594 913 558 888 q 669 954 629 938 q 753 978 708 971 q 853 982 797 985 q 996 931 939 972 q 1042 886 1021 913 q 1074 822 1063 860 q 1086 733 1086 783 q 1068 618 1086 683 q 1033 476 1044 542 q 1027 421 1029 449 q 1027 369 1025 393 q 1036 328 1029 346 q 1058 303 1043 311 q 1094 299 1079 292 q 1119 317 1108 306 q 1140 351 1132 331 l 1246 326 z "},"O":{"ha":1126,"x_min":29,"x_max":1061,"o":"m 631 1014 q 806 966 726 1007 q 942 859 885 925 q 1030 704 999 793 q 1060 513 1061 615 q 1044 365 1058 442 q 1001 219 1031 289 q 924 92 971 149 q 814 1 878 35 q 666 -44 744 -33 q 513 -48 588 -54 q 376 -25 439 -42 q 275 11 313 -8 q 121 147 182 61 q 73 233 94 185 q 40 343 51 282 q 32 480 29 404 q 58 647 35 556 q 121 781 83 724 q 203 878 158 838 q 298 944 249 918 q 394 985 347 969 q 631 1014 506 1021 m 818 493 q 808 576 818 538 q 778 640 799 608 q 714 683 757 672 q 632 674 668 690 q 573 615 600 658 q 540 481 546 572 q 551 338 535 388 q 590 264 568 288 q 650 233 615 238 q 705 240 681 231 q 747 268 729 250 q 777 310 765 286 q 797 358 789 333 q 818 493 815 417 z "},"P":{"ha":1299,"x_min":35,"x_max":1246,"o":"m 1075 326 q 949 285 1011 292 q 838 285 886 279 q 760 303 789 292 q 732 317 731 315 q 635 122 690 192 q 519 19 581 53 q 394 -21 458 -14 q 271 -28 331 -28 q 158 -10 201 -26 q 90 28 115 7 q 56 71 65 50 q 42 101 46 92 q 42 169 35 138 q 70 224 49 197 q 144 261 92 250 q 197 266 171 268 q 244 258 224 264 q 292 242 269 253 q 347 438 324 331 q 385 653 369 546 q 408 858 400 761 q 418 1022 415 954 l 821 1022 q 819 1007 821 1019 q 817 980 818 994 q 814 953 815 965 q 813 938 813 940 q 854 967 831 956 q 903 984 878 978 q 955 991 929 990 q 1004 989 981 992 q 1117 951 1071 981 q 1193 878 1164 922 q 1234 781 1222 835 q 1244 671 1246 728 q 1235 581 1243 629 q 1209 485 1228 532 q 1158 396 1190 438 q 1075 326 1126 354 m 878 618 q 876 647 878 632 q 866 674 875 661 q 839 697 857 688 q 789 707 821 706 q 784 653 786 675 q 780 612 782 631 q 775 575 778 593 q 769 535 772 557 q 801 532 783 531 q 835 543 819 533 q 863 571 851 553 q 878 618 875 589 m 185 165 q 208 163 196 163 q 233 167 219 163 q 261 182 246 171 q 240 192 251 186 q 218 198 231 194 q 192 201 206 201 q 181 199 186 201 q 171 182 171 193 q 178 169 171 174 q 185 165 181 167 z "},"Q":{"ha":1131,"x_min":29,"x_max":1069,"o":"m 631 1014 q 803 969 726 1007 q 937 869 881 931 q 1026 727 993 808 q 1065 553 1058 646 q 1061 407 1069 482 q 1028 262 1053 332 q 963 131 1004 192 q 858 28 921 69 q 935 -19 882 -1 q 1064 -29 989 -36 l 1040 -190 q 899 -190 969 -201 q 769 -150 838 -181 q 642 -47 700 -119 q 533 -51 588 -54 q 431 -40 479 -49 q 342 -17 382 -31 q 275 11 301 -4 q 121 147 182 61 q 73 233 94 185 q 40 343 51 282 q 32 480 29 404 q 58 647 35 556 q 121 781 83 724 q 203 878 158 838 q 298 944 249 918 q 394 985 347 969 q 631 1014 506 1021 m 818 493 q 808 576 818 538 q 778 640 799 608 q 714 683 757 672 q 632 674 668 690 q 573 615 600 658 q 540 481 546 572 q 547 356 536 403 q 575 283 557 310 q 608 318 586 301 q 674 335 631 335 q 735 319 714 335 q 764 283 756 303 q 796 348 785 311 q 813 417 807 385 q 818 493 818 454 z "},"R":{"ha":1307,"x_min":39,"x_max":1283,"o":"m 1056 388 q 1025 371 1038 376 q 1063 360 1044 368 q 1094 336 1082 351 q 1113 281 1115 308 q 1106 231 1111 254 q 1099 190 1100 208 q 1118 161 1097 171 q 1152 157 1138 151 q 1178 174 1167 163 q 1199 206 1190 186 l 1283 164 q 1251 94 1271 124 q 1206 46 1231 65 q 1156 15 1182 26 q 1103 -3 1129 3 q 974 -8 1042 -18 q 875 28 914 1 q 813 92 836 56 q 778 168 789 128 q 764 247 767 208 q 763 315 761 285 q 768 361 765 346 q 743 363 753 363 q 735 365 733 364 q 672 185 710 250 q 592 78 635 121 q 517 19 556 42 q 438 -14 478 -3 q 359 -28 399 -25 q 282 -32 319 -32 q 160 -9 206 -31 q 89 36 114 13 q 47 100 60 64 q 44 169 39 136 q 71 224 50 197 q 144 261 92 250 q 196 265 169 267 q 243 257 222 263 q 292 242 268 251 q 347 438 324 331 q 385 653 369 546 q 408 858 400 761 q 418 1022 415 954 q 448 1022 418 1022 q 523 1022 478 1022 q 620 1022 568 1022 q 717 1022 672 1022 q 791 1022 761 1022 q 821 1022 821 1022 q 819 1007 821 1019 q 817 980 818 994 q 814 953 815 965 q 813 938 813 940 q 854 967 831 956 q 903 984 878 978 q 955 991 929 990 q 1004 989 981 992 q 1117 949 1071 981 q 1191 871 1164 917 q 1227 770 1218 825 q 1228 661 1236 715 q 1209 588 1222 626 q 1175 513 1196 550 q 1124 443 1154 476 q 1056 388 1094 410 m 885 674 q 883 702 885 688 q 873 730 882 717 q 846 752 864 743 q 796 763 828 761 q 792 714 794 735 q 788 674 790 693 q 783 635 786 654 q 776 590 781 615 q 808 588 790 586 q 842 599 826 589 q 870 626 858 608 q 885 674 882 644 m 185 165 q 208 163 196 163 q 233 167 219 163 q 261 182 246 171 q 240 192 251 186 q 218 198 231 194 q 192 201 206 201 q 181 199 186 201 q 171 182 171 193 q 178 169 171 174 q 185 165 181 167 z "},"S":{"ha":828,"x_min":-15,"x_max":765,"o":"m 675 624 q 747 438 735 525 q 749 283 760 350 q 719 176 739 217 q 694 131 699 136 q 574 26 636 56 q 453 -12 511 -3 q 303 -20 382 -24 q 158 12 225 -17 q 44 98 90 40 q -11 254 -3 156 q -8 331 -15 294 q 14 398 0 367 q 47 456 28 429 q 86 506 65 483 q 196 596 133 557 q 147 763 146 685 q 186 899 149 842 q 291 989 224 956 q 443 1022 358 1022 q 551 1013 497 1022 q 649 981 604 1003 q 723 923 693 960 q 761 832 753 886 q 761 778 765 806 q 747 724 758 754 q 711 663 735 693 l 675 624 m 265 450 q 219 396 238 425 q 192 338 203 371 q 192 269 182 306 q 208 239 197 251 q 233 219 218 228 q 274 214 249 211 q 307 225 293 215 q 328 248 321 235 q 339 277 336 261 q 339 307 342 293 q 313 381 332 343 q 265 450 293 418 m 594 719 q 614 751 608 735 q 617 784 619 767 q 596 818 615 801 q 570 830 583 831 q 549 822 557 829 q 538 802 540 814 q 544 779 536 790 q 563 757 554 768 q 579 738 572 746 q 594 719 588 728 z "},"T":{"ha":793,"x_min":-33,"x_max":815,"o":"m 582 789 q 531 614 549 693 q 504 478 513 535 q 493 358 494 411 q 577 322 542 347 q 633 265 613 297 q 659 194 654 232 q 653 118 664 156 q 599 25 633 57 q 529 -22 564 -7 q 443 -42 489 -39 q 264 -14 342 -47 q 199 24 231 0 q 142 83 167 47 q 103 171 118 119 q 90 292 89 222 q 122 572 93 450 q 179 786 151 694 q 105 783 138 789 q 32 754 72 776 l -33 928 q 26 964 -8 949 q 99 989 56 978 q 199 1000 142 1000 l 597 1000 q 656 1006 626 1001 q 706 1015 679 1008 q 753 1033 733 1022 q 756 1024 753 1033 q 765 1001 760 1015 q 775 970 769 988 q 786 935 781 953 q 815 839 800 892 q 757 815 792 826 q 684 798 728 806 q 582 789 640 790 m 524 147 q 558 155 546 143 q 574 188 571 167 q 563 232 576 215 q 531 260 549 249 q 483 278 510 272 q 486 215 482 243 q 497 171 489 192 q 524 147 506 150 z "},"U":{"ha":1026,"x_min":38,"x_max":993,"o":"m 871 185 q 770 67 826 113 q 647 -2 714 21 q 506 -28 581 -25 q 353 -21 432 -32 q 178 46 243 -6 q 80 170 113 97 q 42 331 47 243 q 49 508 38 418 q 182 975 75 718 l 646 975 q 542 650 575 797 q 520 526 528 588 q 517 413 513 464 q 542 325 522 361 q 604 276 563 289 q 663 275 635 269 q 713 300 686 281 q 758 367 739 319 q 794 514 781 426 q 811 702 806 589 q 803 974 817 815 l 974 974 q 989 699 993 836 q 981 574 988 640 q 961 442 975 508 q 926 310 947 375 q 871 185 904 244 z "},"V":{"ha":1032,"x_min":53,"x_max":1006,"o":"m 847 233 q 728 110 797 164 q 580 26 668 64 q 374 -12 492 -12 q 197 30 263 -12 q 97 142 131 72 q 58 299 64 211 q 64 481 53 388 q 196 975 89 699 l 660 975 q 564 663 594 806 q 544 540 551 601 q 540 426 536 479 q 563 334 544 374 q 618 276 581 294 q 649 278 631 271 q 686 305 664 285 q 738 372 708 325 q 792 517 769 431 q 821 703 811 592 q 817 974 831 815 l 988 974 q 999 714 1006 844 q 987 597 996 658 q 960 472 978 535 q 915 349 942 410 q 847 233 888 288 z "},"W":{"ha":1688,"x_min":42,"x_max":1651,"o":"m 1633 974 q 1644 714 1651 844 q 1633 597 1642 658 q 1606 472 1624 535 q 1562 349 1589 410 q 1494 233 1535 288 q 1374 110 1443 164 q 1225 26 1314 64 q 1019 -12 1136 -12 q 856 22 919 -12 q 756 117 792 57 q 683 72 724 94 q 594 30 643 49 q 487 -1 544 11 q 363 -12 429 -12 q 185 30 251 -12 q 86 142 119 72 q 47 300 53 211 q 53 482 42 389 q 185 976 78 700 l 647 976 q 553 664 583 807 q 533 542 540 603 q 529 428 525 481 q 551 335 533 375 q 606 276 568 294 q 635 271 619 271 q 667 275 649 271 q 704 292 685 279 q 702 404 699 346 q 714 521 706 463 q 735 636 722 579 q 761 743 747 693 q 839 976 794 861 l 1304 976 q 1208 664 1239 807 q 1188 542 1196 603 q 1185 428 1181 481 q 1207 335 1189 375 q 1263 276 1225 294 q 1293 278 1275 271 q 1331 305 1308 285 q 1382 374 1353 325 q 1436 517 1414 431 q 1466 703 1456 590 q 1461 974 1476 815 l 1633 974 l 1633 974 z "},"X":{"ha":978,"x_min":-18,"x_max":935,"o":"m 935 972 q 893 793 924 879 q 860 715 879 756 q 815 637 842 675 q 753 563 788 599 q 674 497 718 526 q 774 251 714 381 q 918 0 833 122 l 404 0 q 364 83 385 38 q 322 177 344 124 q 274 297 299 231 q 204 199 229 251 q 168 103 179 147 q 151 0 154 50 l -15 0 q 3 167 -18 92 q 57 301 24 242 q 131 404 90 360 q 206 482 171 449 q 142 725 169 600 q 111 972 114 850 l 557 972 q 569 890 561 936 q 588 798 576 851 q 618 679 600 744 q 663 727 639 699 q 707 792 686 756 q 741 874 728 829 q 754 972 754 919 l 935 972 l 935 972 z "},"Y":{"ha":1074,"x_min":1,"x_max":1035,"o":"m 639 972 l 1035 972 q 983 568 1008 756 q 960 408 972 489 q 937 254 949 326 q 914 124 925 182 q 893 32 903 65 q 829 -136 869 -68 q 734 -245 789 -204 q 610 -304 679 -286 q 461 -322 542 -322 q 318 -292 374 -318 q 229 -236 263 -265 q 169 -158 190 -201 q 165 -71 157 -111 q 201 -3 172 -36 q 301 46 231 31 q 355 47 325 50 q 411 38 385 44 q 474 19 442 31 q 503 107 493 58 q 513 185 513 156 q 488 154 503 169 q 453 125 474 139 q 404 103 432 111 q 342 94 376 94 q 189 125 250 94 q 90 203 128 156 q 33 310 51 251 q 8 426 14 369 q 3 530 1 482 q 6 603 4 578 q 20 716 11 665 q 40 811 29 767 q 65 895 51 856 q 90 972 78 935 l 488 972 q 450 818 467 894 q 423 678 435 751 q 410 546 411 606 q 424 453 410 497 q 475 400 439 410 q 510 401 494 396 q 538 419 526 407 q 557 446 550 431 q 564 475 564 461 l 639 972 m 353 -78 q 382 -82 367 -82 q 413 -77 396 -82 q 449 -57 429 -72 q 422 -44 438 -50 q 394 -36 410 -40 q 360 -32 378 -32 q 347 -35 353 -32 q 335 -57 335 -40 q 343 -72 335 -64 q 353 -78 347 -76 z "},"Z":{"ha":1004,"x_min":50,"x_max":953,"o":"m 953 971 q 921 806 942 897 q 864 613 900 714 q 772 408 828 513 q 635 204 715 304 l 928 204 l 899 0 l 50 0 l 61 100 q 69 169 65 138 q 75 204 72 201 q 242 403 174 301 q 353 588 311 504 q 416 724 396 671 q 436 776 436 776 l 74 776 l 93 971 l 953 971 z "},"*":{"ha":589,"x_min":38,"x_max":554,"o":"m 547 950 q 553 925 551 938 q 549 897 554 913 q 523 863 539 874 q 492 849 507 853 q 451 846 474 843 l 347 849 l 422 796 q 451 769 439 785 q 468 739 463 757 q 467 697 474 721 q 451 670 463 682 q 428 651 439 658 q 405 640 417 644 q 378 638 393 635 q 338 653 353 640 q 317 681 324 665 q 306 718 308 697 l 285 806 l 260 717 q 246 681 256 696 q 222 654 238 667 q 183 640 207 642 q 152 647 168 639 q 126 663 136 654 q 108 680 115 669 q 97 706 100 690 q 98 747 90 729 q 117 776 106 764 q 149 801 131 792 l 219 844 l 136 844 q 97 849 115 843 q 65 865 82 853 q 42 900 49 876 q 40 932 38 915 q 49 960 43 949 q 60 983 53 972 q 82 1000 68 993 q 122 1009 103 1011 q 156 1000 140 1007 q 188 976 172 992 l 251 917 l 221 993 q 211 1031 213 1011 q 215 1065 210 1046 q 239 1100 219 1085 q 267 1113 250 1110 q 296 1117 283 1117 q 321 1113 308 1117 q 344 1100 333 1110 q 369 1065 364 1085 q 372 1031 374 1046 q 363 993 371 1011 l 332 915 l 404 978 q 438 1000 421 992 q 472 1008 453 1007 q 511 999 490 1010 q 535 976 526 992 q 547 950 543 961 z "},":":{"ha":403,"x_min":126,"x_max":431,"o":"m 375 115 q 339 26 375 63 q 251 -10 303 -10 q 163 26 199 -10 q 126 115 126 63 q 163 203 126 167 q 251 239 199 239 q 339 203 303 239 q 375 115 375 167 m 431 556 q 394 467 431 503 q 307 431 358 431 q 218 467 254 431 q 182 556 182 503 q 218 643 182 607 q 307 679 254 679 q 394 643 358 679 q 431 556 431 607 z "},"[":{"ha":567,"x_min":63,"x_max":554,"o":"m 554 1135 l 532 997 l 397 997 l 263 21 l 382 21 l 363 -103 l 63 -103 q 153 519 113 246 q 185 747 169 636 q 215 945 201 858 q 235 1084 228 1032 q 243 1135 243 1136 l 554 1135 z "},"]":{"ha":589,"x_min":63,"x_max":554,"o":"m 63 -94 l 85 43 l 219 43 l 356 1006 l 222 1006 l 240 1143 l 554 1143 q 464 521 503 793 q 431 293 447 404 q 401 95 414 182 q 381 -44 389 8 q 374 -94 374 -96 l 63 -94 z "},",":{"ha":410,"x_min":132,"x_max":382,"o":"m 382 96 q 351 -28 382 26 q 249 -104 319 -83 l 229 -64 q 251 -51 244 -61 q 257 -29 257 -40 q 250 -10 257 -18 q 231 -1 243 -1 q 159 28 186 -1 q 132 113 132 57 q 170 203 132 171 q 258 235 208 235 q 304 228 282 235 q 344 204 326 221 q 372 161 361 188 q 382 96 382 135 z "},";":{"ha":492,"x_min":132,"x_max":431,"o":"m 343 -42 q 376 31 369 -8 q 382 96 382 69 q 372 161 382 135 q 344 204 361 188 q 304 228 326 221 q 258 235 282 235 q 170 203 208 235 q 132 113 132 171 q 159 28 132 57 q 231 -1 186 -1 q 250 -10 243 -1 q 257 -29 257 -18 q 251 -51 257 -40 q 229 -64 244 -61 l 249 -104 q 283 -90 267 -99 q 315 -72 299 -83 q 343 -42 331 -60 m 431 556 q 394 467 431 503 q 307 431 358 431 q 218 467 254 431 q 182 556 182 503 q 218 643 182 607 q 307 679 254 679 q 394 643 358 679 q 431 556 431 607 z "},"/":{"ha":465,"x_min":63,"x_max":419,"o":"m 419 1135 l 242 -103 l 63 -103 l 243 1135 l 419 1135 z "},"":{"ha":451,"x_min":63,"x_max":419,"o":"m 419 1135 l 242 -103 l 63 -103 l 243 1135 l 419 1135 z "},"\\":{"ha":472,"x_min":63,"x_max":419,"o":"m 239 1135 q 247 1084 239 1136 q 267 945 254 1032 q 296 747 279 858 q 329 519 313 636 q 419 -103 368 246 l 240 -103 q 235 -79 242 -121 q 217 43 229 -37 q 190 234 206 124 q 158 463 175 344 q 126 699 142 582 q 97 910 110 815 q 74 1065 83 1004 q 63 1135 65 1126 l 239 1135 z "},"_":{"ha":688,"x_min":39,"x_max":657,"o":"m 61 129 l 657 129 l 635 0 l 39 0 l 61 129 z "},"-":{"ha":526,"x_min":39,"x_max":474,"o":"m 61 550 l 474 550 l 451 421 l 39 421 l 61 550 z "},"=":{"ha":561,"x_min":39,"x_max":511,"o":"m 61 439 l 474 439 l 451 310 l 39 310 l 61 439 m 99 649 l 511 649 l 489 519 l 76 519 l 99 649 z "},"`":{"ha":372,"x_min":36,"x_max":346,"o":"m 38 911 q 53 933 39 911 q 85 979 68 954 q 116 1026 101 1004 q 132 1047 131 1047 q 142 1040 132 1047 q 167 1019 151 1032 q 201 989 182 1006 q 240 956 221 972 q 346 865 286 915 q 314 826 328 843 q 292 799 301 811 q 282 785 282 786 q 263 793 282 783 q 217 817 244 803 q 158 847 190 831 q 98 878 125 864 q 53 901 71 892 q 38 911 36 911 z "},"":{"ha":383,"x_min":32,"x_max":342,"o":"m 340 911 q 324 901 342 911 q 280 878 307 892 q 220 847 253 864 q 160 817 188 831 q 115 793 133 803 q 96 785 96 783 q 85 799 96 786 q 64 826 75 811 q 32 865 49 843 q 138 956 92 915 q 210 1019 178 990 q 246 1047 243 1047 q 262 1026 247 1047 q 293 979 276 1004 q 324 933 310 954 q 340 911 338 911 z "},"":{"ha":581,"x_min":49,"x_max":543,"o":"m 471 760 q 453 769 471 758 q 408 798 435 781 q 351 836 382 815 q 296 874 321 857 q 234 849 268 863 q 171 824 200 836 q 122 806 142 813 q 103 800 103 799 q 94 815 103 801 q 75 844 86 828 q 49 888 63 863 q 163 967 113 931 q 204 995 183 981 q 242 1021 225 1010 q 269 1039 258 1032 q 281 1046 279 1046 q 292 1044 286 1046 q 317 1042 306 1042 q 351 1038 332 1039 q 360 1028 351 1038 q 383 1005 369 1019 q 413 972 396 990 q 449 935 431 954 q 543 833 490 889 l 507 797 q 482 772 493 783 q 471 760 471 761 z "},"^":{"ha":831,"x_min":51,"x_max":779,"o":"m 688 647 q 676 656 688 647 q 647 681 665 665 q 606 718 629 697 q 558 760 582 739 l 431 874 q 276 788 343 825 q 219 756 247 771 q 170 729 192 740 q 135 711 149 718 q 122 704 122 704 q 111 723 122 706 q 86 763 100 740 q 51 819 71 788 l 415 1046 q 426 1044 421 1046 q 451 1042 440 1042 q 486 1038 467 1039 q 499 1025 486 1038 q 533 992 513 1013 q 581 944 554 971 q 635 890 607 918 l 779 743 q 733 696 753 717 q 702 663 717 678 q 688 647 688 649 z "},"+":{"ha":675,"x_min":28,"x_max":646,"o":"m 454 694 q 448 665 451 688 q 439 608 444 642 q 427 532 433 575 q 414 443 421 489 l 646 443 l 624 314 l 397 314 q 384 217 390 264 q 373 136 378 171 q 365 81 368 101 q 363 61 363 61 l 211 61 q 222 138 217 97 q 235 217 228 172 q 249 314 242 263 l 28 314 l 50 443 l 267 443 q 282 540 275 494 q 294 621 289 586 q 302 676 299 656 q 306 694 306 696 l 454 694 z "},"":{"ha":753,"x_min":31,"x_max":722,"o":"m 451 164 q 503 174 482 164 q 538 197 524 183 q 560 226 551 211 q 572 253 568 242 l 722 214 q 700 162 714 188 q 669 113 686 136 q 635 72 653 90 q 601 43 617 54 q 542 5 576 22 q 461 -21 507 -12 q 457 -57 458 -40 q 454 -86 456 -74 q 451 -114 453 -101 l 272 -114 q 275 -90 274 -104 q 278 -61 276 -79 q 282 -17 279 -43 q 142 46 196 0 q 62 153 89 92 q 33 284 35 215 q 46 414 31 353 q 119 568 68 504 q 222 664 169 632 q 351 713 289 704 q 355 755 354 736 q 357 788 356 774 q 360 815 358 803 l 536 815 q 535 806 536 815 q 533 779 535 796 q 530 741 532 763 q 526 699 528 719 q 532 697 528 697 q 535 696 533 697 q 617 640 586 676 q 665 569 649 604 q 692 483 685 528 l 551 424 q 542 452 547 435 q 527 485 538 469 q 498 510 517 501 q 449 514 479 519 q 403 485 421 508 q 376 433 386 461 q 360 364 365 401 q 360 267 353 310 q 385 199 365 231 q 451 164 406 167 z "},"":{"ha":1074,"x_min":39,"x_max":1051,"o":"m 365 93 l 529 93 l 543 146 l 375 146 l 397 275 l 567 275 q 576 353 574 319 q 579 399 579 386 q 506 345 560 369 q 382 321 453 321 q 228 344 290 321 q 128 406 167 368 q 72 491 90 444 q 46 584 53 538 q 40 672 39 631 q 44 738 42 713 q 63 860 50 796 q 90 972 76 925 l 488 972 q 467 907 476 944 q 451 828 458 875 q 443 722 444 782 q 458 630 443 674 q 508 576 472 586 q 571 590 547 567 q 597 651 594 614 l 639 972 l 1035 972 q 1007 732 1022 853 q 993 622 1000 679 q 978 506 986 565 q 963 388 971 446 q 946 275 954 329 l 1051 275 l 1029 146 l 925 146 q 920 117 922 131 q 915 93 918 104 l 1019 93 l 997 -36 l 881 -36 q 812 -172 853 -117 q 717 -260 771 -226 q 599 -308 664 -293 q 461 -322 535 -322 q 328 -300 382 -319 q 242 -255 275 -281 q 192 -203 208 -229 q 169 -158 175 -176 q 186 -146 169 -158 q 222 -118 203 -133 q 258 -90 242 -103 q 275 -78 275 -78 q 308 -101 286 -87 q 357 -116 329 -114 q 416 -101 385 -118 q 479 -36 447 -85 l 343 -36 l 365 93 z "},"&":{"ha":1304,"x_min":54,"x_max":1258,"o":"m 940 843 q 895 717 938 776 q 782 621 853 658 q 842 485 808 546 q 917 375 876 425 q 957 413 940 396 q 988 451 974 431 q 1017 494 1003 471 q 1050 549 1031 517 l 1125 513 q 1176 487 1153 499 q 1200 474 1200 475 q 1129 338 1164 396 q 1047 221 1094 279 q 1115 201 1075 194 q 1189 233 1154 207 l 1258 85 q 1179 28 1224 53 q 1087 -12 1140 6 q 967 -29 1033 -29 q 890 -22 926 -29 q 819 4 853 -14 q 603 -79 719 -56 q 363 -76 488 -103 q 220 -16 281 -60 q 122 88 160 28 q 69 222 85 149 q 65 375 54 296 q 100 491 74 438 q 166 586 126 544 q 255 656 206 628 q 358 699 304 685 q 331 888 314 804 q 417 1035 347 972 q 492 1086 450 1067 q 582 1113 535 1106 q 677 1117 629 1121 q 769 1099 725 1113 q 903 997 863 1068 q 940 843 944 926 m 704 851 q 716 776 704 814 q 736 721 728 738 q 766 748 751 733 q 789 781 781 763 q 810 857 811 828 q 799 901 808 886 q 778 919 790 915 q 760 924 767 924 q 726 911 738 922 q 710 886 715 900 q 704 851 704 871 m 579 206 q 475 383 522 283 q 438 325 443 360 q 446 263 433 290 q 579 206 486 174 z "},"":{"ha":1086,"x_min":29,"x_max":1050,"o":"m 708 190 q 790 164 746 175 q 880 149 835 153 q 969 148 925 144 q 1050 163 1013 151 l 1026 15 q 940 -4 994 0 q 826 -2 886 -8 q 708 19 767 4 q 610 56 650 35 q 460 -25 543 -1 q 294 -49 378 -49 q 160 -32 210 -51 q 83 11 110 -12 q 40 75 51 39 q 33 153 29 114 q 53 225 36 192 q 102 283 71 258 q 179 321 133 308 q 238 329 207 328 q 296 328 269 331 q 356 318 326 325 q 351 405 354 368 q 343 469 347 442 l 163 469 l 185 599 l 310 599 q 296 663 301 626 q 290 760 290 699 q 326 905 293 847 q 406 997 358 963 q 512 1044 454 1031 q 624 1060 569 1058 q 722 1053 678 1061 q 788 1035 767 1044 q 878 973 847 1013 q 922 893 908 933 q 938 794 938 847 l 796 739 q 794 769 796 751 q 786 804 793 788 q 764 833 779 821 q 722 847 749 846 q 673 835 690 849 q 646 806 656 822 q 632 761 635 786 q 629 678 626 718 q 639 599 632 639 l 860 599 l 838 469 l 668 469 q 697 338 683 407 q 708 190 710 269 m 210 139 q 251 139 232 133 q 284 155 268 142 q 307 197 300 168 q 269 203 288 201 q 236 203 254 204 q 206 196 218 203 q 196 189 200 194 q 190 178 193 185 q 188 163 186 172 q 191 151 188 156 q 199 144 194 147 q 210 139 204 140 z "},"$":{"ha":861,"x_min":64,"x_max":825,"o":"m 681 758 q 683 794 685 778 q 677 824 682 810 q 657 844 672 838 q 626 848 639 853 q 607 832 614 843 q 599 806 600 821 q 606 779 599 792 q 701 567 668 664 q 743 394 733 471 q 744 258 753 317 q 718 158 736 200 q 627 38 682 78 q 514 -12 572 -3 q 487 -16 500 -15 q 460 -18 474 -17 q 448 -93 453 -69 q 446 -103 443 -117 l 267 -103 q 271 -75 268 -90 l 282 -8 q 197 21 236 1 q 127 72 157 40 q 81 149 97 104 q 64 254 64 193 q 97 395 64 335 q 172 496 131 456 q 250 557 214 536 q 293 581 286 578 q 259 743 257 669 q 289 872 261 817 q 364 963 317 928 q 465 1013 411 999 q 478 1103 474 1071 q 483 1133 483 1135 l 660 1133 l 642 1008 q 790 914 754 993 q 790 717 825 835 l 681 758 m 326 214 q 376 242 363 215 q 387 307 389 268 q 370 390 385 346 q 335 472 356 435 q 304 445 321 463 q 274 404 288 428 q 251 351 260 381 q 244 289 243 322 q 254 250 246 267 q 278 223 261 235 q 326 214 294 211 z "},"@":{"ha":1204,"x_min":42,"x_max":1154,"o":"m 661 1049 q 897 1004 803 1046 q 1049 898 992 963 q 1129 753 1106 833 q 1153 594 1153 672 q 1137 444 1154 515 q 1094 329 1119 374 q 1067 281 1088 314 q 1009 217 1046 249 q 919 165 972 186 q 793 153 865 144 q 700 183 739 160 q 638 239 661 207 q 572 173 619 193 q 476 153 524 153 q 373 175 414 153 q 307 231 332 197 q 270 308 282 265 q 256 390 258 350 q 256 463 253 429 q 263 513 258 496 q 290 603 272 560 q 336 682 308 647 q 404 738 364 717 q 497 764 444 760 q 585 756 550 769 q 644 721 621 743 q 651 738 647 731 q 657 751 654 746 q 661 763 660 757 l 938 763 q 871 569 894 657 q 855 494 861 532 q 850 424 849 457 q 861 367 851 392 q 894 332 871 343 q 928 326 910 322 q 964 344 943 329 q 1011 399 985 358 q 1051 578 1051 482 q 1009 754 1051 674 q 881 888 967 835 q 663 942 794 942 q 591 940 628 942 q 515 931 554 939 q 433 905 475 922 q 347 856 390 888 q 265 778 299 819 q 211 694 232 738 q 180 606 190 650 q 167 522 169 563 q 182 331 160 426 q 271 176 204 243 q 340 120 299 147 q 436 72 381 93 q 564 39 492 51 q 728 28 636 26 q 729 9 728 26 q 732 -31 731 -8 q 736 -87 733 -56 q 532 -71 632 -89 q 442 -50 489 -62 q 350 -17 396 -37 q 261 31 304 3 q 182 99 218 60 q 121 179 146 136 q 80 266 96 222 q 56 353 64 310 q 47 438 49 397 q 60 625 42 531 q 164 840 89 746 q 241 919 196 881 q 347 986 286 957 q 485 1033 407 1015 q 661 1049 563 1050 m 629 465 q 621 521 632 497 q 583 547 610 544 q 543 527 557 549 q 526 474 529 506 q 535 419 524 442 q 571 393 546 396 q 612 412 597 390 q 629 465 626 433 z "},"%":{"ha":981,"x_min":36,"x_max":936,"o":"m 221 994 q 298 973 267 992 q 347 924 329 954 q 372 855 365 894 q 378 772 379 815 q 369 703 376 740 q 343 633 361 665 q 293 579 325 600 q 211 560 261 558 q 115 584 150 561 q 62 642 79 607 q 40 716 44 676 q 39 792 36 756 q 74 915 44 872 q 136 975 104 957 q 221 994 174 996 m 274 769 q 272 813 275 793 q 262 842 269 828 q 238 857 254 856 q 214 853 225 860 q 194 830 204 846 q 182 779 185 814 q 183 724 178 743 q 194 696 188 706 q 215 683 203 685 q 247 694 235 681 q 265 724 258 707 q 274 769 272 743 m 778 490 q 855 469 824 488 q 904 420 886 450 q 929 351 922 390 q 935 268 936 311 q 926 199 933 236 q 900 128 918 161 q 850 75 882 96 q 768 56 818 54 q 672 80 707 57 q 619 138 636 103 q 597 212 601 172 q 596 288 593 251 q 631 410 601 368 q 693 471 661 453 q 778 490 731 492 m 831 265 q 829 308 832 289 q 819 338 826 324 q 794 353 811 351 q 771 349 782 356 q 751 326 761 342 q 739 275 742 310 q 740 220 735 239 q 751 192 744 201 q 772 179 760 181 q 803 190 792 176 q 822 219 815 203 q 831 265 829 239 m 744 1042 q 727 986 742 1033 q 690 866 713 939 q 638 703 667 793 q 580 518 610 613 q 522 333 550 424 q 470 172 493 243 q 432 53 447 100 q 415 0 417 7 l 236 0 q 401 524 328 294 q 463 715 432 621 q 516 883 493 810 q 553 999 539 956 q 568 1042 568 1043 l 744 1042 z "},"#":{"ha":890,"x_min":31,"x_max":821,"o":"m 103 700 l 246 700 l 292 972 l 431 972 l 385 700 l 528 700 l 574 972 l 713 972 l 667 700 l 821 700 l 799 571 l 644 571 l 618 415 l 769 415 l 747 286 l 596 286 l 547 0 l 408 0 l 457 286 l 314 286 l 265 0 l 126 0 l 175 286 l 31 286 l 51 415 l 197 415 l 224 571 l 82 571 l 103 700 m 336 415 l 479 415 l 506 571 l 363 571 l 336 415 z "},"(":{"ha":531,"x_min":60,"x_max":499,"o":"m 388 1139 l 499 1038 q 375 881 429 972 q 330 793 351 842 q 291 687 308 744 q 263 562 274 629 q 253 419 253 494 q 276 213 253 311 q 328 40 300 115 q 403 -124 361 -47 l 257 -210 q 158 -47 201 -142 q 90 150 121 33 q 60 421 60 267 q 84 642 60 542 q 144 822 108 742 q 222 961 179 901 q 301 1060 264 1021 q 362 1119 338 1100 q 388 1139 386 1139 z "},")":{"ha":539,"x_min":46,"x_max":485,"o":"m 157 -206 q 140 -188 157 -204 q 101 -153 122 -172 q 46 -104 76 -131 q 168 53 114 -39 q 213 140 190 92 q 253 247 235 189 q 281 371 271 304 q 292 514 292 438 q 268 720 292 622 q 217 893 244 818 q 142 1057 183 981 l 288 1143 q 386 981 342 1075 q 453 783 422 900 q 485 513 485 667 q 460 292 485 392 q 400 111 436 192 q 321 -29 364 31 q 242 -128 278 -89 q 181 -187 206 -168 q 157 -206 157 -207 z "},"|":{"ha":300,"x_min":57,"x_max":238,"o":"m 238 1135 q 238 1084 238 1136 q 237 945 238 1032 q 236 747 236 858 q 236 519 236 636 l 236 -103 l 57 -103 q 57 -50 57 -103 q 58 90 57 3 q 59 288 58 176 q 60 516 60 400 q 60 743 60 632 q 61 941 61 854 q 61 1081 61 1028 q 61 1135 61 1135 l 238 1135 z "},"\"":{"ha":425,"x_min":43,"x_max":367,"o":"m 185 971 q 183 958 185 971 q 181 926 182 946 q 176 883 179 907 q 172 832 174 858 q 160 693 167 771 l 63 693 q 53 832 58 771 q 49 883 50 858 q 46 926 47 907 q 44 958 44 946 q 43 971 43 971 l 185 971 m 367 971 q 365 958 367 971 q 363 926 364 946 q 358 883 361 907 q 354 832 356 858 q 342 693 349 771 l 244 693 q 235 832 240 771 q 231 883 232 858 q 228 926 229 907 q 226 958 226 946 q 225 971 225 971 l 367 971 z "},"":{"ha":247,"x_min":54,"x_max":196,"o":"m 196 972 q 194 960 196 972 q 192 928 193 947 q 188 884 190 908 q 183 833 185 860 q 171 694 178 772 l 74 694 q 64 833 69 772 q 60 884 61 860 q 57 928 58 908 q 55 960 56 947 q 54 972 54 972 l 196 972 z "},"":{"ha":232,"x_min":43,"x_max":185,"o":"m 185 972 q 183 960 185 972 q 181 928 182 947 q 176 884 179 908 q 172 833 174 860 q 160 694 167 772 l 63 694 q 53 833 58 772 q 49 884 50 860 q 46 928 47 908 q 44 960 44 947 q 43 972 43 972 l 185 972 z "},"":{"ha":419,"x_min":43,"x_max":367,"o":"m 185 971 q 183 958 185 971 q 181 926 182 946 q 176 883 179 907 q 172 832 174 858 q 160 693 167 771 l 63 693 q 53 832 58 771 q 49 883 50 858 q 46 926 47 907 q 44 958 44 946 q 43 971 43 971 l 185 971 m 367 971 q 365 958 367 971 q 363 926 364 946 q 358 883 361 907 q 354 832 356 858 q 342 693 349 771 l 244 693 q 235 832 240 771 q 231 883 232 858 q 228 926 229 907 q 226 958 226 946 q 225 971 225 971 l 367 971 z "},"":{"ha":411,"x_min":43,"x_max":367,"o":"m 185 972 q 183 960 185 972 q 181 928 182 947 q 176 884 179 908 q 172 833 174 860 q 160 694 167 772 l 63 694 q 53 833 58 772 q 49 884 50 860 q 46 928 47 908 q 44 960 44 947 q 43 972 43 972 l 185 972 m 367 972 q 365 960 367 972 q 363 928 364 947 q 358 884 361 908 q 354 833 356 860 q 342 694 349 772 l 244 694 q 235 833 240 772 q 231 884 232 860 q 228 928 229 908 q 226 960 226 947 q 225 972 225 972 l 367 972 z "},"{":{"ha":643,"x_min":53,"x_max":581,"o":"m 357 557 q 350 505 361 524 q 324 476 339 486 q 297 465 310 467 q 285 461 285 463 q 330 447 314 458 q 353 421 346 435 q 363 397 361 407 q 364 385 364 386 q 369 242 361 303 q 389 135 376 181 q 418 58 401 89 q 453 6 435 26 q 550 -50 494 -42 l 439 -174 q 321 -107 374 -162 q 277 -47 299 -83 q 238 41 256 -11 q 208 163 219 93 q 194 324 196 232 q 174 378 193 363 q 132 399 156 394 q 71 396 106 404 q 63 451 67 426 q 57 491 60 472 q 53 513 54 510 q 122 516 99 508 q 156 535 146 524 q 168 558 167 546 q 169 575 169 571 q 192 824 169 724 q 250 988 215 924 q 326 1085 285 1051 q 401 1132 367 1118 q 459 1147 436 1146 q 482 1146 482 1147 q 497 1126 482 1143 q 531 1088 511 1108 l 581 1032 q 450 961 506 1017 q 406 902 426 938 q 371 818 385 867 q 352 705 357 769 q 357 557 347 640 z "},"}":{"ha":643,"x_min":53,"x_max":599,"o":"m 293 426 q 302 478 290 460 q 329 506 314 497 q 357 516 344 514 q 369 519 369 518 q 325 536 340 524 q 303 562 310 549 q 294 586 296 575 q 293 599 293 597 q 293 741 297 679 q 278 849 289 803 q 251 928 267 896 q 218 982 235 961 q 124 1040 178 1032 l 239 1160 q 354 1089 304 1146 q 395 1027 375 1064 q 431 938 415 990 q 456 815 447 885 q 464 654 465 744 q 482 599 464 615 q 524 576 500 582 q 585 576 550 571 q 592 519 589 544 q 596 480 594 497 q 599 460 597 463 q 530 459 554 465 q 494 441 506 453 q 482 417 483 429 q 481 401 481 406 q 448 155 475 254 q 384 -7 421 56 q 306 -101 347 -69 q 228 -146 264 -133 q 170 -158 193 -158 q 147 -157 147 -158 q 133 -137 147 -156 q 100 -97 118 -119 q 53 -40 79 -72 q 185 26 129 -28 q 231 83 208 49 q 269 166 253 118 q 292 278 285 214 q 293 426 299 343 z "},"<":{"ha":681,"x_min":46,"x_max":618,"o":"m 617 769 q 615 745 618 771 q 607 688 613 719 l 593 601 l 253 518 l 551 317 l 526 139 l 46 468 l 71 636 q 342 701 222 672 q 442 726 393 714 q 529 747 490 738 q 592 762 568 756 q 617 769 615 768 z "},">":{"ha":665,"x_min":47,"x_max":621,"o":"m 50 171 q 51 194 47 168 q 60 253 54 221 l 74 339 l 414 422 l 115 624 l 140 801 l 621 472 l 596 304 q 325 239 444 268 q 224 215 274 226 q 137 193 175 203 q 74 177 99 183 q 50 171 50 171 z "},"":{"ha":576,"x_min":39,"x_max":529,"o":"m 61 550 l 529 550 l 507 421 l 39 421 l 61 550 z "},"":{"ha":711,"x_min":39,"x_max":668,"o":"m 61 550 l 668 550 l 646 421 l 39 421 l 61 550 z "},"~":{"ha":764,"x_min":44,"x_max":717,"o":"m 44 928 q 71 956 46 932 q 137 1003 96 981 q 231 1038 178 1026 q 342 1029 283 1049 q 408 998 386 1014 q 445 967 431 982 q 472 940 460 953 q 511 919 485 928 q 547 919 531 913 q 576 936 564 925 q 603 965 592 949 l 717 847 q 644 776 683 804 q 566 737 611 751 q 469 738 521 722 q 426 759 442 746 q 394 787 410 772 q 358 816 378 801 q 301 843 338 831 q 245 847 269 854 q 201 826 221 839 q 163 789 179 811 l 44 928 l 44 928 z "},"":{"ha":617,"x_min":39,"x_max":535,"o":"m 286 585 q 322 674 286 638 q 410 710 358 710 q 499 674 463 710 q 535 585 535 638 q 499 497 535 533 q 410 461 463 461 q 322 497 358 461 q 286 585 286 533 m 478 367 q 474 336 478 367 q 463 256 469 306 q 449 143 457 207 q 433 13 442 79 q 390 -342 415 -143 l 39 -340 l 244 411 q 363 389 311 399 q 406 381 385 385 q 442 374 426 376 q 468 369 458 371 q 478 367 478 367 z "},"":{"ha":757,"x_min":-122,"x_max":547,"o":"m -49 165 q 40 232 -8 214 q 129 253 88 250 q 226 243 178 257 l 247 404 q 369 383 315 392 q 415 376 393 379 q 453 370 436 372 q 481 367 471 368 q 492 365 492 365 q 479 226 485 288 q 474 176 476 200 q 470 132 472 151 q 467 101 468 113 q 465 90 465 90 q 410 90 439 90 q 354 87 381 90 q 304 75 328 83 q 264 50 281 67 q 242 15 251 38 q 233 -33 233 -8 q 245 -81 233 -58 q 286 -118 257 -104 q 328 -128 308 -128 q 365 -123 349 -129 q 393 -106 381 -117 q 411 -86 406 -96 l 547 -164 q 510 -226 535 -196 q 456 -280 489 -253 q 369 -328 422 -308 q 221 -351 296 -349 q 154 -349 189 -353 q 85 -335 119 -346 q 17 -307 51 -325 q -46 -261 -17 -289 q -99 -174 -81 -228 q -120 -60 -118 -121 q -105 60 -122 0 q -49 165 -87 119 m 265 585 q 301 674 265 638 q 389 710 338 710 q 478 674 442 710 q 514 585 514 638 q 478 497 514 533 q 389 461 442 461 q 301 497 338 461 q 265 585 265 533 z "},"?":{"ha":851,"x_min":125,"x_max":794,"o":"m 721 535 q 633 468 681 486 q 543 447 585 450 q 446 457 494 443 l 425 296 q 303 317 357 308 q 258 324 279 321 q 219 330 236 328 q 191 333 201 332 q 181 335 181 335 q 193 474 188 413 q 198 524 196 500 q 202 568 200 549 q 206 599 204 588 q 207 610 207 610 q 263 610 233 610 q 318 613 292 610 q 368 625 344 617 q 408 650 392 633 q 430 685 421 663 q 439 733 439 708 q 427 781 439 758 q 386 818 415 804 q 344 828 364 828 q 308 823 324 829 q 279 806 292 817 q 261 786 267 796 l 125 864 q 163 926 138 896 q 217 981 183 953 q 303 1028 250 1008 q 451 1051 376 1049 q 518 1049 483 1053 q 587 1035 553 1046 q 655 1007 621 1025 q 718 961 689 989 q 772 874 753 928 q 792 760 790 821 q 777 640 794 700 q 721 535 760 581 m 407 115 q 371 26 407 63 q 283 -10 335 -10 q 194 26 231 -10 q 158 115 158 63 q 194 203 158 167 q 283 239 231 239 q 371 203 335 239 q 407 115 407 167 z "},"!":{"ha":647,"x_min":131,"x_max":626,"o":"m 379 115 q 343 26 379 63 q 256 -10 307 -10 q 167 26 203 -10 q 131 115 131 63 q 167 203 131 167 q 256 239 203 239 q 343 203 307 239 q 379 115 379 167 m 188 333 q 192 364 188 333 q 202 444 196 394 q 216 557 208 493 q 232 688 224 621 q 275 1042 250 843 l 626 1040 l 421 289 q 303 311 354 301 q 260 319 281 315 q 223 326 239 324 q 197 331 207 329 q 188 333 188 333 z "},"":{"ha":947,"x_min":33,"x_max":908,"o":"m 593 372 q 678 336 642 361 q 736 278 715 311 q 763 205 757 244 q 754 124 768 165 q 730 72 744 93 q 699 35 715 50 q 664 10 682 19 q 629 -6 646 0 q 543 -15 589 -19 q 435 19 481 -14 q 397 56 415 33 q 366 113 379 79 q 347 192 353 146 q 346 300 342 239 q 362 457 353 381 q 386 604 371 533 l 350 604 q 299 385 308 492 q 293 192 289 278 q 319 0 299 92 l 206 0 q 185 97 192 46 q 178 199 179 147 q 179 300 176 250 q 186 396 182 350 q 221 606 197 503 q 124 628 165 606 q 89 652 106 638 q 60 689 72 667 q 40 742 47 711 q 36 815 33 774 q 51 895 39 861 q 83 953 64 929 q 125 994 101 978 q 172 1019 149 1010 q 299 1042 228 1043 l 908 1042 l 872 915 l 719 915 q 651 705 676 803 q 614 532 626 607 q 593 372 599 446 m 624 161 q 658 169 646 157 q 674 201 671 181 q 663 246 676 229 q 631 274 649 263 q 583 292 610 286 q 586 229 582 257 q 597 185 589 206 q 624 161 606 164 z "},"'":{"ha":265,"x_min":43,"x_max":224,"o":"m 224 971 q 222 958 224 971 q 219 926 221 946 q 215 883 218 907 q 211 832 213 858 q 199 693 206 771 l 63 693 q 53 832 58 771 q 49 883 50 858 q 46 926 47 907 q 44 958 44 946 q 43 971 43 971 l 224 971 z "},"":{"ha":513,"x_min":19,"x_max":492,"o":"m 19 913 q 37 933 21 915 q 80 969 53 951 q 143 999 107 988 q 221 1000 179 1010 q 269 982 253 992 q 297 963 286 972 q 317 945 307 953 q 346 933 326 938 q 371 935 360 931 q 390 949 382 940 q 407 971 400 957 l 492 894 q 446 842 471 864 q 393 809 424 822 q 326 804 363 796 q 295 817 307 808 q 272 834 283 825 q 244 852 260 843 q 204 868 229 861 q 164 868 181 874 q 135 851 147 863 q 110 822 119 839 l 19 913 l 19 913 z "},"":{"ha":461,"x_min":47,"x_max":404,"o":"m 404 442 q 390 372 404 404 q 352 315 376 339 q 296 276 328 290 q 226 263 264 263 q 156 276 189 263 q 99 315 124 290 q 61 372 75 339 q 47 442 47 404 q 61 510 47 478 q 99 567 75 543 q 156 606 124 592 q 226 619 189 619 q 296 606 264 619 q 352 567 328 592 q 390 510 376 543 q 404 442 404 478 z "},"":{"ha":1206,"x_min":74,"x_max":1163,"o":"m 1103 439 q 1051 358 1088 390 q 972 304 1015 325 q 886 273 929 283 q 813 258 843 263 q 844 199 821 221 q 885 169 868 178 q 940 157 911 157 q 997 169 965 157 q 1063 219 1028 182 l 1163 149 q 1122 96 1144 121 q 1078 53 1103 75 q 1022 19 1053 32 q 913 -10 982 0 q 769 -13 843 -19 q 627 17 694 -7 q 524 88 560 40 q 492 42 513 61 q 447 11 472 24 q 392 -7 421 -1 q 335 -12 363 -12 q 214 13 263 -12 q 136 79 165 39 q 94 168 107 119 q 77 263 81 217 q 77 349 74 310 q 85 407 81 388 q 117 514 96 463 q 171 605 138 565 q 251 670 204 644 q 360 701 297 696 q 462 692 421 707 q 531 650 503 676 q 538 670 535 661 q 544 686 542 679 q 550 699 547 693 q 663 715 597 706 q 797 725 729 724 q 928 715 865 726 q 1033 669 990 703 q 1091 599 1075 639 q 1110 524 1107 560 q 1103 439 1113 482 m 513 353 q 503 417 515 390 q 460 447 490 444 q 413 424 429 450 q 393 363 396 399 q 403 298 390 325 q 446 268 415 271 q 493 290 476 265 q 513 353 510 315 m 806 349 q 871 358 842 350 q 918 382 896 365 q 944 429 940 399 q 926 469 947 451 q 875 479 906 486 q 830 450 844 471 q 810 406 815 429 q 806 349 804 379 z "},"":{"ha":1521,"x_min":25,"x_max":1461,"o":"m 1158 204 q 1213 215 1190 204 q 1251 241 1236 226 q 1274 272 1265 256 q 1288 299 1283 288 l 1440 265 q 1418 209 1432 238 q 1388 156 1404 181 q 1353 110 1371 131 q 1319 78 1336 90 q 1253 38 1288 54 q 1177 14 1218 22 q 1089 2 1136 6 q 986 0 1042 -1 l 726 0 q 717 60 719 22 q 714 133 714 97 q 717 221 714 175 l 588 221 l 560 58 q 519 -60 550 -7 q 488 -104 507 -82 q 444 -144 469 -126 q 385 -175 418 -162 q 310 -190 351 -187 q 182 -180 238 -196 q 90 -132 126 -164 q 40 -56 54 -100 q 35 40 25 -11 q 76 123 44 93 q 140 168 107 153 q 225 190 179 185 q 273 385 240 292 q 348 559 306 478 q 438 708 390 640 q 529 825 485 775 q 593 892 564 864 q 646 938 622 919 q 694 972 671 958 l 1064 972 q 1151 969 1111 974 q 1221 958 1190 965 q 1285 942 1256 951 q 1380 881 1344 918 q 1433 807 1415 843 q 1461 718 1454 764 l 1319 663 q 1310 692 1315 674 q 1294 726 1306 710 q 1264 753 1283 743 q 1211 758 1244 763 q 1166 741 1183 754 q 1139 713 1149 728 q 1122 674 1128 696 q 1120 665 1122 674 q 1119 642 1118 656 q 1123 613 1119 629 q 1138 582 1126 597 q 1166 560 1147 567 q 1207 550 1185 553 q 1253 547 1229 547 q 1299 547 1276 547 q 1293 527 1299 549 q 1281 478 1288 506 l 1261 406 q 1176 417 1217 417 q 1108 403 1142 415 q 1056 354 1074 390 q 1048 321 1051 346 q 1052 269 1044 296 q 1084 223 1060 243 q 1158 204 1108 203 m 740 390 q 750 464 744 428 q 760 531 754 496 q 772 596 765 567 q 713 544 740 574 q 665 481 689 518 q 629 390 640 443 l 740 390 m 154 68 q 156 53 153 58 q 176 38 161 38 q 193 42 186 38 q 203 51 200 46 q 208 67 207 57 q 213 89 211 78 q 217 110 215 100 q 219 132 218 121 q 178 117 192 128 q 160 96 165 107 q 154 68 154 82 z "},"":{"ha":1472,"x_min":-6,"x_max":1233,"o":"m 1174 439 q 1122 358 1158 390 q 1043 304 1086 325 q 957 273 1000 283 q 883 258 914 263 q 915 199 892 221 q 956 169 939 178 q 1011 157 982 157 q 1067 169 1036 157 q 1133 219 1099 182 l 1233 149 q 1197 99 1218 124 q 1153 56 1179 78 q 1093 19 1126 35 q 1024 -6 1067 4 q 930 -19 981 -17 q 825 -12 879 -21 q 724 19 771 -4 q 625 93 663 47 q 535 18 588 44 q 432 -13 486 -6 q 326 -17 378 -21 q 232 -2 275 -14 q 163 25 189 10 q 57 118 99 58 q 24 177 39 143 q 2 253 10 211 q -4 348 -6 296 q 14 463 -3 400 q 56 554 31 515 q 113 621 82 593 q 178 666 144 649 q 244 694 211 683 q 408 715 321 719 q 545 674 486 708 q 644 585 604 640 q 754 672 693 639 q 878 717 815 706 q 1001 716 942 728 q 1104 669 1060 704 q 1161 595 1144 635 q 1181 521 1178 556 q 1174 439 1185 481 m 538 357 q 531 414 538 388 q 509 458 524 438 q 465 488 494 479 q 410 481 435 493 q 368 440 388 469 q 346 347 349 411 q 353 249 342 283 q 379 199 364 214 q 421 178 396 181 q 490 201 465 174 q 525 263 514 228 q 538 357 538 303 m 876 349 q 942 358 913 350 q 989 382 967 365 q 1015 429 1011 399 q 997 469 1018 451 q 946 479 976 486 q 901 450 915 471 q 881 406 886 429 q 876 349 875 379 z "},"":{"ha":592,"x_min":49,"x_max":543,"o":"m 121 1043 q 139 1033 121 1044 q 183 1005 157 1022 q 240 967 210 988 q 296 929 271 946 q 358 953 324 940 q 421 978 392 967 q 469 997 450 990 q 489 1003 489 1004 q 497 988 489 1001 q 515 958 504 974 q 543 915 528 939 q 429 836 479 871 q 387 807 408 821 q 349 782 365 793 q 322 764 332 771 q 311 757 311 757 q 299 758 310 757 q 275 761 289 758 q 240 765 260 763 q 208 797 238 765 q 143 867 179 828 l 49 969 l 85 1006 q 109 1031 99 1019 q 121 1043 119 1042 z "},"":{"ha":1004,"x_min":50,"x_max":953,"o":"m 953 971 q 921 806 942 897 q 864 613 900 714 q 772 408 828 513 q 635 204 715 304 l 928 204 l 899 0 l 50 0 l 61 100 q 69 169 65 138 q 75 204 72 201 q 242 403 174 301 q 353 588 311 504 q 416 724 396 671 q 436 776 436 776 l 74 776 l 93 971 l 953 971 m 401 1321 q 419 1311 401 1322 q 464 1283 438 1300 q 521 1244 490 1265 q 576 1207 551 1224 q 638 1231 604 1218 q 701 1256 672 1244 q 750 1275 731 1268 q 769 1281 769 1282 q 777 1265 769 1279 q 796 1236 785 1251 q 824 1193 808 1217 q 710 1114 760 1149 q 667 1085 689 1099 q 629 1060 646 1071 q 602 1042 613 1049 q 592 1035 592 1035 q 580 1035 590 1035 q 556 1039 569 1036 q 521 1043 540 1040 q 489 1074 518 1043 q 424 1144 460 1106 l 329 1247 l 365 1283 q 390 1308 379 1297 q 401 1321 400 1319 z "},"":{"ha":829,"x_min":42,"x_max":779,"o":"m 254 -89 q 278 -92 265 -93 q 302 -87 289 -92 q 331 -71 315 -82 q 310 -61 321 -67 q 288 -53 300 -57 q 260 -50 275 -50 q 250 -53 254 -50 q 240 -71 240 -58 q 247 -85 240 -81 q 254 -89 250 -87 m 390 110 q 351 178 382 156 q 286 211 321 201 q 224 222 251 221 q 197 224 197 224 q 199 239 196 221 q 207 281 203 257 l 218 342 q 276 340 249 336 q 324 356 300 343 q 361 399 347 369 q 375 442 368 414 q 380 497 382 469 q 363 547 378 525 q 313 574 347 569 q 278 573 296 576 q 246 558 261 569 q 219 529 231 547 q 207 485 208 511 l 42 522 q 182 759 71 686 q 493 808 293 832 q 616 769 563 800 q 706 694 669 739 q 761 593 743 649 q 778 479 779 538 q 750 344 776 404 q 683 247 724 285 q 694 227 683 244 q 713 176 704 210 q 726 96 722 143 q 717 -14 729 49 q 660 -142 697 -92 q 572 -224 622 -193 q 463 -268 522 -256 q 340 -281 404 -281 q 237 -265 279 -281 q 167 -227 194 -249 q 127 -184 140 -206 q 110 -151 114 -162 q 107 -82 100 -114 q 135 -28 113 -54 q 214 10 158 -1 q 271 13 244 17 q 317 3 297 10 q 358 -17 340 -4 q 390 110 403 32 m 289 1150 q 307 1140 289 1151 q 351 1112 325 1129 q 408 1074 378 1094 q 464 1036 439 1053 q 526 1060 492 1047 q 589 1085 560 1074 q 638 1104 618 1097 q 657 1110 657 1111 q 665 1094 657 1108 q 683 1065 672 1081 q 711 1022 696 1046 q 597 943 647 978 q 555 914 576 928 q 517 889 533 900 q 490 871 500 878 q 479 864 479 864 q 467 865 478 864 q 443 868 457 865 q 408 872 428 869 q 376 903 406 872 q 311 974 347 935 l 217 1076 l 253 1113 q 277 1138 267 1126 q 289 1150 288 1149 z "},"":{"ha":828,"x_min":-15,"x_max":765,"o":"m 675 624 q 747 438 735 525 q 749 283 760 350 q 719 176 739 217 q 694 131 699 136 q 574 26 636 56 q 453 -12 511 -3 q 303 -20 382 -24 q 158 12 225 -17 q 44 98 90 40 q -11 254 -3 156 q -8 331 -15 294 q 14 398 0 367 q 47 456 28 429 q 86 506 65 483 q 196 596 133 557 q 147 763 146 685 q 186 899 149 842 q 291 989 224 956 q 443 1022 358 1022 q 551 1013 497 1022 q 649 981 604 1003 q 723 923 693 960 q 761 832 753 886 q 761 778 765 806 q 747 724 758 754 q 711 663 735 693 l 675 624 m 265 450 q 219 396 238 425 q 192 338 203 371 q 192 269 182 306 q 208 239 197 251 q 233 219 218 228 q 274 214 249 211 q 307 225 293 215 q 328 248 321 235 q 339 277 336 261 q 339 307 342 293 q 313 381 332 343 q 265 450 293 418 m 594 719 q 614 751 608 735 q 617 784 619 767 q 596 818 615 801 q 570 830 583 831 q 549 822 557 829 q 538 802 540 814 q 544 779 536 790 q 563 757 554 768 q 579 738 572 746 q 594 719 588 728 m 336 1346 q 354 1336 336 1347 q 399 1308 372 1325 q 456 1269 425 1290 q 511 1232 486 1249 q 573 1256 539 1243 q 636 1281 607 1269 q 685 1300 665 1293 q 704 1306 704 1307 q 712 1290 704 1304 q 731 1261 719 1276 q 758 1218 743 1242 q 644 1139 694 1174 q 602 1110 624 1124 q 564 1085 581 1096 q 537 1067 547 1074 q 526 1060 526 1060 q 515 1060 525 1060 q 490 1064 504 1061 q 456 1068 475 1065 q 424 1099 453 1068 q 358 1169 394 1131 l 264 1272 l 300 1308 q 324 1333 314 1322 q 336 1346 335 1344 z "},"":{"ha":667,"x_min":-21,"x_max":632,"o":"m 511 468 q 567 321 558 388 q 567 205 576 254 q 542 127 558 156 q 524 94 526 99 q 432 11 479 35 q 340 -19 385 -12 q 226 -25 286 -28 q 114 -1 165 -22 q 26 65 63 21 q -15 185 -10 110 q -1 292 -21 247 q 47 368 19 338 q 121 428 79 404 q 87 558 83 496 q 124 668 90 621 q 212 743 157 715 q 332 771 267 771 q 415 764 374 771 q 489 740 456 757 q 546 697 522 724 q 576 628 569 669 q 576 586 579 608 q 566 544 574 567 q 539 499 558 522 l 511 468 m 183 321 q 154 286 165 306 q 138 247 143 269 q 140 197 133 225 q 153 174 144 183 q 172 158 160 165 q 203 154 183 151 q 239 175 226 157 q 250 208 251 193 q 226 264 249 232 q 183 321 204 296 m 449 542 q 464 567 458 553 q 467 591 468 578 q 450 618 465 604 q 431 626 440 626 q 414 620 421 626 q 406 605 407 614 q 411 588 404 596 q 425 570 418 578 q 438 556 432 563 q 449 542 443 549 m 210 1107 q 228 1097 210 1108 q 272 1069 246 1086 q 329 1031 299 1051 q 385 993 360 1010 q 447 1017 413 1004 q 510 1042 481 1031 q 558 1061 539 1054 q 578 1067 578 1068 q 585 1051 578 1065 q 604 1022 593 1038 q 632 979 617 1003 q 518 900 568 935 q 476 871 497 885 q 438 846 454 857 q 410 828 421 835 q 400 821 400 821 q 388 822 399 821 q 364 825 378 822 q 329 829 349 826 q 297 860 326 829 q 232 931 268 892 l 138 1033 l 174 1069 q 198 1094 188 1083 q 210 1107 208 1106 z "},"":{"ha":517,"x_min":28,"x_max":492,"o":"m 219 889 q 192 821 219 849 q 124 793 164 793 q 56 821 83 793 q 28 889 28 849 q 56 957 28 929 q 124 985 83 985 q 192 957 164 985 q 219 889 219 929 m 492 889 q 464 821 492 849 q 396 793 436 793 q 328 821 356 793 q 300 889 300 849 q 328 957 300 929 q 396 985 356 985 q 464 957 436 985 q 492 889 492 929 z "},"":{"ha":1074,"x_min":1,"x_max":1035,"o":"m 639 972 l 1035 972 q 983 568 1008 756 q 960 408 972 489 q 937 254 949 326 q 914 124 925 182 q 893 32 903 65 q 829 -136 869 -68 q 734 -245 789 -204 q 610 -304 679 -286 q 461 -322 542 -322 q 318 -292 374 -318 q 229 -236 263 -265 q 169 -158 190 -201 q 165 -71 157 -111 q 201 -3 172 -36 q 301 46 231 31 q 355 47 325 50 q 411 38 385 44 q 474 19 442 31 q 503 107 493 58 q 513 185 513 156 q 488 154 503 169 q 453 125 474 139 q 404 103 432 111 q 342 94 376 94 q 189 125 250 94 q 90 203 128 156 q 33 310 51 251 q 8 426 14 369 q 3 530 1 482 q 6 603 4 578 q 20 716 11 665 q 40 811 29 767 q 65 895 51 856 q 90 972 78 935 l 488 972 q 450 818 467 894 q 423 678 435 751 q 410 546 411 606 q 424 453 410 497 q 475 400 439 410 q 510 401 494 396 q 538 419 526 407 q 557 446 550 431 q 564 475 564 461 l 639 972 m 353 -78 q 382 -82 367 -82 q 413 -77 396 -82 q 449 -57 429 -72 q 422 -44 438 -50 q 394 -36 410 -40 q 360 -32 378 -32 q 347 -35 353 -32 q 335 -57 335 -40 q 343 -72 335 -64 q 353 -78 347 -76 m 529 1167 q 501 1099 529 1126 q 433 1071 474 1071 q 365 1099 393 1071 q 338 1167 338 1126 q 365 1235 338 1207 q 433 1263 393 1263 q 501 1235 474 1263 q 529 1167 529 1207 m 801 1167 q 774 1099 801 1126 q 706 1071 746 1071 q 638 1099 665 1071 q 610 1167 610 1126 q 638 1235 610 1207 q 706 1263 665 1263 q 774 1235 746 1263 q 801 1167 801 1207 z "},"":{"ha":1182,"x_min":25,"x_max":1161,"o":"m 726 0 q 717 75 719 36 q 715 146 715 114 q 717 221 715 183 l 588 221 l 560 58 q 519 -60 550 -7 q 488 -104 507 -82 q 444 -144 469 -126 q 385 -175 418 -162 q 310 -190 351 -187 q 182 -180 238 -196 q 90 -132 126 -164 q 40 -56 54 -100 q 35 40 25 -11 q 76 123 44 93 q 140 168 107 153 q 225 190 179 185 q 273 385 240 292 q 348 559 306 478 q 438 708 390 640 q 529 825 485 775 q 593 892 564 864 q 646 938 622 919 q 694 972 671 958 l 1161 972 q 1085 629 1113 801 q 1064 475 1072 556 q 1053 313 1056 394 q 1058 151 1051 231 q 1083 0 1064 71 l 726 0 m 740 390 q 750 464 744 428 q 760 531 754 496 q 772 596 765 567 q 713 544 740 574 q 665 481 689 518 q 629 390 640 443 l 740 390 m 154 68 q 156 53 153 58 q 176 38 161 38 q 193 42 186 38 q 203 51 200 46 q 208 67 207 57 q 213 89 211 78 q 217 110 215 100 q 219 132 218 121 q 178 117 192 128 q 160 96 165 107 q 154 68 154 82 m 793 1189 q 809 1210 794 1189 q 840 1257 824 1232 q 872 1303 857 1282 q 888 1325 886 1325 q 897 1317 888 1325 q 922 1297 907 1310 q 957 1267 938 1283 q 996 1233 976 1250 q 1101 1143 1042 1193 q 1069 1104 1083 1121 q 1047 1076 1057 1089 q 1038 1063 1038 1064 q 1019 1071 1038 1061 q 973 1094 1000 1081 q 913 1125 946 1108 q 853 1156 881 1142 q 809 1179 826 1169 q 793 1189 792 1189 z "},"":{"ha":1182,"x_min":25,"x_max":1161,"o":"m 726 0 q 717 75 719 36 q 715 146 715 114 q 717 221 715 183 l 588 221 l 560 58 q 519 -60 550 -7 q 488 -104 507 -82 q 444 -144 469 -126 q 385 -175 418 -162 q 310 -190 351 -187 q 182 -180 238 -196 q 90 -132 126 -164 q 40 -56 54 -100 q 35 40 25 -11 q 76 123 44 93 q 140 168 107 153 q 225 190 179 185 q 273 385 240 292 q 348 559 306 478 q 438 708 390 640 q 529 825 485 775 q 593 892 564 864 q 646 938 622 919 q 694 972 671 958 l 1161 972 q 1085 629 1113 801 q 1064 475 1072 556 q 1053 313 1056 394 q 1058 151 1051 231 q 1083 0 1064 71 l 726 0 m 740 390 q 750 464 744 428 q 760 531 754 496 q 772 596 765 567 q 713 544 740 574 q 665 481 689 518 q 629 390 640 443 l 740 390 m 154 68 q 156 53 153 58 q 176 38 161 38 q 193 42 186 38 q 203 51 200 46 q 208 67 207 57 q 213 89 211 78 q 217 110 215 100 q 219 132 218 121 q 178 117 192 128 q 160 96 165 107 q 154 68 154 82 m 1107 1189 q 1091 1179 1108 1189 q 1047 1156 1074 1169 q 987 1125 1019 1142 q 927 1094 954 1108 q 881 1071 900 1081 q 863 1063 863 1061 q 852 1076 863 1064 q 831 1104 842 1089 q 799 1143 815 1121 q 904 1233 858 1193 q 977 1297 944 1268 q 1013 1325 1010 1325 q 1028 1303 1014 1325 q 1060 1257 1043 1282 q 1090 1210 1076 1232 q 1107 1189 1104 1189 z "},"":{"ha":1182,"x_min":25,"x_max":1190,"o":"m 726 0 q 717 75 719 36 q 715 146 715 114 q 717 221 715 183 l 588 221 l 560 58 q 519 -60 550 -7 q 488 -104 507 -82 q 444 -144 469 -126 q 385 -175 418 -162 q 310 -190 351 -187 q 182 -180 238 -196 q 90 -132 126 -164 q 40 -56 54 -100 q 35 40 25 -11 q 76 123 44 93 q 140 168 107 153 q 225 190 179 185 q 273 385 240 292 q 348 559 306 478 q 438 708 390 640 q 529 825 485 775 q 593 892 564 864 q 646 938 622 919 q 694 972 671 958 l 1161 972 q 1085 629 1113 801 q 1064 475 1072 556 q 1053 313 1056 394 q 1058 151 1051 231 q 1083 0 1064 71 l 726 0 m 740 390 q 750 464 744 428 q 760 531 754 496 q 772 596 765 567 q 713 544 740 574 q 665 481 689 518 q 629 390 640 443 l 740 390 m 154 68 q 156 53 153 58 q 176 38 161 38 q 193 42 186 38 q 203 51 200 46 q 208 67 207 57 q 213 89 211 78 q 217 110 215 100 q 219 132 218 121 q 178 117 192 128 q 160 96 165 107 q 154 68 154 82 m 1118 1038 q 1100 1047 1118 1036 q 1056 1076 1082 1058 q 999 1114 1029 1093 q 943 1151 968 1135 q 881 1127 915 1140 q 818 1102 847 1114 q 769 1083 789 1090 q 750 1078 750 1076 q 742 1092 750 1079 q 722 1122 733 1106 q 696 1165 710 1140 q 810 1244 760 1208 q 851 1273 831 1258 q 889 1299 872 1288 q 916 1317 906 1310 q 928 1324 926 1324 q 939 1322 933 1324 q 964 1319 953 1319 q 999 1315 979 1317 q 1008 1306 999 1315 q 1030 1283 1017 1297 q 1060 1250 1043 1268 q 1096 1213 1078 1232 q 1190 1111 1138 1167 l 1154 1075 q 1129 1050 1140 1061 q 1118 1038 1118 1039 z "},"":{"ha":1182,"x_min":25,"x_max":1190,"o":"m 726 0 q 717 75 719 36 q 715 146 715 114 q 717 221 715 183 l 588 221 l 560 58 q 519 -60 550 -7 q 488 -104 507 -82 q 444 -144 469 -126 q 385 -175 418 -162 q 310 -190 351 -187 q 182 -180 238 -196 q 90 -132 126 -164 q 40 -56 54 -100 q 35 40 25 -11 q 76 123 44 93 q 140 168 107 153 q 225 190 179 185 q 273 385 240 292 q 348 559 306 478 q 438 708 390 640 q 529 825 485 775 q 593 892 564 864 q 646 938 622 919 q 694 972 671 958 l 1161 972 q 1085 629 1113 801 q 1064 475 1072 556 q 1053 313 1056 394 q 1058 151 1051 231 q 1083 0 1064 71 l 726 0 m 740 390 q 750 464 744 428 q 760 531 754 496 q 772 596 765 567 q 713 544 740 574 q 665 481 689 518 q 629 390 640 443 l 740 390 m 154 68 q 156 53 153 58 q 176 38 161 38 q 193 42 186 38 q 203 51 200 46 q 208 67 207 57 q 213 89 211 78 q 217 110 215 100 q 219 132 218 121 q 178 117 192 128 q 160 96 165 107 q 154 68 154 82 m 718 1190 q 735 1211 719 1193 q 778 1247 751 1229 q 842 1276 806 1265 q 919 1278 878 1288 q 968 1260 951 1269 q 995 1240 985 1250 q 1015 1223 1006 1231 q 1044 1211 1025 1215 q 1069 1213 1058 1208 q 1089 1226 1081 1218 q 1106 1249 1099 1235 l 1190 1172 q 1144 1119 1169 1142 q 1092 1087 1122 1100 q 1025 1082 1061 1074 q 994 1094 1006 1086 q 970 1112 982 1103 q 943 1130 958 1121 q 903 1146 928 1139 q 863 1146 879 1151 q 833 1129 846 1140 q 808 1100 818 1117 l 718 1190 l 718 1190 z "},"":{"ha":1182,"x_min":25,"x_max":1175,"o":"m 726 0 q 717 75 719 36 q 715 146 715 114 q 717 221 715 183 l 588 221 l 560 58 q 519 -60 550 -7 q 488 -104 507 -82 q 444 -144 469 -126 q 385 -175 418 -162 q 310 -190 351 -187 q 182 -180 238 -196 q 90 -132 126 -164 q 40 -56 54 -100 q 35 40 25 -11 q 76 123 44 93 q 140 168 107 153 q 225 190 179 185 q 273 385 240 292 q 348 559 306 478 q 438 708 390 640 q 529 825 485 775 q 593 892 564 864 q 646 938 622 919 q 694 972 671 958 l 1161 972 q 1085 629 1113 801 q 1064 475 1072 556 q 1053 313 1056 394 q 1058 151 1051 231 q 1083 0 1064 71 l 726 0 m 740 390 q 750 464 744 428 q 760 531 754 496 q 772 596 765 567 q 713 544 740 574 q 665 481 689 518 q 629 390 640 443 l 740 390 m 154 68 q 156 53 153 58 q 176 38 161 38 q 193 42 186 38 q 203 51 200 46 q 208 67 207 57 q 213 89 211 78 q 217 110 215 100 q 219 132 218 121 q 178 117 192 128 q 160 96 165 107 q 154 68 154 82 m 903 1167 q 875 1099 903 1126 q 807 1071 847 1071 q 739 1099 767 1071 q 711 1167 711 1126 q 739 1235 711 1207 q 807 1263 767 1263 q 875 1235 847 1263 q 903 1167 903 1207 m 1175 1167 q 1147 1099 1175 1126 q 1079 1071 1119 1071 q 1011 1099 1039 1071 q 983 1167 983 1126 q 1011 1235 983 1207 q 1079 1263 1039 1263 q 1147 1235 1119 1263 q 1175 1167 1175 1207 z "},"":{"ha":351,"x_min":22,"x_max":331,"o":"m 331 906 q 319 845 331 874 q 286 796 307 817 q 237 763 265 775 q 176 751 208 751 q 117 763 144 751 q 68 796 89 775 q 35 845 47 817 q 22 906 22 874 q 35 965 22 938 q 68 1014 47 993 q 117 1047 89 1035 q 176 1060 144 1060 q 237 1047 208 1060 q 286 1014 265 1035 q 319 965 307 993 q 331 906 331 938 m 256 904 q 234 956 256 935 q 182 976 213 976 q 128 956 150 976 q 107 904 107 935 q 128 851 107 872 q 182 829 150 829 q 234 851 213 829 q 256 904 256 872 z "},"":{"ha":1182,"x_min":25,"x_max":1161,"o":"m 726 0 q 717 75 719 36 q 715 146 715 114 q 717 221 715 183 l 588 221 l 560 58 q 519 -60 550 -7 q 488 -104 507 -82 q 444 -144 469 -126 q 385 -175 418 -162 q 310 -190 351 -187 q 182 -180 238 -196 q 90 -132 126 -164 q 40 -56 54 -100 q 35 40 25 -11 q 76 123 44 93 q 140 168 107 153 q 225 190 179 185 q 273 385 240 292 q 348 559 306 478 q 438 708 390 640 q 529 825 485 775 q 593 892 564 864 q 646 938 622 919 q 694 972 671 958 l 1161 972 q 1085 629 1113 801 q 1064 475 1072 556 q 1053 313 1056 394 q 1058 151 1051 231 q 1083 0 1064 71 l 726 0 m 740 390 q 750 464 744 428 q 760 531 754 496 q 772 596 765 567 q 713 544 740 574 q 665 481 689 518 q 629 390 640 443 l 740 390 m 154 68 q 156 53 153 58 q 176 38 161 38 q 193 42 186 38 q 203 51 200 46 q 208 67 207 57 q 213 89 211 78 q 217 110 215 100 q 219 132 218 121 q 178 117 192 128 q 160 96 165 107 q 154 68 154 82 m 1082 1183 q 1070 1123 1082 1151 q 1038 1074 1058 1094 q 988 1041 1017 1053 q 928 1029 960 1029 q 868 1041 896 1029 q 819 1074 840 1053 q 786 1123 799 1094 q 774 1183 774 1151 q 786 1243 774 1215 q 819 1292 799 1271 q 868 1325 840 1313 q 928 1338 896 1338 q 988 1325 960 1338 q 1038 1292 1017 1313 q 1070 1243 1058 1271 q 1082 1183 1082 1215 m 1007 1182 q 985 1233 1007 1213 q 933 1254 964 1254 q 880 1233 901 1254 q 858 1182 858 1213 q 880 1128 858 1150 q 933 1107 901 1107 q 985 1128 964 1107 q 1007 1182 1007 1150 z "},"":{"ha":882,"x_min":31,"x_max":847,"o":"m 540 142 q 595 152 572 142 q 633 177 618 163 q 656 208 647 192 q 669 236 665 225 l 822 203 q 743 61 789 117 q 636 -26 697 6 q 496 -65 575 -57 q 317 -60 417 -72 q 194 -21 247 -51 q 103 55 140 10 q 49 156 67 100 q 32 269 31 211 q 60 404 33 344 q 126 501 86 464 q 96 563 106 529 q 83 628 86 596 q 81 690 79 661 q 88 736 83 718 q 171 903 110 838 q 313 1001 232 969 q 488 1032 394 1033 q 671 997 582 1031 q 766 936 731 974 q 819 863 801 899 q 847 774 840 819 l 706 718 q 697 747 701 729 q 681 782 692 765 q 650 808 669 799 q 597 814 631 818 q 533 779 556 808 q 503 712 511 750 q 499 636 494 674 q 517 576 503 599 q 661 535 550 525 q 657 519 661 536 q 647 481 653 501 q 632 424 642 456 q 560 426 594 431 q 501 409 531 424 q 454 363 471 394 q 439 312 447 347 q 435 240 431 276 q 462 175 439 204 q 540 142 485 146 m 403 1189 q 419 1210 404 1189 q 450 1257 433 1232 q 481 1303 467 1282 q 497 1325 496 1325 q 507 1317 497 1325 q 532 1297 517 1310 q 567 1267 547 1283 q 606 1233 586 1250 q 711 1143 651 1193 q 679 1104 693 1121 q 657 1076 667 1089 q 647 1063 647 1064 q 628 1071 647 1061 q 583 1094 610 1081 q 523 1125 556 1108 q 463 1156 490 1142 q 419 1179 436 1169 q 403 1189 401 1189 z "},"":{"ha":882,"x_min":31,"x_max":847,"o":"m 540 142 q 595 152 572 142 q 633 177 618 163 q 656 208 647 192 q 669 236 665 225 l 822 203 q 743 61 789 117 q 636 -26 697 6 q 496 -65 575 -57 q 317 -60 417 -72 q 194 -21 247 -51 q 103 55 140 10 q 49 156 67 100 q 32 269 31 211 q 60 404 33 344 q 126 501 86 464 q 96 563 106 529 q 83 628 86 596 q 81 690 79 661 q 88 736 83 718 q 171 903 110 838 q 313 1001 232 969 q 488 1032 394 1033 q 671 997 582 1031 q 766 936 731 974 q 819 863 801 899 q 847 774 840 819 l 706 718 q 697 747 701 729 q 681 782 692 765 q 650 808 669 799 q 597 814 631 818 q 533 779 556 808 q 503 712 511 750 q 499 636 494 674 q 517 576 503 599 q 661 535 550 525 q 657 519 661 536 q 647 481 653 501 q 632 424 642 456 q 560 426 594 431 q 501 409 531 424 q 454 363 471 394 q 439 312 447 347 q 435 240 431 276 q 462 175 439 204 q 540 142 485 146 m 697 1189 q 681 1179 699 1189 q 637 1156 664 1169 q 577 1125 610 1142 q 517 1094 544 1108 q 472 1071 490 1081 q 453 1063 453 1061 q 442 1076 453 1064 q 421 1104 432 1089 q 389 1143 406 1121 q 494 1233 449 1193 q 567 1297 535 1268 q 603 1325 600 1325 q 619 1303 604 1325 q 650 1257 633 1282 q 681 1210 667 1232 q 697 1189 694 1189 z "},"":{"ha":882,"x_min":31,"x_max":847,"o":"m 540 142 q 595 152 572 142 q 633 177 618 163 q 656 208 647 192 q 669 236 665 225 l 822 203 q 743 61 789 117 q 636 -26 697 6 q 496 -65 575 -57 q 317 -60 417 -72 q 194 -21 247 -51 q 103 55 140 10 q 49 156 67 100 q 32 269 31 211 q 60 404 33 344 q 126 501 86 464 q 96 563 106 529 q 83 628 86 596 q 81 690 79 661 q 88 736 83 718 q 171 903 110 838 q 313 1001 232 969 q 488 1032 394 1033 q 671 997 582 1031 q 766 936 731 974 q 819 863 801 899 q 847 774 840 819 l 706 718 q 697 747 701 729 q 681 782 692 765 q 650 808 669 799 q 597 814 631 818 q 533 779 556 808 q 503 712 511 750 q 499 636 494 674 q 517 576 503 599 q 661 535 550 525 q 657 519 661 536 q 647 481 653 501 q 632 424 642 456 q 560 426 594 431 q 501 409 531 424 q 454 363 471 394 q 439 312 447 347 q 435 240 431 276 q 462 175 439 204 q 540 142 485 146 m 713 1038 q 694 1047 713 1036 q 650 1076 676 1058 q 593 1114 624 1093 q 538 1151 563 1135 q 476 1127 510 1140 q 413 1102 442 1114 q 364 1083 383 1090 q 344 1078 344 1076 q 336 1092 344 1079 q 317 1122 328 1106 q 290 1165 304 1140 q 404 1244 354 1208 q 446 1273 425 1258 q 483 1299 467 1288 q 510 1317 500 1310 q 522 1324 521 1324 q 533 1322 528 1324 q 558 1319 547 1319 q 593 1315 574 1317 q 602 1306 593 1315 q 624 1283 611 1297 q 655 1250 638 1268 q 690 1213 672 1232 q 785 1111 732 1167 l 749 1075 q 724 1050 735 1061 q 713 1038 713 1039 z "},"":{"ha":882,"x_min":31,"x_max":847,"o":"m 540 142 q 595 152 572 142 q 633 177 618 163 q 656 208 647 192 q 669 236 665 225 l 822 203 q 743 61 789 117 q 636 -26 697 6 q 496 -65 575 -57 q 317 -60 417 -72 q 194 -21 247 -51 q 103 55 140 10 q 49 156 67 100 q 32 269 31 211 q 60 404 33 344 q 126 501 86 464 q 96 563 106 529 q 83 628 86 596 q 81 690 79 661 q 88 736 83 718 q 171 903 110 838 q 313 1001 232 969 q 488 1032 394 1033 q 671 997 582 1031 q 766 936 731 974 q 819 863 801 899 q 847 774 840 819 l 706 718 q 697 747 701 729 q 681 782 692 765 q 650 808 669 799 q 597 814 631 818 q 533 779 556 808 q 503 712 511 750 q 499 636 494 674 q 517 576 503 599 q 661 535 550 525 q 657 519 661 536 q 647 481 653 501 q 632 424 642 456 q 560 426 594 431 q 501 409 531 424 q 454 363 471 394 q 439 312 447 347 q 435 240 431 276 q 462 175 439 204 q 540 142 485 146 m 486 1167 q 458 1099 486 1126 q 390 1071 431 1071 q 322 1099 350 1071 q 294 1167 294 1126 q 322 1235 294 1207 q 390 1263 350 1263 q 458 1235 431 1263 q 486 1167 486 1207 m 758 1167 q 731 1099 758 1126 q 663 1071 703 1071 q 594 1099 622 1071 q 567 1167 567 1126 q 594 1235 567 1207 q 663 1263 622 1263 q 731 1235 703 1263 q 758 1167 758 1207 z "},"":{"ha":660,"x_min":44,"x_max":633,"o":"m 453 372 q 537 336 501 361 q 593 278 572 311 q 619 208 614 246 q 613 132 624 169 q 558 39 593 71 q 489 -8 524 7 q 403 -28 449 -25 q 221 0 300 -33 q 155 38 188 14 q 97 97 122 61 q 58 185 72 133 q 47 307 44 236 q 79 592 53 458 q 136 826 106 726 q 215 1043 172 943 l 633 1043 q 536 790 571 910 q 482 576 501 669 q 453 372 460 468 m 483 161 q 518 169 506 157 q 533 201 531 181 q 522 246 536 229 q 490 274 508 263 q 443 292 469 286 q 446 229 442 257 q 457 185 449 206 q 483 161 465 164 m 290 1217 q 306 1238 292 1217 q 338 1285 321 1260 q 369 1331 354 1310 q 385 1353 383 1353 q 394 1345 385 1353 q 419 1324 404 1338 q 454 1294 435 1311 q 493 1261 474 1278 q 599 1171 539 1221 q 567 1132 581 1149 q 544 1104 554 1117 q 535 1090 535 1092 q 516 1099 535 1089 q 470 1122 497 1108 q 410 1153 443 1136 q 351 1183 378 1169 q 306 1207 324 1197 q 290 1217 289 1217 z "},"":{"ha":660,"x_min":44,"x_max":633,"o":"m 453 372 q 537 336 501 361 q 593 278 572 311 q 619 208 614 246 q 613 132 624 169 q 558 39 593 71 q 489 -8 524 7 q 403 -28 449 -25 q 221 0 300 -33 q 155 38 188 14 q 97 97 122 61 q 58 185 72 133 q 47 307 44 236 q 79 592 53 458 q 136 826 106 726 q 215 1043 172 943 l 633 1043 q 536 790 571 910 q 482 576 501 669 q 453 372 460 468 m 483 161 q 518 169 506 157 q 533 201 531 181 q 522 246 536 229 q 490 274 508 263 q 443 292 469 286 q 446 229 442 257 q 457 185 449 206 q 483 161 465 164 m 601 1203 q 585 1193 603 1203 q 541 1169 568 1183 q 481 1139 514 1156 q 422 1108 449 1122 q 376 1085 394 1094 q 357 1076 357 1075 q 347 1090 357 1078 q 325 1118 336 1103 q 293 1157 310 1135 q 399 1247 353 1207 q 472 1310 439 1282 q 507 1339 504 1339 q 523 1317 508 1339 q 554 1271 538 1296 q 585 1224 571 1246 q 601 1203 599 1203 z "},"":{"ha":660,"x_min":44,"x_max":700,"o":"m 453 372 q 537 336 501 361 q 593 278 572 311 q 619 208 614 246 q 613 132 624 169 q 558 39 593 71 q 489 -8 524 7 q 403 -28 449 -25 q 221 0 300 -33 q 155 38 188 14 q 97 97 122 61 q 58 185 72 133 q 47 307 44 236 q 79 592 53 458 q 136 826 106 726 q 215 1043 172 943 l 633 1043 q 536 790 571 910 q 482 576 501 669 q 453 372 460 468 m 483 161 q 518 169 506 157 q 533 201 531 181 q 522 246 536 229 q 490 274 508 263 q 443 292 469 286 q 446 229 442 257 q 457 185 449 206 q 483 161 465 164 m 628 1090 q 610 1100 628 1089 q 565 1128 592 1111 q 508 1167 539 1146 q 453 1204 478 1188 q 391 1180 425 1193 q 328 1155 357 1167 q 279 1136 299 1143 q 260 1131 260 1129 q 251 1145 260 1132 q 232 1175 243 1158 q 206 1218 219 1193 q 319 1297 269 1261 q 361 1326 340 1311 q 399 1351 382 1340 q 426 1369 415 1363 q 438 1376 436 1376 q 449 1375 443 1376 q 474 1372 463 1372 q 508 1368 489 1369 q 517 1359 508 1368 q 540 1335 526 1350 q 570 1303 553 1321 q 606 1265 588 1285 q 700 1164 647 1219 l 664 1128 q 639 1103 650 1114 q 628 1090 628 1092 z "},"":{"ha":660,"x_min":44,"x_max":676,"o":"m 453 372 q 537 336 501 361 q 593 278 572 311 q 619 208 614 246 q 613 132 624 169 q 558 39 593 71 q 489 -8 524 7 q 403 -28 449 -25 q 221 0 300 -33 q 155 38 188 14 q 97 97 122 61 q 58 185 72 133 q 47 307 44 236 q 79 592 53 458 q 136 826 106 726 q 215 1043 172 943 l 633 1043 q 536 790 571 910 q 482 576 501 669 q 453 372 460 468 m 483 161 q 518 169 506 157 q 533 201 531 181 q 522 246 536 229 q 490 274 508 263 q 443 292 469 286 q 446 229 442 257 q 457 185 449 206 q 483 161 465 164 m 404 1201 q 376 1133 404 1161 q 308 1106 349 1106 q 240 1133 268 1106 q 213 1201 213 1161 q 240 1269 213 1242 q 308 1297 268 1297 q 376 1269 349 1297 q 404 1201 404 1242 m 676 1201 q 649 1133 676 1161 q 581 1106 621 1106 q 513 1133 540 1106 q 485 1201 485 1161 q 513 1269 485 1242 q 581 1297 540 1297 q 649 1269 621 1297 q 676 1201 676 1242 z "},"":{"ha":1292,"x_min":36,"x_max":1246,"o":"m 1246 326 q 1228 210 1243 260 q 1192 124 1214 160 q 1142 64 1169 88 q 1085 25 1114 40 q 935 -10 1018 -11 q 778 16 842 -10 q 676 85 715 42 q 617 182 636 128 q 592 293 597 236 q 619 597 576 426 q 631 654 629 629 q 624 696 632 676 q 590 722 617 715 q 540 706 560 728 q 508 654 519 683 q 491 429 493 544 q 493 218 489 314 q 508 1 499 107 l 60 1 q 39 233 42 114 q 39 451 36 351 q 53 679 43 568 q 65 794 58 742 q 79 888 72 847 q 93 972 86 933 l 544 972 q 533 931 539 951 q 526 892 529 913 q 522 854 522 871 q 594 913 558 888 q 669 954 629 938 q 753 978 708 971 q 853 982 797 985 q 996 931 939 972 q 1042 886 1021 913 q 1074 822 1063 860 q 1086 733 1086 783 q 1068 618 1086 683 q 1033 476 1044 542 q 1027 421 1029 449 q 1027 369 1025 393 q 1036 328 1029 346 q 1058 303 1043 311 q 1094 299 1079 292 q 1119 317 1108 306 q 1140 351 1132 331 l 1246 326 m 410 1190 q 427 1211 411 1193 q 470 1247 443 1229 q 533 1276 497 1265 q 611 1278 569 1288 q 660 1260 643 1269 q 687 1240 676 1250 q 707 1223 697 1231 q 736 1211 717 1215 q 761 1213 750 1208 q 781 1226 772 1218 q 797 1249 790 1235 l 882 1172 q 836 1119 861 1142 q 783 1087 814 1100 q 717 1082 753 1074 q 685 1094 697 1086 q 662 1112 674 1103 q 635 1130 650 1121 q 594 1146 619 1139 q 554 1146 571 1151 q 525 1129 538 1140 q 500 1100 510 1117 l 410 1190 l 410 1190 z "},"":{"ha":1126,"x_min":29,"x_max":1061,"o":"m 631 1014 q 806 966 726 1007 q 942 859 885 925 q 1030 704 999 793 q 1060 513 1061 615 q 1044 365 1058 442 q 1001 219 1031 289 q 924 92 971 149 q 814 1 878 35 q 666 -44 744 -33 q 513 -48 588 -54 q 376 -25 439 -42 q 275 11 313 -8 q 121 147 182 61 q 73 233 94 185 q 40 343 51 282 q 32 480 29 404 q 58 647 35 556 q 121 781 83 724 q 203 878 158 838 q 298 944 249 918 q 394 985 347 969 q 631 1014 506 1021 m 818 493 q 808 576 818 538 q 778 640 799 608 q 714 683 757 672 q 632 674 668 690 q 573 615 600 658 q 540 481 546 572 q 551 338 535 388 q 590 264 568 288 q 650 233 615 238 q 705 240 681 231 q 747 268 729 250 q 777 310 765 286 q 797 358 789 333 q 818 493 815 417 m 486 1189 q 502 1210 488 1189 q 533 1257 517 1232 q 565 1303 550 1282 q 581 1325 579 1325 q 590 1317 581 1325 q 615 1297 600 1310 q 650 1267 631 1283 q 689 1233 669 1250 q 794 1143 735 1193 q 763 1104 776 1121 q 740 1076 750 1089 q 731 1063 731 1064 q 712 1071 731 1061 q 666 1094 693 1081 q 606 1125 639 1108 q 547 1156 574 1142 q 502 1179 519 1169 q 486 1189 485 1189 z "},"":{"ha":1126,"x_min":29,"x_max":1061,"o":"m 631 1014 q 806 966 726 1007 q 942 859 885 925 q 1030 704 999 793 q 1060 513 1061 615 q 1044 365 1058 442 q 1001 219 1031 289 q 924 92 971 149 q 814 1 878 35 q 666 -44 744 -33 q 513 -48 588 -54 q 376 -25 439 -42 q 275 11 313 -8 q 121 147 182 61 q 73 233 94 185 q 40 343 51 282 q 32 480 29 404 q 58 647 35 556 q 121 781 83 724 q 203 878 158 838 q 298 944 249 918 q 394 985 347 969 q 631 1014 506 1021 m 818 493 q 808 576 818 538 q 778 640 799 608 q 714 683 757 672 q 632 674 668 690 q 573 615 600 658 q 540 481 546 572 q 551 338 535 388 q 590 264 568 288 q 650 233 615 238 q 705 240 681 231 q 747 268 729 250 q 777 310 765 286 q 797 358 789 333 q 818 493 815 417 m 778 1189 q 762 1179 779 1189 q 717 1156 744 1169 q 658 1125 690 1142 q 598 1094 625 1108 q 552 1071 571 1081 q 533 1063 533 1061 q 523 1076 533 1064 q 501 1104 513 1089 q 469 1143 486 1121 q 575 1233 529 1193 q 648 1297 615 1268 q 683 1325 681 1325 q 699 1303 685 1325 q 731 1257 714 1282 q 761 1210 747 1232 q 778 1189 775 1189 z "},"":{"ha":1126,"x_min":29,"x_max":1061,"o":"m 631 1014 q 806 966 726 1007 q 942 859 885 925 q 1030 704 999 793 q 1060 513 1061 615 q 1044 365 1058 442 q 1001 219 1031 289 q 924 92 971 149 q 814 1 878 35 q 666 -44 744 -33 q 513 -48 588 -54 q 376 -25 439 -42 q 275 11 313 -8 q 121 147 182 61 q 73 233 94 185 q 40 343 51 282 q 32 480 29 404 q 58 647 35 556 q 121 781 83 724 q 203 878 158 838 q 298 944 249 918 q 394 985 347 969 q 631 1014 506 1021 m 818 493 q 808 576 818 538 q 778 640 799 608 q 714 683 757 672 q 632 674 668 690 q 573 615 600 658 q 540 481 546 572 q 551 338 535 388 q 590 264 568 288 q 650 233 615 238 q 705 240 681 231 q 747 268 729 250 q 777 310 765 286 q 797 358 789 333 q 818 493 815 417 m 825 1038 q 807 1047 825 1036 q 763 1076 789 1058 q 706 1114 736 1093 q 650 1151 675 1135 q 588 1127 622 1140 q 525 1102 554 1114 q 476 1083 496 1090 q 457 1078 457 1076 q 449 1092 457 1079 q 429 1122 440 1106 q 403 1165 417 1140 q 517 1244 467 1208 q 558 1273 538 1258 q 596 1299 579 1288 q 623 1317 613 1310 q 635 1324 633 1324 q 646 1322 640 1324 q 671 1319 660 1319 q 706 1315 686 1317 q 715 1306 706 1315 q 737 1283 724 1297 q 767 1250 750 1268 q 803 1213 785 1232 q 897 1111 844 1167 l 861 1075 q 836 1050 847 1061 q 825 1038 825 1039 z "},"":{"ha":1126,"x_min":29,"x_max":1061,"o":"m 631 1014 q 806 966 726 1007 q 942 859 885 925 q 1030 704 999 793 q 1060 513 1061 615 q 1044 365 1058 442 q 1001 219 1031 289 q 924 92 971 149 q 814 1 878 35 q 666 -44 744 -33 q 513 -48 588 -54 q 376 -25 439 -42 q 275 11 313 -8 q 121 147 182 61 q 73 233 94 185 q 40 343 51 282 q 32 480 29 404 q 58 647 35 556 q 121 781 83 724 q 203 878 158 838 q 298 944 249 918 q 394 985 347 969 q 631 1014 506 1021 m 818 493 q 808 576 818 538 q 778 640 799 608 q 714 683 757 672 q 632 674 668 690 q 573 615 600 658 q 540 481 546 572 q 551 338 535 388 q 590 264 568 288 q 650 233 615 238 q 705 240 681 231 q 747 268 729 250 q 777 310 765 286 q 797 358 789 333 q 818 493 815 417 m 421 1190 q 438 1211 422 1193 q 481 1247 454 1229 q 544 1276 508 1265 q 622 1278 581 1288 q 671 1260 654 1269 q 698 1240 688 1250 q 718 1223 708 1231 q 747 1211 728 1215 q 772 1213 761 1208 q 792 1226 783 1218 q 808 1249 801 1235 l 893 1172 q 847 1119 872 1142 q 794 1087 825 1100 q 728 1082 764 1074 q 697 1094 708 1086 q 673 1112 685 1103 q 646 1130 661 1121 q 606 1146 631 1139 q 565 1146 582 1151 q 536 1129 549 1140 q 511 1100 521 1117 l 421 1190 l 421 1190 z "},"":{"ha":1126,"x_min":29,"x_max":1061,"o":"m 631 1014 q 806 966 726 1007 q 942 859 885 925 q 1030 704 999 793 q 1060 513 1061 615 q 1044 365 1058 442 q 1001 219 1031 289 q 924 92 971 149 q 814 1 878 35 q 666 -44 744 -33 q 513 -48 588 -54 q 376 -25 439 -42 q 275 11 313 -8 q 121 147 182 61 q 73 233 94 185 q 40 343 51 282 q 32 480 29 404 q 58 647 35 556 q 121 781 83 724 q 203 878 158 838 q 298 944 249 918 q 394 985 347 969 q 631 1014 506 1021 m 818 493 q 808 576 818 538 q 778 640 799 608 q 714 683 757 672 q 632 674 668 690 q 573 615 600 658 q 540 481 546 572 q 551 338 535 388 q 590 264 568 288 q 650 233 615 238 q 705 240 681 231 q 747 268 729 250 q 777 310 765 286 q 797 358 789 333 q 818 493 815 417 m 578 1167 q 550 1099 578 1126 q 482 1071 522 1071 q 414 1099 442 1071 q 386 1167 386 1126 q 414 1235 386 1207 q 482 1263 442 1263 q 550 1235 522 1263 q 578 1167 578 1207 m 850 1167 q 822 1099 850 1126 q 754 1071 794 1071 q 686 1099 714 1071 q 658 1167 658 1126 q 686 1235 658 1207 q 754 1263 714 1263 q 822 1235 794 1263 q 850 1167 850 1207 z "},"":{"ha":1026,"x_min":38,"x_max":993,"o":"m 871 185 q 770 67 826 113 q 647 -2 714 21 q 506 -28 581 -25 q 353 -21 432 -32 q 178 46 243 -6 q 80 170 113 97 q 42 331 47 243 q 49 508 38 418 q 182 975 75 718 l 646 975 q 542 650 575 797 q 520 526 528 588 q 517 413 513 464 q 542 325 522 361 q 604 276 563 289 q 663 275 635 269 q 713 300 686 281 q 758 367 739 319 q 794 514 781 426 q 811 702 806 589 q 803 974 817 815 l 974 974 q 989 699 993 836 q 981 574 988 640 q 961 442 975 508 q 926 310 947 375 q 871 185 904 244 m 518 1189 q 534 1210 519 1189 q 565 1257 549 1232 q 597 1303 582 1282 q 613 1325 611 1325 q 622 1317 613 1325 q 647 1297 632 1310 q 682 1267 663 1283 q 721 1233 701 1250 q 826 1143 767 1193 q 794 1104 808 1121 q 772 1076 782 1089 q 763 1063 763 1064 q 744 1071 763 1061 q 698 1094 725 1081 q 638 1125 671 1108 q 578 1156 606 1142 q 534 1179 551 1169 q 518 1189 517 1189 z "},"":{"ha":1026,"x_min":38,"x_max":993,"o":"m 871 185 q 770 67 826 113 q 647 -2 714 21 q 506 -28 581 -25 q 353 -21 432 -32 q 178 46 243 -6 q 80 170 113 97 q 42 331 47 243 q 49 508 38 418 q 182 975 75 718 l 646 975 q 542 650 575 797 q 520 526 528 588 q 517 413 513 464 q 542 325 522 361 q 604 276 563 289 q 663 275 635 269 q 713 300 686 281 q 758 367 739 319 q 794 514 781 426 q 811 702 806 589 q 803 974 817 815 l 974 974 q 989 699 993 836 q 981 574 988 640 q 961 442 975 508 q 926 310 947 375 q 871 185 904 244 m 825 1189 q 809 1179 826 1189 q 765 1156 792 1169 q 705 1125 738 1142 q 645 1094 672 1108 q 599 1071 618 1081 q 581 1063 581 1061 q 570 1076 581 1064 q 549 1104 560 1089 q 517 1143 533 1121 q 622 1233 576 1193 q 695 1297 663 1268 q 731 1325 728 1325 q 747 1303 732 1325 q 778 1257 761 1282 q 808 1210 794 1232 q 825 1189 822 1189 z "},"":{"ha":1026,"x_min":38,"x_max":993,"o":"m 871 185 q 770 67 826 113 q 647 -2 714 21 q 506 -28 581 -25 q 353 -21 432 -32 q 178 46 243 -6 q 80 170 113 97 q 42 331 47 243 q 49 508 38 418 q 182 975 75 718 l 646 975 q 542 650 575 797 q 520 526 528 588 q 517 413 513 464 q 542 325 522 361 q 604 276 563 289 q 663 275 635 269 q 713 300 686 281 q 758 367 739 319 q 794 514 781 426 q 811 702 806 589 q 803 974 817 815 l 974 974 q 989 699 993 836 q 981 574 988 640 q 961 442 975 508 q 926 310 947 375 q 871 185 904 244 m 853 1038 q 835 1047 853 1036 q 790 1076 817 1058 q 733 1114 764 1093 q 678 1151 703 1135 q 616 1127 650 1140 q 553 1102 582 1114 q 504 1083 524 1090 q 485 1078 485 1076 q 476 1092 485 1079 q 457 1122 468 1106 q 431 1165 444 1140 q 544 1244 494 1208 q 586 1273 565 1258 q 624 1299 607 1288 q 651 1317 640 1310 q 663 1324 661 1324 q 674 1322 668 1324 q 699 1319 688 1319 q 733 1315 714 1317 q 742 1306 733 1315 q 765 1283 751 1297 q 795 1250 778 1268 q 831 1213 813 1232 q 925 1111 872 1167 l 889 1075 q 864 1050 875 1061 q 853 1038 853 1039 z "},"":{"ha":1026,"x_min":38,"x_max":993,"o":"m 871 185 q 770 67 826 113 q 647 -2 714 21 q 506 -28 581 -25 q 353 -21 432 -32 q 178 46 243 -6 q 80 170 113 97 q 42 331 47 243 q 49 508 38 418 q 182 975 75 718 l 646 975 q 542 650 575 797 q 520 526 528 588 q 517 413 513 464 q 542 325 522 361 q 604 276 563 289 q 663 275 635 269 q 713 300 686 281 q 758 367 739 319 q 794 514 781 426 q 811 702 806 589 q 803 974 817 815 l 974 974 q 989 699 993 836 q 981 574 988 640 q 961 442 975 508 q 926 310 947 375 q 871 185 904 244 m 626 1167 q 599 1099 626 1126 q 531 1071 571 1071 q 463 1099 490 1071 q 435 1167 435 1126 q 463 1235 435 1207 q 531 1263 490 1263 q 599 1235 571 1263 q 626 1167 626 1207 m 899 1167 q 871 1099 899 1126 q 803 1071 843 1071 q 735 1099 763 1071 q 707 1167 707 1126 q 735 1235 707 1207 q 803 1263 763 1263 q 871 1235 843 1263 q 899 1167 899 1207 z "},"":{"ha":1074,"x_min":1,"x_max":1035,"o":"m 639 972 l 1035 972 q 983 568 1008 756 q 960 408 972 489 q 937 254 949 326 q 914 124 925 182 q 893 32 903 65 q 829 -136 869 -68 q 734 -245 789 -204 q 610 -304 679 -286 q 461 -322 542 -322 q 318 -292 374 -318 q 229 -236 263 -265 q 169 -158 190 -201 q 165 -71 157 -111 q 201 -3 172 -36 q 301 46 231 31 q 355 47 325 50 q 411 38 385 44 q 474 19 442 31 q 503 107 493 58 q 513 185 513 156 q 488 154 503 169 q 453 125 474 139 q 404 103 432 111 q 342 94 376 94 q 189 125 250 94 q 90 203 128 156 q 33 310 51 251 q 8 426 14 369 q 3 530 1 482 q 6 603 4 578 q 20 716 11 665 q 40 811 29 767 q 65 895 51 856 q 90 972 78 935 l 488 972 q 450 818 467 894 q 423 678 435 751 q 410 546 411 606 q 424 453 410 497 q 475 400 439 410 q 510 401 494 396 q 538 419 526 407 q 557 446 550 431 q 564 475 564 461 l 639 972 m 353 -78 q 382 -82 367 -82 q 413 -77 396 -82 q 449 -57 429 -72 q 422 -44 438 -50 q 394 -36 410 -40 q 360 -32 378 -32 q 347 -35 353 -32 q 335 -57 335 -40 q 343 -72 335 -64 q 353 -78 347 -76 m 779 1189 q 763 1179 781 1189 q 719 1156 746 1169 q 659 1125 692 1142 q 599 1094 626 1108 q 553 1071 572 1081 q 535 1063 535 1061 q 524 1076 535 1064 q 503 1104 514 1089 q 471 1143 488 1121 q 576 1233 531 1193 q 649 1297 617 1268 q 685 1325 682 1325 q 701 1303 686 1325 q 732 1257 715 1282 q 763 1210 749 1232 q 779 1189 776 1189 z "},"":{"ha":892,"x_min":-8,"x_max":981,"o":"m 981 204 q 899 85 949 136 q 850 42 878 63 q 788 8 822 22 q 712 -12 753 -6 q 622 -12 671 -18 q 513 22 558 -6 q 442 88 468 50 q 410 42 431 61 q 365 11 390 24 q 310 -7 339 -1 q 253 -12 281 -12 q 132 13 181 -12 q 54 79 83 39 q 12 168 25 119 q -5 263 -1 217 q -5 349 -8 310 q 3 407 -1 388 q 35 514 14 463 q 89 605 56 565 q 169 670 122 644 q 278 701 215 696 q 380 692 339 707 q 449 650 421 676 q 456 670 453 661 q 463 686 460 679 q 468 699 465 693 l 792 699 q 714 475 740 578 q 696 387 703 431 q 690 306 689 343 q 703 239 692 268 q 742 197 715 210 q 796 188 768 183 q 850 208 819 190 q 911 275 881 226 l 981 204 m 431 353 q 421 417 433 390 q 378 447 408 444 q 331 424 347 450 q 311 363 314 399 q 321 298 308 325 q 364 268 333 271 q 411 290 394 265 q 431 353 428 315 m 294 911 q 310 933 296 911 q 342 979 325 954 q 373 1026 358 1004 q 389 1047 388 1047 q 399 1040 389 1047 q 424 1019 408 1032 q 458 989 439 1006 q 497 956 478 972 q 603 865 543 915 q 571 826 585 843 q 549 799 558 811 q 539 785 539 786 q 520 793 539 783 q 474 817 501 803 q 415 847 447 831 q 355 878 382 864 q 310 901 328 892 q 294 911 293 911 z "},"":{"ha":892,"x_min":-8,"x_max":981,"o":"m 981 204 q 899 85 949 136 q 850 42 878 63 q 788 8 822 22 q 712 -12 753 -6 q 622 -12 671 -18 q 513 22 558 -6 q 442 88 468 50 q 410 42 431 61 q 365 11 390 24 q 310 -7 339 -1 q 253 -12 281 -12 q 132 13 181 -12 q 54 79 83 39 q 12 168 25 119 q -5 263 -1 217 q -5 349 -8 310 q 3 407 -1 388 q 35 514 14 463 q 89 605 56 565 q 169 670 122 644 q 278 701 215 696 q 380 692 339 707 q 449 650 421 676 q 456 670 453 661 q 463 686 460 679 q 468 699 465 693 l 792 699 q 714 475 740 578 q 696 387 703 431 q 690 306 689 343 q 703 239 692 268 q 742 197 715 210 q 796 188 768 183 q 850 208 819 190 q 911 275 881 226 l 981 204 m 431 353 q 421 417 433 390 q 378 447 408 444 q 331 424 347 450 q 311 363 314 399 q 321 298 308 325 q 364 268 333 271 q 411 290 394 265 q 431 353 428 315 m 628 911 q 612 901 629 911 q 567 878 594 892 q 508 847 540 864 q 448 817 475 831 q 402 793 421 803 q 383 785 383 783 q 373 799 383 786 q 351 826 363 811 q 319 865 336 843 q 425 956 379 915 q 498 1019 465 990 q 533 1047 531 1047 q 549 1026 535 1047 q 581 979 564 1004 q 611 933 597 954 q 628 911 625 911 z "},"":{"ha":892,"x_min":-8,"x_max":981,"o":"m 981 204 q 899 85 949 136 q 850 42 878 63 q 788 8 822 22 q 712 -12 753 -6 q 622 -12 671 -18 q 513 22 558 -6 q 442 88 468 50 q 410 42 431 61 q 365 11 390 24 q 310 -7 339 -1 q 253 -12 281 -12 q 132 13 181 -12 q 54 79 83 39 q 12 168 25 119 q -5 263 -1 217 q -5 349 -8 310 q 3 407 -1 388 q 35 514 14 463 q 89 605 56 565 q 169 670 122 644 q 278 701 215 696 q 380 692 339 707 q 449 650 421 676 q 456 670 453 661 q 463 686 460 679 q 468 699 465 693 l 792 699 q 714 475 740 578 q 696 387 703 431 q 690 306 689 343 q 703 239 692 268 q 742 197 715 210 q 796 188 768 183 q 850 208 819 190 q 911 275 881 226 l 981 204 m 431 353 q 421 417 433 390 q 378 447 408 444 q 331 424 347 450 q 311 363 314 399 q 321 298 308 325 q 364 268 333 271 q 411 290 394 265 q 431 353 428 315 m 621 760 q 603 769 621 758 q 558 798 585 781 q 501 836 532 815 q 446 874 471 857 q 384 849 418 863 q 321 824 350 836 q 272 806 292 813 q 253 800 253 799 q 244 815 253 801 q 225 844 236 828 q 199 888 213 863 q 313 967 263 931 q 354 995 333 981 q 392 1021 375 1010 q 419 1039 408 1032 q 431 1046 429 1046 q 442 1044 436 1046 q 467 1042 456 1042 q 501 1038 482 1039 q 510 1028 501 1038 q 533 1005 519 1019 q 563 972 546 990 q 599 935 581 954 q 693 833 640 889 l 657 797 q 632 772 643 783 q 621 760 621 761 z "},"":{"ha":892,"x_min":-8,"x_max":981,"o":"m 981 204 q 899 85 949 136 q 850 42 878 63 q 788 8 822 22 q 712 -12 753 -6 q 622 -12 671 -18 q 513 22 558 -6 q 442 88 468 50 q 410 42 431 61 q 365 11 390 24 q 310 -7 339 -1 q 253 -12 281 -12 q 132 13 181 -12 q 54 79 83 39 q 12 168 25 119 q -5 263 -1 217 q -5 349 -8 310 q 3 407 -1 388 q 35 514 14 463 q 89 605 56 565 q 169 670 122 644 q 278 701 215 696 q 380 692 339 707 q 449 650 421 676 q 456 670 453 661 q 463 686 460 679 q 468 699 465 693 l 792 699 q 714 475 740 578 q 696 387 703 431 q 690 306 689 343 q 703 239 692 268 q 742 197 715 210 q 796 188 768 183 q 850 208 819 190 q 911 275 881 226 l 981 204 m 431 353 q 421 417 433 390 q 378 447 408 444 q 331 424 347 450 q 311 363 314 399 q 321 298 308 325 q 364 268 333 271 q 411 290 394 265 q 431 353 428 315 m 210 913 q 227 933 211 915 q 270 969 243 951 q 333 999 297 988 q 411 1000 369 1010 q 460 982 443 992 q 487 963 476 972 q 507 945 497 953 q 536 933 517 938 q 561 935 550 931 q 581 949 572 940 q 597 971 590 957 l 682 894 q 636 842 661 864 q 583 809 614 822 q 517 804 553 796 q 485 817 497 808 q 462 834 474 825 q 435 852 450 843 q 394 868 419 861 q 354 868 371 874 q 325 851 338 863 q 300 822 310 839 l 210 913 l 210 913 z "},"":{"ha":892,"x_min":-8,"x_max":981,"o":"m 981 204 q 899 85 949 136 q 850 42 878 63 q 788 8 822 22 q 712 -12 753 -6 q 622 -12 671 -18 q 513 22 558 -6 q 442 88 468 50 q 410 42 431 61 q 365 11 390 24 q 310 -7 339 -1 q 253 -12 281 -12 q 132 13 181 -12 q 54 79 83 39 q 12 168 25 119 q -5 263 -1 217 q -5 349 -8 310 q 3 407 -1 388 q 35 514 14 463 q 89 605 56 565 q 169 670 122 644 q 278 701 215 696 q 380 692 339 707 q 449 650 421 676 q 456 670 453 661 q 463 686 460 679 q 468 699 465 693 l 792 699 q 714 475 740 578 q 696 387 703 431 q 690 306 689 343 q 703 239 692 268 q 742 197 715 210 q 796 188 768 183 q 850 208 819 190 q 911 275 881 226 l 981 204 m 431 353 q 421 417 433 390 q 378 447 408 444 q 331 424 347 450 q 311 363 314 399 q 321 298 308 325 q 364 268 333 271 q 411 290 394 265 q 431 353 428 315 m 454 889 q 426 821 454 849 q 358 793 399 793 q 290 821 318 793 q 263 889 263 849 q 290 957 263 929 q 358 985 318 985 q 426 957 399 985 q 454 889 454 929 m 726 889 q 699 821 726 849 q 631 793 671 793 q 563 821 590 793 q 535 889 535 849 q 563 957 535 929 q 631 985 590 985 q 699 957 671 985 q 726 889 726 929 z "},"":{"ha":892,"x_min":-8,"x_max":981,"o":"m 981 204 q 899 85 949 136 q 850 42 878 63 q 788 8 822 22 q 712 -12 753 -6 q 622 -12 671 -18 q 513 22 558 -6 q 442 88 468 50 q 410 42 431 61 q 365 11 390 24 q 310 -7 339 -1 q 253 -12 281 -12 q 132 13 181 -12 q 54 79 83 39 q 12 168 25 119 q -5 263 -1 217 q -5 349 -8 310 q 3 407 -1 388 q 35 514 14 463 q 89 605 56 565 q 169 670 122 644 q 278 701 215 696 q 380 692 339 707 q 449 650 421 676 q 456 670 453 661 q 463 686 460 679 q 468 699 465 693 l 792 699 q 714 475 740 578 q 696 387 703 431 q 690 306 689 343 q 703 239 692 268 q 742 197 715 210 q 796 188 768 183 q 850 208 819 190 q 911 275 881 226 l 981 204 m 431 353 q 421 417 433 390 q 378 447 408 444 q 331 424 347 450 q 311 363 314 399 q 321 298 308 325 q 364 268 333 271 q 411 290 394 265 q 431 353 428 315 m 649 906 q 637 845 649 874 q 604 796 625 817 q 555 763 583 775 q 494 751 526 751 q 435 763 463 751 q 386 796 407 775 q 353 845 365 817 q 340 906 340 874 q 353 965 340 938 q 386 1014 365 993 q 435 1047 407 1035 q 494 1060 463 1060 q 555 1047 526 1060 q 604 1014 583 1035 q 637 965 625 993 q 649 906 649 938 m 574 904 q 552 956 574 935 q 500 976 531 976 q 447 956 468 976 q 425 904 425 935 q 447 851 425 872 q 500 829 468 829 q 552 851 531 829 q 574 904 574 872 z "},"":{"ha":713,"x_min":3,"x_max":689,"o":"m 629 439 q 578 358 614 390 q 499 304 542 325 q 413 273 456 283 q 339 258 369 263 q 371 199 347 221 q 411 169 394 178 q 467 157 438 157 q 523 169 492 157 q 589 219 554 182 l 689 149 q 653 99 674 124 q 608 56 635 78 q 549 19 582 35 q 479 -6 522 4 q 385 -19 436 -17 q 281 -12 335 -21 q 179 19 226 -4 q 91 83 126 44 q 35 167 56 121 q 9 263 15 213 q 7 361 3 313 q 25 453 11 410 q 58 529 39 496 q 169 647 103 601 q 305 710 235 692 q 443 718 375 728 q 560 669 511 708 q 617 595 600 635 q 636 521 633 556 q 629 439 640 481 m 332 349 q 397 358 368 350 q 444 382 422 365 q 471 429 467 399 q 453 469 474 451 q 401 479 432 486 q 356 450 371 471 q 336 406 342 429 q 332 349 331 379 m 249 911 q 265 933 250 911 q 296 979 279 954 q 327 1026 313 1004 q 343 1047 342 1047 q 353 1040 343 1047 q 378 1019 363 1032 q 413 989 393 1006 q 451 956 432 972 q 557 865 497 915 q 525 826 539 843 q 503 799 513 811 q 493 785 493 786 q 474 793 493 783 q 428 817 456 803 q 369 847 401 831 q 309 878 336 864 q 265 901 282 892 q 249 911 247 911 z "},"":{"ha":713,"x_min":3,"x_max":689,"o":"m 629 439 q 578 358 614 390 q 499 304 542 325 q 413 273 456 283 q 339 258 369 263 q 371 199 347 221 q 411 169 394 178 q 467 157 438 157 q 523 169 492 157 q 589 219 554 182 l 689 149 q 653 99 674 124 q 608 56 635 78 q 549 19 582 35 q 479 -6 522 4 q 385 -19 436 -17 q 281 -12 335 -21 q 179 19 226 -4 q 91 83 126 44 q 35 167 56 121 q 9 263 15 213 q 7 361 3 313 q 25 453 11 410 q 58 529 39 496 q 169 647 103 601 q 305 710 235 692 q 443 718 375 728 q 560 669 511 708 q 617 595 600 635 q 636 521 633 556 q 629 439 640 481 m 332 349 q 397 358 368 350 q 444 382 422 365 q 471 429 467 399 q 453 469 474 451 q 401 479 432 486 q 356 450 371 471 q 336 406 342 429 q 332 349 331 379 m 529 911 q 513 901 531 911 q 469 878 496 892 q 409 847 442 864 q 349 817 376 831 q 303 793 322 803 q 285 785 285 783 q 274 799 285 786 q 253 826 264 811 q 221 865 238 843 q 326 956 281 915 q 399 1019 367 990 q 435 1047 432 1047 q 451 1026 436 1047 q 482 979 465 1004 q 513 933 499 954 q 529 911 526 911 z "},"":{"ha":713,"x_min":3,"x_max":689,"o":"m 629 439 q 578 358 614 390 q 499 304 542 325 q 413 273 456 283 q 339 258 369 263 q 371 199 347 221 q 411 169 394 178 q 467 157 438 157 q 523 169 492 157 q 589 219 554 182 l 689 149 q 653 99 674 124 q 608 56 635 78 q 549 19 582 35 q 479 -6 522 4 q 385 -19 436 -17 q 281 -12 335 -21 q 179 19 226 -4 q 91 83 126 44 q 35 167 56 121 q 9 263 15 213 q 7 361 3 313 q 25 453 11 410 q 58 529 39 496 q 169 647 103 601 q 305 710 235 692 q 443 718 375 728 q 560 669 511 708 q 617 595 600 635 q 636 521 633 556 q 629 439 640 481 m 332 349 q 397 358 368 350 q 444 382 422 365 q 471 429 467 399 q 453 469 474 451 q 401 479 432 486 q 356 450 371 471 q 336 406 342 429 q 332 349 331 379 m 531 760 q 513 769 531 758 q 468 798 494 781 q 411 836 442 815 q 356 874 381 857 q 294 849 328 863 q 231 824 260 836 q 182 806 201 813 q 163 800 163 799 q 154 815 163 801 q 135 844 146 828 q 108 888 122 863 q 222 967 172 931 q 264 995 243 981 q 301 1021 285 1010 q 328 1039 318 1032 q 340 1046 339 1046 q 351 1044 346 1046 q 376 1042 365 1042 q 411 1038 392 1039 q 420 1028 411 1038 q 442 1005 429 1019 q 473 972 456 990 q 508 935 490 954 q 603 833 550 889 l 567 797 q 542 772 553 783 q 531 760 531 761 z "},"":{"ha":713,"x_min":3,"x_max":689,"o":"m 629 439 q 578 358 614 390 q 499 304 542 325 q 413 273 456 283 q 339 258 369 263 q 371 199 347 221 q 411 169 394 178 q 467 157 438 157 q 523 169 492 157 q 589 219 554 182 l 689 149 q 653 99 674 124 q 608 56 635 78 q 549 19 582 35 q 479 -6 522 4 q 385 -19 436 -17 q 281 -12 335 -21 q 179 19 226 -4 q 91 83 126 44 q 35 167 56 121 q 9 263 15 213 q 7 361 3 313 q 25 453 11 410 q 58 529 39 496 q 169 647 103 601 q 305 710 235 692 q 443 718 375 728 q 560 669 511 708 q 617 595 600 635 q 636 521 633 556 q 629 439 640 481 m 332 349 q 397 358 368 350 q 444 382 422 365 q 471 429 467 399 q 453 469 474 451 q 401 479 432 486 q 356 450 371 471 q 336 406 342 429 q 332 349 331 379 m 315 889 q 288 821 315 849 q 219 793 260 793 q 151 821 179 793 q 124 889 124 849 q 151 957 124 929 q 219 985 179 985 q 288 957 260 985 q 315 889 315 929 m 588 889 q 560 821 588 849 q 492 793 532 793 q 424 821 451 793 q 396 889 396 849 q 424 957 396 929 q 492 985 451 985 q 560 957 532 985 q 588 889 588 929 z "},"":{"ha":544,"x_min":-11,"x_max":643,"o":"m 90 696 l 422 696 q 354 472 376 575 q 340 384 344 428 q 338 303 335 340 q 353 236 340 265 q 392 194 365 207 q 453 185 422 181 q 510 206 479 188 q 572 272 542 224 l 643 201 q 539 81 600 132 q 479 39 513 58 q 406 6 446 19 q 319 -13 367 -8 q 218 -11 272 -18 q 92 35 139 -1 q 21 122 44 71 q -7 236 -3 174 q -3 363 -11 299 q 90 696 15 511 z "},"":{"ha":544,"x_min":-11,"x_max":643,"o":"m 90 696 l 422 696 q 354 472 376 575 q 340 384 344 428 q 338 303 335 340 q 353 236 340 265 q 392 194 365 207 q 453 185 422 181 q 510 206 479 188 q 572 272 542 224 l 643 201 q 539 81 600 132 q 479 39 513 58 q 406 6 446 19 q 319 -13 367 -8 q 218 -11 272 -18 q 92 35 139 -1 q 21 122 44 71 q -7 236 -3 174 q -3 363 -11 299 q 90 696 15 511 m 121 911 q 137 933 122 911 q 168 979 151 954 q 199 1026 185 1004 q 215 1047 214 1047 q 225 1040 215 1047 q 250 1019 235 1032 q 285 989 265 1006 q 324 956 304 972 q 429 865 369 915 q 397 826 411 843 q 375 799 385 811 q 365 785 365 786 q 347 793 365 783 q 301 817 328 803 q 241 847 274 831 q 181 878 208 864 q 137 901 154 892 q 121 911 119 911 z "},"":{"ha":544,"x_min":-11,"x_max":643,"o":"m 90 696 l 422 696 q 354 472 376 575 q 340 384 344 428 q 338 303 335 340 q 353 236 340 265 q 392 194 365 207 q 453 185 422 181 q 510 206 479 188 q 572 272 542 224 l 643 201 q 539 81 600 132 q 479 39 513 58 q 406 6 446 19 q 319 -13 367 -8 q 218 -11 272 -18 q 92 35 139 -1 q 21 122 44 71 q -7 236 -3 174 q -3 363 -11 299 q 90 696 15 511 m 424 911 q 408 901 425 911 q 363 878 390 892 q 303 847 336 864 q 244 817 271 831 q 198 793 217 803 q 179 785 179 783 q 169 799 179 786 q 147 826 158 811 q 115 865 132 843 q 221 956 175 915 q 294 1019 261 990 q 329 1047 326 1047 q 345 1026 331 1047 q 376 979 360 1004 q 407 933 393 954 q 424 911 421 911 z "},"":{"ha":544,"x_min":-11,"x_max":643,"o":"m 90 696 l 422 696 q 354 472 376 575 q 340 384 344 428 q 338 303 335 340 q 353 236 340 265 q 392 194 365 207 q 453 185 422 181 q 510 206 479 188 q 572 272 542 224 l 643 201 q 539 81 600 132 q 479 39 513 58 q 406 6 446 19 q 319 -13 367 -8 q 218 -11 272 -18 q 92 35 139 -1 q 21 122 44 71 q -7 236 -3 174 q -3 363 -11 299 q 90 696 15 511 m 449 760 q 431 769 449 758 q 386 798 413 781 q 329 836 360 815 q 274 874 299 857 q 212 849 246 863 q 149 824 178 836 q 100 806 119 813 q 81 800 81 799 q 72 815 81 801 q 53 844 64 828 q 26 888 40 863 q 140 967 90 931 q 182 995 161 981 q 219 1021 203 1010 q 247 1039 236 1032 q 258 1046 257 1046 q 269 1044 264 1046 q 294 1042 283 1042 q 329 1038 310 1039 q 338 1028 329 1038 q 360 1005 347 1019 q 391 972 374 990 q 426 935 408 954 q 521 833 468 889 l 485 797 q 460 772 471 783 q 449 760 449 761 z "},"":{"ha":544,"x_min":-11,"x_max":643,"o":"m 90 696 l 422 696 q 354 472 376 575 q 340 384 344 428 q 338 303 335 340 q 353 236 340 265 q 392 194 365 207 q 453 185 422 181 q 510 206 479 188 q 572 272 542 224 l 643 201 q 539 81 600 132 q 479 39 513 58 q 406 6 446 19 q 319 -13 367 -8 q 218 -11 272 -18 q 92 35 139 -1 q 21 122 44 71 q -7 236 -3 174 q -3 363 -11 299 q 90 696 15 511 m 232 889 q 204 821 232 849 q 136 793 176 793 q 68 821 96 793 q 40 889 40 849 q 68 957 40 929 q 136 985 96 985 q 204 957 176 985 q 232 889 232 929 m 504 889 q 476 821 504 849 q 408 793 449 793 q 340 821 368 793 q 313 889 313 849 q 340 957 313 929 q 408 985 368 985 q 476 957 449 985 q 504 889 504 929 z "},"":{"ha":900,"x_min":-6,"x_max":1039,"o":"m 1039 204 q 970 106 1008 146 q 892 42 932 67 q 812 6 851 18 q 739 -12 772 -7 q 681 -17 706 -17 q 647 -17 657 -17 q 533 2 579 -17 q 459 52 488 21 q 416 122 431 83 q 397 203 401 161 q 418 424 386 300 q 426 464 425 446 q 422 494 428 479 q 397 514 417 510 q 360 502 375 518 q 338 465 344 486 q 325 303 326 385 q 326 153 324 221 q 338 -1 331 74 l 13 -1 q -3 165 -1 79 q -3 322 -6 251 q 7 483 0 406 q 16 567 11 528 q 25 635 21 606 q 36 696 31 668 l 364 696 q 356 665 360 681 q 350 637 353 651 q 347 610 347 622 q 399 652 374 633 q 453 683 425 671 q 515 699 482 694 q 588 703 547 704 q 693 668 650 697 q 727 637 711 656 q 751 591 743 618 q 760 527 760 564 q 747 443 760 490 q 721 340 728 389 q 717 257 714 299 q 747 193 721 215 q 816 172 779 165 q 885 197 853 178 q 940 240 917 217 q 969 274 964 264 l 1039 204 m 214 913 q 231 933 215 915 q 274 969 247 951 q 338 999 301 988 q 415 1000 374 1010 q 464 982 447 992 q 491 963 481 972 q 511 945 501 953 q 540 933 521 938 q 565 935 554 931 q 585 949 576 940 q 601 971 594 957 l 686 894 q 640 842 665 864 q 588 809 618 822 q 521 804 557 796 q 490 817 501 808 q 466 834 478 825 q 439 852 454 843 q 399 868 424 861 q 358 868 375 874 q 329 851 342 863 q 304 822 314 839 l 214 913 l 214 913 z "},"":{"ha":760,"x_min":-6,"x_max":711,"o":"m 408 715 q 527 685 474 711 q 619 616 581 658 q 680 517 657 574 q 707 397 703 461 q 703 288 711 344 q 676 181 696 232 q 621 87 656 129 q 535 18 586 44 q 432 -13 486 -6 q 326 -17 378 -21 q 232 -2 275 -14 q 163 25 189 10 q 57 118 99 58 q 24 177 39 143 q 2 253 10 211 q -4 348 -6 296 q 14 463 -3 400 q 56 554 31 515 q 113 621 82 593 q 178 666 144 649 q 244 694 211 683 q 408 715 321 719 m 538 357 q 531 414 538 388 q 509 458 524 438 q 465 488 494 479 q 410 481 435 493 q 368 440 388 469 q 346 347 349 411 q 353 249 342 283 q 379 199 364 214 q 421 178 396 181 q 490 201 465 174 q 525 263 514 228 q 538 357 538 303 m 228 911 q 244 933 229 911 q 275 979 258 954 q 306 1026 292 1004 q 322 1047 321 1047 q 332 1040 322 1047 q 357 1019 342 1032 q 392 989 372 1006 q 431 956 411 972 q 536 865 476 915 q 504 826 518 843 q 482 799 492 811 q 472 785 472 786 q 453 793 472 783 q 408 817 435 803 q 348 847 381 831 q 288 878 315 864 q 244 901 261 892 q 228 911 226 911 z "},"":{"ha":760,"x_min":-6,"x_max":711,"o":"m 408 715 q 527 685 474 711 q 619 616 581 658 q 680 517 657 574 q 707 397 703 461 q 703 288 711 344 q 676 181 696 232 q 621 87 656 129 q 535 18 586 44 q 432 -13 486 -6 q 326 -17 378 -21 q 232 -2 275 -14 q 163 25 189 10 q 57 118 99 58 q 24 177 39 143 q 2 253 10 211 q -4 348 -6 296 q 14 463 -3 400 q 56 554 31 515 q 113 621 82 593 q 178 666 144 649 q 244 694 211 683 q 408 715 321 719 m 538 357 q 531 414 538 388 q 509 458 524 438 q 465 488 494 479 q 410 481 435 493 q 368 440 388 469 q 346 347 349 411 q 353 249 342 283 q 379 199 364 214 q 421 178 396 181 q 490 201 465 174 q 525 263 514 228 q 538 357 538 303 m 531 911 q 515 901 532 911 q 470 878 497 892 q 410 847 443 864 q 351 817 378 831 q 305 793 324 803 q 286 785 286 783 q 276 799 286 786 q 254 826 265 811 q 222 865 239 843 q 328 956 282 915 q 401 1019 368 990 q 436 1047 433 1047 q 452 1026 438 1047 q 483 979 467 1004 q 514 933 500 954 q 531 911 528 911 z "},"":{"ha":760,"x_min":-6,"x_max":711,"o":"m 408 715 q 527 685 474 711 q 619 616 581 658 q 680 517 657 574 q 707 397 703 461 q 703 288 711 344 q 676 181 696 232 q 621 87 656 129 q 535 18 586 44 q 432 -13 486 -6 q 326 -17 378 -21 q 232 -2 275 -14 q 163 25 189 10 q 57 118 99 58 q 24 177 39 143 q 2 253 10 211 q -4 348 -6 296 q 14 463 -3 400 q 56 554 31 515 q 113 621 82 593 q 178 666 144 649 q 244 694 211 683 q 408 715 321 719 m 538 357 q 531 414 538 388 q 509 458 524 438 q 465 488 494 479 q 410 481 435 493 q 368 440 388 469 q 346 347 349 411 q 353 249 342 283 q 379 199 364 214 q 421 178 396 181 q 490 201 465 174 q 525 263 514 228 q 538 357 538 303 m 554 760 q 536 769 554 758 q 492 798 518 781 q 435 836 465 815 q 379 874 404 857 q 317 849 351 863 q 254 824 283 836 q 206 806 225 813 q 186 800 186 799 q 178 815 186 801 q 158 844 169 828 q 132 888 146 863 q 246 967 196 931 q 288 995 267 981 q 325 1021 308 1010 q 352 1039 342 1032 q 364 1046 363 1046 q 375 1044 369 1046 q 400 1042 389 1042 q 435 1038 415 1039 q 444 1028 435 1038 q 466 1005 453 1019 q 497 972 479 990 q 532 935 514 954 q 626 833 574 889 l 590 797 q 565 772 576 783 q 554 760 554 761 z "},"":{"ha":760,"x_min":-6,"x_max":711,"o":"m 408 715 q 527 685 474 711 q 619 616 581 658 q 680 517 657 574 q 707 397 703 461 q 703 288 711 344 q 676 181 696 232 q 621 87 656 129 q 535 18 586 44 q 432 -13 486 -6 q 326 -17 378 -21 q 232 -2 275 -14 q 163 25 189 10 q 57 118 99 58 q 24 177 39 143 q 2 253 10 211 q -4 348 -6 296 q 14 463 -3 400 q 56 554 31 515 q 113 621 82 593 q 178 666 144 649 q 244 694 211 683 q 408 715 321 719 m 538 357 q 531 414 538 388 q 509 458 524 438 q 465 488 494 479 q 410 481 435 493 q 368 440 388 469 q 346 347 349 411 q 353 249 342 283 q 379 199 364 214 q 421 178 396 181 q 490 201 465 174 q 525 263 514 228 q 538 357 538 303 m 143 913 q 160 933 144 915 q 203 969 176 951 q 267 999 231 988 q 344 1000 303 1010 q 393 982 376 992 q 420 963 410 972 q 440 945 431 953 q 469 933 450 938 q 494 935 483 931 q 514 949 506 940 q 531 971 524 957 l 615 894 q 569 842 594 864 q 517 809 547 822 q 450 804 486 796 q 419 817 431 808 q 395 834 407 825 q 368 852 383 843 q 328 868 353 861 q 288 868 304 874 q 258 851 271 863 q 233 822 243 839 l 143 913 l 143 913 z "},"":{"ha":760,"x_min":-6,"x_max":711,"o":"m 408 715 q 527 685 474 711 q 619 616 581 658 q 680 517 657 574 q 707 397 703 461 q 703 288 711 344 q 676 181 696 232 q 621 87 656 129 q 535 18 586 44 q 432 -13 486 -6 q 326 -17 378 -21 q 232 -2 275 -14 q 163 25 189 10 q 57 118 99 58 q 24 177 39 143 q 2 253 10 211 q -4 348 -6 296 q 14 463 -3 400 q 56 554 31 515 q 113 621 82 593 q 178 666 144 649 q 244 694 211 683 q 408 715 321 719 m 538 357 q 531 414 538 388 q 509 458 524 438 q 465 488 494 479 q 410 481 435 493 q 368 440 388 469 q 346 347 349 411 q 353 249 342 283 q 379 199 364 214 q 421 178 396 181 q 490 201 465 174 q 525 263 514 228 q 538 357 538 303 m 339 889 q 311 821 339 849 q 243 793 283 793 q 175 821 203 793 q 147 889 147 849 q 175 957 147 929 q 243 985 203 985 q 311 957 283 985 q 339 889 339 929 m 611 889 q 583 821 611 849 q 515 793 556 793 q 447 821 475 793 q 419 889 419 849 q 447 957 419 929 q 515 985 475 985 q 583 957 556 985 q 611 889 611 929 z "},"":{"ha":976,"x_min":-25,"x_max":1071,"o":"m 1071 204 q 967 81 1029 132 q 907 38 940 58 q 833 4 874 18 q 746 -15 793 -10 q 644 -12 699 -19 q 547 20 594 -6 q 469 83 499 46 q 365 3 432 31 q 206 -12 299 -25 q 79 33 126 -3 q 8 122 32 69 q -21 236 -17 174 q -17 363 -25 299 q 76 696 0 511 l 410 696 q 333 446 358 557 q 316 352 322 399 q 313 268 310 306 q 328 205 315 231 q 369 174 342 179 q 388 171 378 171 q 406 174 396 171 q 428 185 417 176 q 419 267 419 224 q 423 353 418 310 q 436 440 428 397 q 456 519 444 482 q 517 696 481 608 l 850 696 q 782 472 804 575 q 767 384 772 428 q 765 303 763 340 q 781 236 768 265 q 819 194 793 207 q 882 188 850 183 q 941 209 910 190 q 1003 276 972 228 l 1071 204 m 336 911 q 352 933 338 911 q 383 979 367 954 q 415 1026 400 1004 q 431 1047 429 1047 q 440 1040 431 1047 q 465 1019 450 1032 q 500 989 481 1006 q 539 956 519 972 q 644 865 585 915 q 613 826 626 843 q 590 799 600 811 q 581 785 581 786 q 562 793 581 783 q 516 817 543 803 q 456 847 489 831 q 397 878 424 864 q 352 901 369 892 q 336 911 335 911 z "},"":{"ha":976,"x_min":-25,"x_max":1071,"o":"m 1071 204 q 967 81 1029 132 q 907 38 940 58 q 833 4 874 18 q 746 -15 793 -10 q 644 -12 699 -19 q 547 20 594 -6 q 469 83 499 46 q 365 3 432 31 q 206 -12 299 -25 q 79 33 126 -3 q 8 122 32 69 q -21 236 -17 174 q -17 363 -25 299 q 76 696 0 511 l 410 696 q 333 446 358 557 q 316 352 322 399 q 313 268 310 306 q 328 205 315 231 q 369 174 342 179 q 388 171 378 171 q 406 174 396 171 q 428 185 417 176 q 419 267 419 224 q 423 353 418 310 q 436 440 428 397 q 456 519 444 482 q 517 696 481 608 l 850 696 q 782 472 804 575 q 767 384 772 428 q 765 303 763 340 q 781 236 768 265 q 819 194 793 207 q 882 188 850 183 q 941 209 910 190 q 1003 276 972 228 l 1071 204 m 639 911 q 623 901 640 911 q 578 878 606 892 q 519 847 551 864 q 459 817 486 831 q 413 793 432 803 q 394 785 394 783 q 384 799 394 786 q 363 826 374 811 q 331 865 347 843 q 436 956 390 915 q 509 1019 476 990 q 544 1047 542 1047 q 560 1026 546 1047 q 592 979 575 1004 q 622 933 608 954 q 639 911 636 911 z "},"":{"ha":976,"x_min":-25,"x_max":1071,"o":"m 1071 204 q 967 81 1029 132 q 907 38 940 58 q 833 4 874 18 q 746 -15 793 -10 q 644 -12 699 -19 q 547 20 594 -6 q 469 83 499 46 q 365 3 432 31 q 206 -12 299 -25 q 79 33 126 -3 q 8 122 32 69 q -21 236 -17 174 q -17 363 -25 299 q 76 696 0 511 l 410 696 q 333 446 358 557 q 316 352 322 399 q 313 268 310 306 q 328 205 315 231 q 369 174 342 179 q 388 171 378 171 q 406 174 396 171 q 428 185 417 176 q 419 267 419 224 q 423 353 418 310 q 436 440 428 397 q 456 519 444 482 q 517 696 481 608 l 850 696 q 782 472 804 575 q 767 384 772 428 q 765 303 763 340 q 781 236 768 265 q 819 194 793 207 q 882 188 850 183 q 941 209 910 190 q 1003 276 972 228 l 1071 204 m 663 760 q 644 769 663 758 q 600 798 626 781 q 543 836 574 815 q 488 874 513 857 q 426 849 460 863 q 363 824 392 836 q 314 806 333 813 q 294 800 294 799 q 286 815 294 801 q 267 844 278 828 q 240 888 254 863 q 354 967 304 931 q 396 995 375 981 q 433 1021 417 1010 q 460 1039 450 1032 q 472 1046 471 1046 q 483 1044 478 1046 q 508 1042 497 1042 q 543 1038 524 1039 q 552 1028 543 1038 q 574 1005 561 1019 q 605 972 588 990 q 640 935 622 954 q 735 833 682 889 l 699 797 q 674 772 685 783 q 663 760 663 761 z "},"":{"ha":976,"x_min":-25,"x_max":1071,"o":"m 1071 204 q 967 81 1029 132 q 907 38 940 58 q 833 4 874 18 q 746 -15 793 -10 q 644 -12 699 -19 q 547 20 594 -6 q 469 83 499 46 q 365 3 432 31 q 206 -12 299 -25 q 79 33 126 -3 q 8 122 32 69 q -21 236 -17 174 q -17 363 -25 299 q 76 696 0 511 l 410 696 q 333 446 358 557 q 316 352 322 399 q 313 268 310 306 q 328 205 315 231 q 369 174 342 179 q 388 171 378 171 q 406 174 396 171 q 428 185 417 176 q 419 267 419 224 q 423 353 418 310 q 436 440 428 397 q 456 519 444 482 q 517 696 481 608 l 850 696 q 782 472 804 575 q 767 384 772 428 q 765 303 763 340 q 781 236 768 265 q 819 194 793 207 q 882 188 850 183 q 941 209 910 190 q 1003 276 972 228 l 1071 204 m 447 889 q 419 821 447 849 q 351 793 392 793 q 283 821 311 793 q 256 889 256 849 q 283 957 256 929 q 351 985 311 985 q 419 957 392 985 q 447 889 447 929 m 719 889 q 692 821 719 849 q 624 793 664 793 q 556 821 583 793 q 528 889 528 849 q 556 957 528 929 q 624 985 583 985 q 692 957 664 985 q 719 889 719 929 z "},"":{"ha":882,"x_min":-6,"x_max":811,"o":"m 499 699 l 811 699 q 769 379 790 526 q 751 252 761 317 q 733 131 742 188 q 715 28 724 74 q 699 -44 706 -18 q 648 -177 679 -124 q 574 -263 617 -231 q 476 -310 531 -296 q 358 -324 422 -324 q 246 -300 290 -321 q 175 -256 201 -279 q 128 -194 144 -229 q 125 -125 118 -157 q 153 -71 131 -97 q 232 -33 176 -44 q 274 -33 251 -31 q 318 -40 297 -35 q 368 -54 343 -46 q 391 15 383 -24 q 399 76 399 53 q 352 29 383 53 q 264 6 321 6 q 143 30 192 6 q 65 92 94 54 q 20 176 35 129 q 0 267 6 222 q -4 349 -6 311 q -1 406 -3 386 q 10 494 3 454 q 26 569 17 535 q 45 635 35 604 q 65 696 56 667 l 379 696 q 349 575 363 635 q 328 466 338 524 q 318 361 318 408 q 329 288 318 324 q 369 246 340 253 q 419 261 400 239 q 439 306 439 283 l 499 699 m 272 -131 q 296 -133 283 -133 q 320 -129 307 -133 q 349 -114 333 -125 q 328 -104 339 -110 q 306 -98 318 -101 q 278 -94 293 -94 q 268 -97 272 -94 q 258 -114 258 -103 q 265 -126 258 -122 q 272 -131 268 -129 m 592 911 q 576 901 593 911 q 531 878 558 892 q 472 847 504 864 q 412 817 439 831 q 366 793 385 803 q 347 785 347 783 q 337 799 347 786 q 315 826 326 811 q 283 865 300 843 q 389 956 343 915 q 462 1019 429 990 q 497 1047 494 1047 q 513 1026 499 1047 q 544 979 528 1004 q 575 933 561 954 q 592 911 589 911 z "},"":{"ha":882,"x_min":-6,"x_max":811,"o":"m 499 699 l 811 699 q 769 379 790 526 q 751 252 761 317 q 733 131 742 188 q 715 28 724 74 q 699 -44 706 -18 q 648 -177 679 -124 q 574 -263 617 -231 q 476 -310 531 -296 q 358 -324 422 -324 q 246 -300 290 -321 q 175 -256 201 -279 q 128 -194 144 -229 q 125 -125 118 -157 q 153 -71 131 -97 q 232 -33 176 -44 q 274 -33 251 -31 q 318 -40 297 -35 q 368 -54 343 -46 q 391 15 383 -24 q 399 76 399 53 q 352 29 383 53 q 264 6 321 6 q 143 30 192 6 q 65 92 94 54 q 20 176 35 129 q 0 267 6 222 q -4 349 -6 311 q -1 406 -3 386 q 10 494 3 454 q 26 569 17 535 q 45 635 35 604 q 65 696 56 667 l 379 696 q 349 575 363 635 q 328 466 338 524 q 318 361 318 408 q 329 288 318 324 q 369 246 340 253 q 419 261 400 239 q 439 306 439 283 l 499 699 m 272 -131 q 296 -133 283 -133 q 320 -129 307 -133 q 349 -114 333 -125 q 328 -104 339 -110 q 306 -98 318 -101 q 278 -94 293 -94 q 268 -97 272 -94 q 258 -114 258 -103 q 265 -126 258 -122 q 272 -131 268 -129 m 400 889 q 372 821 400 849 q 304 793 344 793 q 236 821 264 793 q 208 889 208 849 q 236 957 208 929 q 304 985 264 985 q 372 957 344 985 q 400 889 400 929 m 672 889 q 644 821 672 849 q 576 793 617 793 q 508 821 536 793 q 481 889 481 849 q 508 957 481 929 q 576 985 536 985 q 644 957 617 985 q 672 889 672 929 z "},"":{"ha":1100,"x_min":11,"x_max":1032,"o":"m 942 694 q 897 674 922 685 q 847 651 876 664 q 785 622 818 638 q 753 402 772 507 q 707 231 733 297 l 690 190 q 772 164 728 175 q 862 149 817 153 q 951 148 907 144 q 1032 163 994 151 l 1008 15 q 922 -4 976 0 q 808 -2 868 -8 q 690 19 749 4 q 592 56 632 35 q 442 -25 525 -1 q 276 -49 360 -49 q 142 -32 192 -51 q 65 11 92 -12 q 22 75 33 39 q 15 153 11 114 q 35 225 18 192 q 84 283 53 258 q 161 321 115 308 q 219 330 189 328 q 274 329 249 332 q 329 322 301 326 q 363 432 349 372 q 310 408 329 417 q 289 401 290 400 l 222 536 l 392 614 q 403 807 401 714 q 407 972 404 900 l 810 972 q 806 893 808 936 q 801 803 804 850 l 871 835 l 942 694 m 192 139 q 233 139 214 133 q 266 155 250 142 q 289 197 282 168 q 251 203 269 201 q 218 203 236 204 q 188 196 200 203 q 178 189 182 194 q 172 178 175 185 q 169 163 168 172 q 173 151 169 156 q 181 144 176 147 q 192 139 186 140 z "},"":{"ha":574,"x_min":-82,"x_max":563,"o":"m 329 372 q 413 336 378 361 q 469 278 449 311 q 495 208 490 246 q 489 132 500 169 q 435 39 469 71 q 365 -8 400 7 q 279 -28 325 -25 q 132 6 196 -29 q 79 43 104 19 q 35 102 54 67 q 5 186 15 138 q -1 300 -6 235 q 6 393 1 347 q 17 483 10 439 q -15 472 -3 476 q -28 468 -26 467 l -82 600 l 47 647 q 88 807 67 735 q 128 932 110 879 q 169 1043 149 993 l 510 1043 q 453 909 478 974 q 410 782 429 844 l 514 821 l 563 683 q 504 661 536 674 q 441 638 476 650 q 365 610 406 625 q 347 513 354 556 q 336 438 340 469 q 329 372 331 401 m 360 161 q 394 169 382 157 q 410 201 407 181 q 399 246 413 229 q 367 274 385 263 q 319 292 346 286 q 322 229 318 257 q 333 185 325 206 q 360 161 342 164 z "},"":{"ha":225,"x_min":36,"x_max":185,"o":"m 185 904 q 163 851 185 872 q 111 829 142 829 q 58 851 79 829 q 36 904 36 872 q 58 956 36 935 q 111 976 79 976 q 163 956 142 976 q 185 904 185 935 z "},"":{"ha":565,"x_min":49,"x_max":543,"o":"m 121 1043 q 134 1025 121 1044 q 170 982 147 1006 q 224 938 193 958 q 289 915 254 917 q 351 928 318 913 q 413 963 385 943 q 460 999 442 982 q 479 1014 479 1015 q 489 997 479 1013 q 511 964 499 982 q 543 915 525 942 q 508 871 533 899 q 446 817 482 843 q 364 772 410 790 q 268 757 318 754 q 165 793 207 761 q 98 863 124 825 q 60 933 72 901 q 49 969 49 965 l 85 1006 q 109 1031 99 1019 q 121 1043 119 1042 z "},"":{"ha":760,"x_min":-6,"x_max":711,"o":"m 14 463 q 81 588 39 540 q 173 664 124 636 q 270 702 222 692 q 353 715 318 713 l 371 832 l 547 832 q 545 819 547 832 q 540 785 543 806 q 534 738 538 764 q 526 685 531 711 q 653 571 606 647 q 707 397 700 494 q 703 288 711 344 q 676 181 696 232 q 621 87 656 129 q 535 18 586 44 q 478 -3 507 4 q 419 -15 449 -11 q 413 -56 415 -39 q 408 -86 411 -74 q 404 -112 406 -101 l 225 -112 l 229 -83 q 242 -4 233 -54 q 197 9 217 1 q 163 25 178 17 q 57 118 99 58 q 24 177 39 143 q 2 253 10 211 q -4 348 -6 296 q 14 463 -3 400 m 538 357 q 531 414 538 388 q 509 458 524 438 q 465 488 494 479 q 410 481 435 493 q 368 440 388 469 q 346 347 349 411 q 353 249 342 283 q 379 199 364 214 q 421 178 396 181 q 490 201 465 174 q 525 263 514 228 q 538 357 538 303 z "},"":{"ha":1126,"x_min":29,"x_max":1071,"o":"m 58 647 q 160 835 96 764 q 298 944 225 906 q 442 997 371 983 q 561 1014 513 1011 q 579 1137 572 1092 q 586 1181 586 1182 l 763 1181 q 754 1110 760 1144 q 745 1049 750 1081 q 738 993 740 1017 q 868 929 810 971 q 968 830 926 888 q 1035 702 1010 772 q 1065 553 1060 632 q 1060 395 1071 476 q 1020 239 1050 314 q 940 101 990 164 q 814 1 889 39 q 704 -35 761 -24 q 589 -50 647 -47 q 579 -115 583 -86 q 572 -164 575 -144 q 567 -206 568 -187 l 388 -206 l 411 -35 q 334 -15 369 -26 q 275 11 299 -3 q 121 147 182 61 q 73 233 94 185 q 40 343 51 282 q 32 480 29 404 q 58 647 35 556 m 818 493 q 808 576 818 538 q 778 640 799 608 q 714 683 757 672 q 632 674 668 690 q 573 615 600 658 q 540 481 546 572 q 551 338 535 388 q 590 264 568 288 q 650 233 615 238 q 706 240 682 231 q 749 267 731 249 q 778 308 767 285 q 799 357 790 332 q 818 493 817 415 z "},"":{"ha":506,"x_min":51,"x_max":439,"o":"m 439 774 q 430 762 439 774 q 406 731 421 750 q 372 689 392 713 q 332 640 353 665 q 224 508 285 582 q 315 357 275 424 q 349 302 332 329 q 378 254 365 275 q 398 220 390 233 q 406 207 406 207 q 387 195 404 207 q 349 168 369 183 q 293 131 324 151 l 51 486 q 53 497 53 492 q 53 508 53 503 q 54 521 53 514 q 57 556 56 536 q 69 569 57 556 q 101 605 81 583 q 146 653 121 626 q 197 710 171 681 q 339 861 260 776 q 388 818 365 836 q 422 788 407 801 q 439 774 438 775 z "},"":{"ha":801,"x_min":51,"x_max":732,"o":"m 439 746 q 430 734 439 746 q 406 703 421 722 q 372 661 392 685 q 332 613 353 638 q 224 481 285 554 q 315 329 275 396 q 349 274 332 301 q 378 226 365 247 q 398 192 390 206 q 406 179 406 179 q 387 167 404 179 q 349 140 369 156 q 293 103 324 124 l 51 458 q 53 469 53 464 q 53 481 53 475 q 54 493 53 486 q 57 528 56 508 q 69 542 57 528 q 101 577 81 556 q 146 626 121 599 q 197 682 171 653 q 339 833 260 749 q 388 790 365 808 q 422 760 407 774 q 439 746 438 747 m 732 746 q 723 734 732 746 q 699 703 714 722 q 665 661 685 685 q 625 613 646 638 q 517 481 578 554 q 608 329 568 396 q 642 274 625 301 q 671 226 658 247 q 691 192 683 206 q 699 179 699 179 q 680 167 697 179 q 642 140 663 156 q 586 103 617 124 l 344 458 q 346 469 346 464 q 346 481 346 475 q 347 493 346 486 q 350 528 349 508 q 362 542 350 528 q 394 577 374 556 q 439 626 414 599 q 490 682 464 653 q 632 833 553 749 q 681 790 658 808 q 715 760 700 774 q 732 746 731 747 z "},"":{"ha":801,"x_min":54,"x_max":735,"o":"m 347 190 q 356 201 347 190 q 380 231 365 213 q 414 274 394 250 q 454 322 433 297 l 563 456 l 471 606 q 438 660 454 633 q 408 709 421 688 q 388 744 396 731 q 381 757 381 757 q 399 768 382 757 q 438 794 417 779 l 493 833 l 735 478 q 734 466 735 476 q 732 443 733 456 q 729 408 731 428 q 717 394 729 407 q 685 359 704 381 q 640 310 665 338 q 588 254 614 283 q 447 103 525 188 q 399 146 421 126 q 364 175 379 161 q 347 190 349 189 m 54 190 q 63 201 54 190 q 87 231 72 213 q 121 274 101 250 q 161 322 140 297 l 269 456 l 178 606 q 144 660 161 633 q 115 709 128 688 q 95 744 103 731 q 88 757 88 757 q 106 768 89 757 q 144 794 124 779 l 200 833 l 442 478 q 441 466 442 476 q 439 443 440 456 q 436 408 438 428 q 424 394 436 407 q 392 359 411 381 q 347 310 372 338 q 294 254 321 283 q 154 103 232 188 q 106 146 128 126 q 71 175 86 161 q 54 190 56 189 z "},"":{"ha":539,"x_min":67,"x_max":454,"o":"m 67 190 q 76 201 67 190 q 99 231 85 213 q 133 274 114 250 q 174 322 153 297 l 282 456 l 190 606 q 157 660 174 633 q 128 709 140 688 q 108 744 115 731 q 100 757 100 757 q 119 768 101 757 q 157 794 136 779 l 213 833 l 454 478 q 453 466 454 476 q 451 443 453 456 q 449 408 450 428 q 436 394 449 407 q 404 359 424 381 q 359 310 385 338 q 307 254 333 283 q 167 103 244 188 q 118 146 140 126 q 83 175 99 161 q 67 190 68 189 z "},"":{"ha":1704,"x_min":29,"x_max":1632,"o":"m 1325 142 q 1380 152 1357 142 q 1417 177 1403 163 q 1441 208 1432 192 q 1454 236 1450 225 l 1607 203 q 1585 147 1599 175 q 1555 95 1571 119 q 1522 51 1539 71 q 1488 19 1504 32 q 1323 -53 1417 -33 q 1097 -57 1229 -72 q 977 -20 1029 -49 q 889 51 925 8 q 814 1 856 22 q 666 -44 744 -33 q 513 -49 588 -54 q 376 -27 439 -44 q 275 11 313 -10 q 121 147 182 61 q 73 233 94 185 q 40 343 51 282 q 32 480 29 404 q 58 647 35 556 q 121 781 83 724 q 203 878 158 838 q 298 944 249 918 q 394 985 347 969 q 631 1014 506 1021 q 800 970 724 1007 q 932 874 876 933 q 992 941 960 914 q 1056 982 1025 968 q 1201 1025 1131 1018 q 1329 1025 1272 1032 q 1456 997 1396 1018 q 1551 936 1515 974 q 1604 863 1586 899 q 1632 774 1625 819 l 1490 718 q 1481 747 1486 729 q 1465 782 1476 765 q 1435 808 1454 799 q 1382 814 1415 818 q 1338 791 1354 810 q 1310 751 1321 772 q 1292 697 1297 726 q 1289 685 1292 697 q 1286 655 1286 672 q 1289 616 1286 638 q 1301 576 1292 594 q 1353 539 1317 549 q 1446 535 1389 529 q 1442 519 1446 536 q 1432 481 1438 501 q 1417 424 1426 456 q 1346 432 1379 433 q 1288 418 1317 431 q 1242 374 1258 406 q 1226 322 1235 358 q 1221 246 1217 285 q 1247 176 1225 207 q 1325 142 1269 146 m 818 493 q 808 576 818 538 q 778 640 799 608 q 714 683 757 672 q 632 674 668 690 q 573 615 600 658 q 540 481 546 572 q 551 338 535 388 q 590 264 568 288 q 650 233 615 238 q 706 240 682 231 q 749 267 731 249 q 778 308 767 285 q 799 357 790 332 q 818 493 817 415 z "},"":{"ha":383,"x_min":46,"x_max":481,"o":"m 351 183 l 172 183 q 172 189 172 183 q 172 228 172 194 q 173 333 172 261 q 174 539 174 406 l 46 539 l 68 668 l 175 668 l 175 754 l 46 754 l 68 883 l 176 883 l 176 1135 l 353 1135 q 353 1117 353 1136 q 352 1063 353 1097 q 351 982 351 1028 q 351 883 351 936 l 481 883 l 458 754 l 351 754 l 351 668 l 481 668 l 458 539 l 351 539 l 351 183 z "},"":{"ha":532,"x_min":46,"x_max":481,"o":"m 68 883 l 176 883 l 176 1135 l 353 1135 q 353 1117 353 1136 q 352 1063 353 1097 q 351 982 351 1028 q 351 883 351 936 l 481 883 l 458 754 l 351 754 l 351 183 l 172 183 q 172 235 172 183 q 173 369 172 286 q 174 553 174 451 q 175 754 175 654 l 46 754 l 68 883 z "},"":{"ha":1157,"x_min":64,"x_max":1106,"o":"m 654 375 q 701 384 682 375 q 733 406 721 393 q 753 432 746 418 q 765 456 761 446 l 901 421 q 882 372 894 396 q 853 328 869 349 q 822 290 838 307 q 792 264 806 274 q 680 209 750 229 q 499 210 610 189 q 371 266 419 224 q 298 365 322 308 q 271 483 274 421 q 283 603 268 546 q 310 680 293 644 q 350 744 328 715 q 397 795 372 774 q 444 832 421 817 q 550 875 499 867 q 642 881 601 883 q 731 861 688 876 q 806 810 778 842 q 849 746 833 778 q 874 667 865 708 l 746 613 q 738 638 742 622 q 724 669 733 654 q 697 692 714 683 q 651 694 679 700 q 610 667 625 689 q 586 621 594 646 q 571 557 576 592 q 571 468 565 507 q 594 406 576 435 q 654 375 611 378 m 158 535 q 192 368 158 446 q 283 232 225 290 q 419 140 342 174 q 586 107 497 107 q 753 140 675 107 q 889 232 831 174 q 981 368 947 290 q 1014 535 1014 446 q 981 701 1014 624 q 889 838 947 779 q 753 929 831 896 q 586 963 675 963 q 419 929 497 963 q 283 838 342 896 q 192 701 225 779 q 158 535 158 624 m 64 533 q 105 736 64 642 q 217 901 146 831 q 382 1013 288 972 q 585 1054 476 1054 q 788 1013 693 1054 q 953 901 882 972 q 1065 736 1024 831 q 1106 533 1106 642 q 1065 331 1106 425 q 953 165 1024 236 q 788 53 882 94 q 585 13 693 13 q 382 53 476 13 q 217 165 288 94 q 105 331 146 236 q 64 533 64 425 z "},"":{"ha":1157,"x_min":64,"x_max":1106,"o":"m 158 535 q 192 368 158 446 q 283 232 225 290 q 419 140 342 174 q 586 107 497 107 q 753 140 675 107 q 889 232 831 174 q 981 368 947 290 q 1014 535 1014 446 q 981 701 1014 624 q 889 838 947 779 q 753 929 831 896 q 586 963 675 963 q 419 929 497 963 q 283 838 342 896 q 192 701 225 779 q 158 535 158 624 m 64 533 q 105 736 64 642 q 217 901 146 831 q 382 1013 288 972 q 585 1054 476 1054 q 788 1013 693 1054 q 953 901 882 972 q 1065 736 1024 831 q 1106 533 1106 642 q 1065 331 1106 425 q 953 165 1024 236 q 788 53 882 94 q 585 13 693 13 q 382 53 476 13 q 217 165 288 94 q 105 331 146 236 q 64 533 64 425 m 796 490 q 788 485 792 488 q 781 482 783 483 q 801 476 792 479 q 818 464 811 472 q 828 434 829 449 q 824 407 826 419 q 820 384 821 394 q 831 368 819 374 q 850 364 842 361 q 864 374 858 367 q 875 392 869 381 l 921 369 q 878 305 906 325 q 822 278 850 285 q 751 275 789 271 q 678 311 703 283 q 644 371 654 339 q 636 433 635 403 q 640 476 638 464 q 621 479 621 479 q 587 381 607 415 q 544 322 567 346 q 460 272 504 282 q 375 261 415 261 q 307 274 332 263 q 268 299 282 285 q 246 335 253 314 q 244 372 240 356 q 259 401 247 388 q 299 422 271 415 q 325 424 311 425 q 351 419 339 422 q 379 413 365 417 q 410 519 397 460 q 431 636 422 578 q 443 747 439 694 q 449 838 447 800 l 558 838 l 668 838 q 667 829 668 836 q 666 815 667 822 q 665 800 665 807 q 664 792 664 793 q 713 817 683 811 q 769 819 743 822 q 831 797 806 815 q 871 754 856 779 q 891 699 886 729 q 890 640 896 669 q 881 601 888 622 q 862 560 874 581 q 834 521 850 539 q 796 490 818 503 m 703 647 q 697 678 704 663 q 654 696 690 693 q 651 647 653 665 q 644 601 649 629 q 680 607 660 599 q 703 647 700 615 m 321 371 q 333 368 326 368 q 347 370 340 368 q 364 379 354 372 q 351 383 357 381 q 325 389 338 389 q 319 388 322 389 q 314 379 314 385 q 317 372 314 375 q 321 371 318 371 z "},"":{"ha":1074,"x_min":51,"x_max":1032,"o":"m 647 221 q 720 235 690 221 q 770 268 750 249 q 801 309 790 288 q 819 346 813 331 l 1032 292 q 1001 217 1021 254 q 957 149 981 181 q 908 91 933 117 q 861 50 882 65 q 767 -9 822 17 q 638 -46 713 -35 l 632 -114 q 718 -119 681 -111 q 775 -147 750 -126 q 799 -211 800 -168 q 787 -267 797 -236 q 745 -318 776 -297 q 656 -343 714 -339 q 501 -319 597 -347 q 505 -306 500 -319 q 517 -276 510 -292 q 535 -235 524 -258 q 615 -250 579 -246 q 671 -249 646 -253 q 697 -221 696 -244 q 668 -190 699 -199 q 600 -181 638 -182 q 500 -186 556 -179 q 503 -140 501 -164 q 505 -97 504 -121 q 507 -49 506 -72 q 407 -36 461 -47 q 209 52 285 -14 q 96 205 133 118 q 55 390 58 292 q 74 575 51 488 q 116 693 89 639 q 177 792 143 747 q 249 872 211 838 q 324 929 286 906 q 488 996 408 982 q 629 1006 567 1010 q 765 975 701 1000 q 882 896 838 947 q 950 796 926 844 q 989 674 978 738 l 790 589 q 778 629 785 604 q 756 676 771 654 q 714 712 740 699 q 644 717 688 725 q 580 675 604 710 q 542 603 556 640 q 518 504 526 557 q 518 367 508 428 q 531 315 522 340 q 554 270 539 290 q 592 236 569 250 q 647 221 615 222 z "},"":{"ha":408,"x_min":81,"x_max":381,"o":"m 94 28 q 117 24 96 25 q 161 24 138 24 l 225 24 l 213 -114 q 299 -119 261 -111 q 356 -147 331 -126 q 379 -211 381 -168 q 367 -267 378 -236 q 326 -318 357 -297 q 236 -343 294 -339 q 82 -319 178 -347 q 85 -306 81 -319 q 97 -276 90 -292 q 115 -235 104 -258 q 196 -250 160 -246 q 251 -249 226 -253 q 278 -221 276 -244 q 249 -190 279 -199 q 181 -181 218 -182 q 81 -186 136 -179 l 86 -78 q 89 -37 88 -57 q 91 -3 90 -18 q 93 20 92 11 q 94 28 94 29 z "},"":{"ha":732,"x_min":-8,"x_max":683,"o":"m 413 164 q 464 174 443 164 q 499 197 485 183 q 521 226 513 211 q 533 253 529 242 l 683 214 q 661 162 675 188 q 631 113 647 136 q 596 72 614 90 q 563 43 578 54 q 482 -4 531 15 q 363 -26 433 -24 l 358 -72 q 444 -78 407 -69 q 501 -106 476 -85 q 525 -169 526 -126 q 513 -225 524 -194 q 472 -276 503 -256 q 382 -301 440 -297 q 228 -278 324 -306 q 231 -264 226 -278 q 243 -235 236 -250 q 261 -193 250 -217 q 342 -208 306 -204 q 397 -207 372 -211 q 424 -179 422 -203 q 394 -149 425 -157 q 326 -139 364 -140 q 226 -144 282 -137 q 228 -103 226 -125 q 230 -60 229 -83 q 233 -14 231 -37 q 99 50 150 4 q 22 156 47 96 q -6 285 -4 217 q 7 414 -8 353 q 80 568 29 504 q 183 664 131 632 q 299 710 243 701 q 400 717 356 719 q 496 696 451 713 q 578 640 547 676 q 626 569 610 604 q 653 483 646 528 l 513 424 q 503 452 508 435 q 488 485 499 469 q 459 510 478 501 q 410 514 440 519 q 365 485 382 508 q 338 433 347 461 q 321 364 326 401 q 321 267 314 310 q 347 199 326 231 q 413 164 367 167 z "},"":{"ha":1307,"x_min":32,"x_max":1246,"o":"m 288 582 l 374 582 q 404 826 393 708 q 418 1022 415 943 l 821 1022 q 819 1007 821 1019 q 817 980 818 994 q 814 953 815 965 q 813 938 813 940 q 858 967 831 956 q 917 983 886 978 q 978 989 947 989 q 1031 985 1008 989 q 1132 944 1090 974 q 1199 872 1174 914 q 1235 776 1224 829 q 1246 665 1246 724 q 1238 490 1246 583 q 1206 306 1229 396 q 1140 142 1182 217 q 1033 25 1099 67 q 909 -21 975 -12 q 785 -24 843 -29 q 651 3 718 -18 q 603 25 622 14 q 554 53 583 36 q 418 -9 492 10 q 271 -28 344 -28 q 151 -4 196 -25 q 82 40 106 17 q 42 101 53 67 q 38 171 32 139 q 66 224 43 199 q 144 261 89 250 q 188 263 164 265 q 236 256 213 260 q 292 242 263 250 q 323 342 308 289 q 350 453 338 396 l 265 453 l 288 582 m 874 497 q 885 636 886 585 q 874 715 885 688 q 842 751 863 743 q 796 758 822 758 q 785 666 790 710 q 774 582 781 622 l 829 582 l 807 453 l 749 453 q 706 301 726 360 q 674 217 685 242 q 726 208 697 206 q 783 240 754 211 q 835 331 811 269 q 874 497 860 392 m 185 165 q 208 163 196 163 q 233 167 219 163 q 261 182 246 171 q 240 192 251 186 q 218 198 231 194 q 192 201 206 201 q 181 199 186 201 q 171 182 171 193 q 178 169 171 174 q 185 165 181 167 z "},"":{"ha":726,"x_min":44,"x_max":674,"o":"m 457 115 q 421 26 457 63 q 333 -10 385 -10 q 244 26 281 -10 q 208 115 208 63 q 244 203 208 167 q 333 239 281 239 q 421 203 385 239 q 457 115 457 167 m 529 669 q 493 581 529 617 q 406 544 457 544 q 317 581 353 544 q 281 669 281 617 q 317 757 281 721 q 406 793 353 793 q 493 757 457 793 q 529 669 529 721 m 44 336 l 651 336 l 674 465 l 67 465 l 44 336 z "},"":{"ha":300,"x_min":-1,"x_max":779,"o":"m 376 624 q 497 701 439 681 q 606 712 556 722 q 694 663 656 701 q 753 562 732 624 q 777 419 775 500 q 757 243 779 338 q 646 33 724 111 q 554 -18 608 -4 q 447 -28 500 -32 q 351 -2 393 -24 q 296 53 308 19 q 310 -77 301 -17 q 329 -185 319 -137 q 353 -286 340 -240 l 43 -286 q 18 -122 28 -193 q 3 13 8 -50 q -1 137 -1 75 q 1 274 -1 199 q 26 524 7 401 q 68 744 46 647 q 124 960 93 858 l 436 960 q 413 865 424 922 q 394 754 403 808 q 376 624 385 690 m 390 192 q 426 211 410 192 q 451 261 442 231 q 465 327 461 292 q 465 395 468 363 q 451 451 463 428 q 421 482 440 475 q 397 483 410 485 q 372 476 383 481 q 346 464 358 471 q 331 392 339 438 q 324 301 324 346 q 339 224 325 257 q 390 192 353 192 z "},"":{"ha":1157,"x_min":32,"x_max":1228,"o":"m 1056 186 q 933 139 994 146 q 822 140 871 132 q 742 162 772 149 q 713 176 711 175 q 628 63 679 104 q 518 2 578 22 q 394 -23 458 -18 q 271 -28 331 -28 q 151 -4 196 -25 q 82 40 106 17 q 42 101 53 67 q 38 171 32 139 q 66 224 43 199 q 144 261 89 250 q 188 263 164 265 q 236 256 213 260 q 292 242 263 250 q 347 438 324 331 q 385 653 369 546 q 408 858 400 761 q 418 1022 415 954 q 448 1022 418 1022 q 523 1022 478 1022 q 620 1022 568 1022 q 717 1022 672 1022 q 791 1022 761 1022 q 821 1022 821 1022 q 818 995 821 1019 q 812 937 815 971 q 803 865 808 903 q 793 797 799 826 q 835 826 811 815 q 884 844 858 838 q 935 851 910 850 q 985 849 961 851 q 1097 813 1051 840 q 1172 746 1143 786 q 1215 653 1201 706 q 1228 544 1228 601 q 1224 465 1228 510 q 1203 371 1219 419 q 1151 274 1186 322 q 1056 186 1117 226 m 858 478 q 857 506 858 492 q 847 534 856 521 q 819 556 838 547 q 769 567 801 565 q 766 518 768 539 q 762 478 764 497 q 757 439 760 458 q 750 394 754 419 q 782 392 764 390 q 816 403 800 393 q 844 431 832 413 q 858 478 856 449 m 185 165 q 208 163 196 163 q 233 167 219 163 q 261 182 246 171 q 240 192 251 186 q 218 198 231 194 q 192 201 206 201 q 181 199 186 201 q 171 182 171 193 q 178 169 171 174 q 185 165 181 167 z "},"":{"ha":1143,"x_min":42,"x_max":1186,"o":"m 801 221 q 874 235 844 221 q 924 268 904 249 q 956 309 944 288 q 974 346 967 331 l 1186 292 q 1155 217 1175 254 q 1111 149 1135 181 q 1062 91 1088 117 q 1015 50 1036 65 q 941 0 983 22 q 843 -36 899 -22 q 718 -51 788 -50 q 561 -36 649 -53 q 423 11 482 -22 q 322 91 364 44 q 255 193 281 138 q 218 310 229 249 l 42 310 l 64 439 l 208 439 q 217 519 211 481 l 79 519 l 101 649 l 250 649 q 352 819 289 749 q 478 929 415 889 q 642 996 563 982 q 783 1006 721 1010 q 919 975 856 1000 q 1036 896 992 947 q 1104 796 1081 844 q 1143 674 1132 738 l 944 589 q 932 629 939 604 q 910 676 925 654 q 868 712 894 699 q 799 717 842 725 q 751 692 771 711 q 715 649 731 674 l 857 649 l 835 519 l 674 519 q 672 508 672 514 l 672 504 q 669 486 671 496 q 667 465 668 478 q 667 439 667 453 l 819 439 l 797 310 l 686 310 q 727 249 700 274 q 801 221 754 224 z "},"":{"ha":1065,"x_min":58,"x_max":1165,"o":"m 382 -58 q 472 -77 432 -57 q 537 -128 511 -97 q 573 -199 563 -160 q 576 -278 583 -239 q 533 -376 564 -340 q 468 -431 501 -411 q 383 -458 429 -453 q 231 -432 299 -464 q 173 -395 201 -418 q 121 -336 144 -372 q 82 -249 97 -300 q 63 -129 67 -199 q 59 -8 58 -76 q 64 134 60 60 q 77 287 68 208 q 99 439 86 365 q 131 578 113 513 q 172 696 149 644 l 506 696 q 429 446 454 557 q 412 352 418 399 q 408 268 406 306 q 424 205 411 231 q 465 174 438 179 q 483 171 474 171 q 502 174 492 171 q 524 185 513 176 q 515 267 515 224 q 519 353 514 310 q 532 440 524 397 q 551 519 540 482 q 613 696 576 608 l 946 696 q 878 472 900 575 q 863 384 868 428 q 861 303 858 340 q 876 236 864 265 q 915 194 889 207 q 975 185 944 182 q 1033 205 1001 188 q 1094 271 1064 222 l 1165 200 q 1061 79 1122 131 q 1002 38 1035 57 q 929 4 969 18 q 842 -15 889 -10 q 740 -12 794 -19 q 642 20 690 -6 q 565 83 594 46 q 489 17 536 43 q 376 -15 442 -10 q 379 -46 376 -32 q 382 -58 381 -53 m 444 -262 q 479 -251 468 -265 q 490 -217 490 -237 q 474 -174 489 -189 q 440 -150 460 -158 q 392 -136 418 -140 q 400 -197 394 -171 q 416 -241 406 -221 q 444 -262 426 -261 z "},"":{"ha":858,"x_min":58,"x_max":813,"o":"m 813 856 q 785 848 813 854 q 717 832 758 842 q 778 593 750 729 q 806 308 806 457 q 795 203 806 249 q 767 122 785 157 q 726 64 749 88 q 681 25 704 40 q 557 -19 625 -11 q 358 -12 451 -35 q 278 15 318 -3 q 201 64 238 33 q 135 140 165 94 q 86 249 104 185 q 58 422 58 342 q 78 563 58 501 q 137 665 99 625 q 226 716 175 704 q 335 708 276 728 q 457 631 394 688 q 451 669 456 649 q 442 712 449 688 q 429 767 436 736 q 356 751 385 757 q 328 746 328 744 l 282 879 q 311 885 296 881 q 344 892 325 888 q 386 901 363 896 q 358 972 374 938 q 322 1040 342 1007 l 636 1040 q 644 1021 639 1032 q 668 965 654 999 q 741 981 713 975 q 767 986 769 986 l 813 856 m 417 221 q 469 253 454 221 q 487 330 485 286 q 482 419 489 374 q 468 490 475 464 q 439 504 454 499 q 412 511 426 508 q 386 510 397 514 q 356 480 367 504 q 342 424 344 456 q 342 356 339 392 q 356 290 346 321 q 381 240 365 260 q 417 221 396 221 z "},"":{"ha":1244,"x_min":32,"x_max":1200,"o":"m 679 93 q 689 113 678 93 q 714 158 700 133 q 740 205 728 183 q 751 228 751 226 q 785 213 764 219 q 827 208 806 206 q 869 228 849 211 q 904 283 890 244 q 905 345 913 321 q 881 385 897 369 q 843 408 865 400 q 799 421 821 417 q 816 476 808 447 q 826 554 824 506 q 856 556 839 554 q 890 565 874 557 q 918 594 906 574 q 932 656 931 615 q 921 709 933 688 q 885 743 908 731 q 833 760 863 756 q 775 761 804 764 q 755 592 765 682 q 725 412 744 501 q 673 240 706 322 q 587 97 640 158 q 456 1 533 36 q 271 -28 379 -33 q 151 -4 196 -25 q 82 40 106 17 q 42 101 53 67 q 38 171 32 139 q 66 224 43 199 q 144 261 89 250 q 197 262 171 264 q 244 256 224 260 q 292 242 269 250 q 351 433 324 331 q 400 637 379 536 q 434 829 421 738 q 450 989 447 921 q 551 997 493 994 q 676 998 610 1000 q 815 987 743 996 q 961 961 888 978 q 1056 923 1013 949 q 1132 860 1100 897 q 1182 775 1164 822 q 1199 672 1200 728 q 1187 604 1199 638 q 1156 544 1175 571 q 1115 496 1138 517 q 1067 465 1092 475 q 1126 423 1101 453 q 1166 356 1151 393 q 1185 277 1181 318 q 1185 200 1190 236 q 1159 115 1178 150 q 1116 57 1140 81 q 1065 20 1092 33 q 1013 -1 1038 7 q 913 -17 958 -18 q 831 -6 868 -17 q 767 21 794 4 q 719 53 739 38 q 690 81 700 69 q 679 93 681 93 m 185 165 q 208 163 196 163 q 233 167 219 163 q 261 182 246 171 q 240 192 251 186 q 218 198 231 194 q 192 201 206 201 q 181 199 186 201 q 171 182 171 193 q 178 169 171 174 q 185 165 181 167 z "},"":{"ha":682,"x_min":42,"x_max":629,"o":"m 461 131 q 447 157 458 138 q 416 205 435 176 q 374 269 397 233 q 324 344 350 306 l 113 146 l 42 257 l 249 451 q 194 532 221 493 q 149 600 168 571 q 117 646 129 629 q 106 663 106 663 l 218 764 q 260 700 236 735 q 305 632 279 671 q 360 551 331 593 l 560 728 l 629 618 l 432 443 q 487 361 461 400 q 531 293 513 322 q 561 247 550 264 q 572 231 572 231 l 461 131 z "},"":{"ha":761,"x_min":57,"x_max":721,"o":"m 529 831 q 523 801 526 824 q 514 744 519 778 q 502 668 508 711 q 489 579 496 625 l 721 579 l 699 450 l 472 450 q 459 353 465 400 q 448 272 453 307 q 440 217 443 238 q 438 197 438 197 l 286 197 q 297 274 292 233 q 310 353 303 308 q 324 450 317 399 l 103 450 l 125 579 l 342 579 q 357 676 350 631 q 369 757 364 722 q 377 812 374 792 q 381 831 381 832 l 529 831 m 79 129 l 658 129 l 636 0 l 57 0 l 79 129 z "},"":{"ha":426,"x_min":132,"x_max":382,"o":"m 382 96 q 351 -28 382 26 q 249 -104 319 -83 l 229 -64 q 251 -51 244 -61 q 257 -29 257 -40 q 250 -10 257 -18 q 231 -1 243 -1 q 159 28 186 -1 q 132 113 132 57 q 170 203 132 171 q 258 235 208 235 q 304 228 282 235 q 344 204 326 221 q 372 161 361 188 q 382 96 382 135 z "},"":{"ha":361,"x_min":58,"x_max":307,"o":"m 307 400 q 271 311 307 347 q 183 275 235 275 q 94 311 131 275 q 58 400 58 347 q 94 488 58 451 q 183 524 131 524 q 271 488 235 524 q 307 400 307 451 z "},"":{"ha":650,"x_min":42,"x_max":601,"o":"m 64 550 l 601 550 l 579 421 l 42 421 l 64 550 z "},"":{"ha":422,"x_min":36,"x_max":340,"o":"m 308 31 q 310 25 308 32 q 313 7 311 18 q 318 -19 315 -4 q 324 -50 321 -35 l 340 -133 q 242 -139 285 -132 q 206 -147 224 -142 q 174 -160 188 -153 q 153 -179 161 -168 q 147 -206 146 -190 q 174 -245 150 -237 q 225 -249 197 -253 q 299 -228 258 -243 q 318 -274 310 -254 q 331 -305 325 -290 q 335 -319 336 -319 q 181 -343 239 -347 q 91 -318 122 -339 q 49 -267 60 -297 q 38 -211 39 -236 q 43 -161 36 -183 q 61 -122 50 -139 q 88 -92 72 -104 q 118 -71 103 -79 q 203 -43 154 -50 l 192 24 l 308 31 z "},"":{"ha":1182,"x_min":25,"x_max":1208,"o":"m 740 1179 l 1208 1179 l 1186 1050 l 718 1050 l 740 1179 m 726 0 q 717 75 719 36 q 715 146 715 114 q 717 221 715 183 l 588 221 l 560 58 q 519 -60 550 -7 q 488 -104 507 -82 q 444 -144 469 -126 q 385 -175 418 -162 q 310 -190 351 -187 q 182 -180 238 -196 q 90 -132 126 -164 q 40 -56 54 -100 q 35 40 25 -11 q 76 123 44 93 q 140 168 107 153 q 225 190 179 185 q 273 385 240 292 q 348 559 306 478 q 438 708 390 640 q 529 825 485 775 q 593 892 564 864 q 646 938 622 919 q 694 972 671 958 l 1161 972 q 1085 629 1113 801 q 1064 475 1072 556 q 1053 313 1056 394 q 1058 151 1051 231 q 1083 0 1064 71 l 726 0 m 740 390 q 750 464 744 428 q 760 531 754 496 q 772 596 765 567 q 713 544 740 574 q 665 481 689 518 q 629 390 640 443 l 740 390 m 154 68 q 156 53 153 58 q 176 38 161 38 q 193 42 186 38 q 203 51 200 46 q 208 67 207 57 q 213 89 211 78 q 217 110 215 100 q 219 132 218 121 q 178 117 192 128 q 160 96 165 107 q 154 68 154 82 z "},"":{"ha":871,"x_min":-31,"x_max":958,"o":"m 257 908 l 725 908 l 703 779 l 235 779 l 257 908 m 958 204 q 876 85 926 136 q 828 42 856 63 q 765 8 800 22 q 690 -12 731 -6 q 600 -12 649 -18 q 491 22 536 -6 q 419 88 446 50 q 388 42 408 61 q 342 11 368 24 q 288 -7 317 -1 q 231 -12 258 -12 q 110 13 158 -12 q 32 79 61 39 q -10 168 3 119 q -27 263 -24 217 q -27 349 -31 310 q -19 407 -24 388 q 13 514 -8 463 q 67 605 33 565 q 147 670 100 644 q 256 701 193 696 q 358 692 317 707 q 426 650 399 676 q 434 670 431 661 q 440 686 438 679 q 446 699 443 693 l 769 699 q 692 475 718 578 q 674 387 681 431 q 668 306 667 343 q 681 239 669 268 q 719 197 693 210 q 774 188 746 183 q 828 208 797 190 q 889 275 858 226 l 958 204 m 408 353 q 399 417 411 390 q 356 447 386 444 q 308 424 325 450 q 289 363 292 399 q 299 298 286 325 q 342 268 311 271 q 389 290 372 265 q 408 353 406 315 z "},"":{"ha":882,"x_min":31,"x_max":847,"o":"m 353 1231 l 821 1231 l 799 1101 l 331 1101 l 353 1231 m 540 142 q 595 152 572 142 q 633 177 618 163 q 656 208 647 192 q 669 236 665 225 l 822 203 q 743 61 789 117 q 636 -26 697 6 q 496 -65 575 -57 q 317 -60 417 -72 q 194 -21 247 -51 q 103 55 140 10 q 49 156 67 100 q 32 269 31 211 q 60 404 33 344 q 126 501 86 464 q 96 563 106 529 q 83 628 86 596 q 81 690 79 661 q 88 736 83 718 q 171 903 110 838 q 313 1001 232 969 q 488 1032 394 1033 q 671 997 582 1031 q 766 936 731 974 q 819 863 801 899 q 847 774 840 819 l 706 718 q 697 747 701 729 q 681 782 692 765 q 650 808 669 799 q 597 814 631 818 q 533 779 556 808 q 503 712 511 750 q 499 636 494 674 q 517 576 503 599 q 661 535 550 525 q 657 519 661 536 q 647 481 653 501 q 632 424 642 456 q 560 426 594 431 q 501 409 531 424 q 454 363 471 394 q 439 312 447 347 q 435 240 431 276 q 462 175 439 204 q 540 142 485 146 z "},"":{"ha":713,"x_min":3,"x_max":689,"o":"m 219 907 l 688 907 l 665 778 l 197 778 l 219 907 m 629 439 q 578 358 614 390 q 499 304 542 325 q 413 273 456 283 q 339 258 369 263 q 371 199 347 221 q 411 169 394 178 q 467 157 438 157 q 523 169 492 157 q 589 219 554 182 l 689 149 q 653 99 674 124 q 608 56 635 78 q 549 19 582 35 q 479 -6 522 4 q 385 -19 436 -17 q 281 -12 335 -21 q 179 19 226 -4 q 91 83 126 44 q 35 167 56 121 q 9 263 15 213 q 7 361 3 313 q 25 453 11 410 q 58 529 39 496 q 169 647 103 601 q 305 710 235 692 q 443 718 375 728 q 560 669 511 708 q 617 595 600 635 q 636 521 633 556 q 629 439 640 481 m 332 349 q 397 358 368 350 q 444 382 422 365 q 471 429 467 399 q 453 469 474 451 q 401 479 432 486 q 356 450 371 471 q 336 406 342 429 q 332 349 331 379 z "},"":{"ha":660,"x_min":44,"x_max":697,"o":"m 229 1238 l 697 1238 l 675 1108 l 207 1108 l 229 1238 m 453 372 q 537 336 501 361 q 593 278 572 311 q 619 208 614 246 q 613 132 624 169 q 558 39 593 71 q 489 -8 524 7 q 403 -28 449 -25 q 221 0 300 -33 q 155 38 188 14 q 97 97 122 61 q 58 185 72 133 q 47 307 44 236 q 79 592 53 458 q 136 826 106 726 q 215 1043 172 943 l 633 1043 q 536 790 571 910 q 482 576 501 669 q 453 372 460 468 m 483 161 q 518 169 506 157 q 533 201 531 181 q 522 246 536 229 q 490 274 508 263 q 443 292 469 286 q 446 229 442 257 q 457 185 449 206 q 483 161 465 164 z "},"":{"ha":544,"x_min":-11,"x_max":643,"o":"m 75 893 l 543 893 l 521 764 l 53 764 l 75 893 m 90 696 l 422 696 q 354 472 376 575 q 340 384 344 428 q 338 303 335 340 q 353 236 340 265 q 392 194 365 207 q 453 185 422 181 q 510 206 479 188 q 572 272 542 224 l 643 201 q 539 81 600 132 q 479 39 513 58 q 406 6 446 19 q 319 -13 367 -8 q 218 -11 272 -18 q 92 35 139 -1 q 21 122 44 71 q -7 236 -3 174 q -3 363 -11 299 q 90 696 15 511 z "},"":{"ha":1126,"x_min":29,"x_max":1061,"o":"m 382 1221 l 850 1221 l 828 1092 l 360 1092 l 382 1221 m 631 1014 q 806 966 726 1007 q 942 859 885 925 q 1030 704 999 793 q 1060 513 1061 615 q 1044 365 1058 442 q 1001 219 1031 289 q 924 92 971 149 q 814 1 878 35 q 666 -44 744 -33 q 513 -48 588 -54 q 376 -25 439 -42 q 275 11 313 -8 q 121 147 182 61 q 73 233 94 185 q 40 343 51 282 q 32 480 29 404 q 58 647 35 556 q 121 781 83 724 q 203 878 158 838 q 298 944 249 918 q 394 985 347 969 q 631 1014 506 1021 m 818 493 q 808 576 818 538 q 778 640 799 608 q 714 683 757 672 q 632 674 668 690 q 573 615 600 658 q 540 481 546 572 q 551 338 535 388 q 590 264 568 288 q 650 233 615 238 q 705 240 681 231 q 747 268 729 250 q 777 310 765 286 q 797 358 789 333 q 818 493 815 417 z "},"":{"ha":760,"x_min":-6,"x_max":711,"o":"m 182 893 l 650 893 l 628 764 l 160 764 l 182 893 m 408 715 q 527 685 474 711 q 619 616 581 658 q 680 517 657 574 q 707 397 703 461 q 703 288 711 344 q 676 181 696 232 q 621 87 656 129 q 535 18 586 44 q 432 -13 486 -6 q 326 -17 378 -21 q 232 -2 275 -14 q 163 25 189 10 q 57 118 99 58 q 24 177 39 143 q 2 253 10 211 q -4 348 -6 296 q 14 463 -3 400 q 56 554 31 515 q 113 621 82 593 q 178 666 144 649 q 244 694 211 683 q 408 715 321 719 m 538 357 q 531 414 538 388 q 509 458 524 438 q 465 488 494 479 q 410 481 435 493 q 368 440 388 469 q 346 347 349 411 q 353 249 342 283 q 379 199 364 214 q 421 178 396 181 q 490 201 465 174 q 525 263 514 228 q 538 357 538 303 z "},"":{"ha":1026,"x_min":38,"x_max":993,"o":"m 443 1179 l 911 1179 l 889 1050 l 421 1050 l 443 1179 m 871 185 q 770 67 826 113 q 647 -2 714 21 q 506 -28 581 -25 q 353 -21 432 -32 q 178 46 243 -6 q 80 170 113 97 q 42 331 47 243 q 49 508 38 418 q 182 975 75 718 l 646 975 q 542 650 575 797 q 520 526 528 588 q 517 413 513 464 q 542 325 522 361 q 604 276 563 289 q 663 275 635 269 q 713 300 686 281 q 758 367 739 319 q 794 514 781 426 q 811 702 806 589 q 803 974 817 815 l 974 974 q 989 699 993 836 q 981 574 988 640 q 961 442 975 508 q 926 310 947 375 q 871 185 904 244 z "},"":{"ha":982,"x_min":-25,"x_max":1071,"o":"m 304 901 l 772 901 l 750 772 l 282 772 l 304 901 m 1071 204 q 967 81 1029 132 q 907 38 940 58 q 833 4 874 18 q 746 -15 793 -10 q 644 -12 699 -19 q 547 20 594 -6 q 469 83 499 46 q 365 3 432 31 q 206 -12 299 -25 q 79 33 126 -3 q 8 122 32 69 q -21 236 -17 174 q -17 363 -25 299 q 76 696 0 511 l 410 696 q 333 446 358 557 q 316 352 322 399 q 313 268 310 306 q 328 205 315 231 q 369 174 342 179 q 388 171 378 171 q 406 174 396 171 q 428 185 417 176 q 419 267 419 224 q 423 353 418 310 q 436 440 428 397 q 456 519 444 482 q 517 696 481 608 l 850 696 q 782 472 804 575 q 767 384 772 428 q 765 303 763 340 q 781 236 768 265 q 819 194 793 207 q 882 188 850 183 q 941 209 910 190 q 1003 276 972 228 l 1071 204 z "},"":{"ha":1107,"x_min":53,"x_max":1032,"o":"m 647 221 q 720 235 690 221 q 770 268 750 249 q 801 309 790 288 q 819 346 813 331 l 1032 292 q 999 216 1021 254 q 952 144 978 178 q 901 84 926 110 q 860 46 876 58 q 787 -1 829 21 q 690 -35 744 -22 q 565 -51 635 -49 q 407 -36 494 -53 q 213 51 288 -14 q 101 204 139 117 q 58 390 63 292 q 74 575 53 488 q 116 693 89 639 q 177 792 143 747 q 249 872 211 838 q 324 929 286 906 q 488 996 408 982 q 629 1006 567 1010 q 765 975 701 1000 q 882 896 838 947 q 950 796 926 844 q 989 674 978 738 l 790 589 q 778 629 785 604 q 756 676 771 654 q 714 712 740 699 q 644 717 688 725 q 580 675 604 710 q 542 603 556 640 q 518 504 526 557 q 518 367 508 428 q 531 315 522 340 q 554 270 539 290 q 592 236 569 250 q 647 221 615 222 m 479 1336 q 497 1326 479 1338 q 542 1298 515 1315 q 599 1260 568 1281 q 654 1222 629 1239 q 716 1247 682 1233 q 779 1272 750 1260 q 828 1290 808 1283 q 847 1296 847 1297 q 855 1281 847 1294 q 874 1251 863 1267 q 901 1208 886 1232 q 788 1129 838 1164 q 745 1100 767 1114 q 707 1075 724 1086 q 680 1057 690 1064 q 669 1050 669 1050 q 658 1051 668 1050 q 633 1054 647 1051 q 599 1058 618 1056 q 567 1090 596 1058 q 501 1160 538 1121 l 407 1263 l 443 1299 q 467 1324 457 1313 q 479 1336 478 1335 z "},"":{"ha":732,"x_min":-8,"x_max":683,"o":"m 413 164 q 464 174 443 164 q 499 197 485 183 q 521 226 513 211 q 533 253 529 242 l 683 214 q 661 162 675 188 q 631 113 647 136 q 596 72 614 90 q 563 43 578 54 q 510 8 540 24 q 442 -17 481 -8 q 353 -27 403 -26 q 243 -17 304 -28 q 103 46 157 0 q 23 153 50 92 q -6 284 -4 215 q 7 414 -8 353 q 80 568 29 504 q 183 664 131 632 q 299 710 243 701 q 400 717 356 719 q 496 696 451 713 q 578 640 547 676 q 626 569 610 604 q 653 483 646 528 l 513 424 q 503 452 508 435 q 488 485 499 469 q 459 510 478 501 q 410 514 440 519 q 365 485 382 508 q 338 433 347 461 q 321 364 326 401 q 321 267 314 310 q 347 199 326 231 q 413 164 367 167 m 254 1043 q 272 1033 254 1044 q 317 1005 290 1022 q 374 967 343 988 q 429 929 404 946 q 491 953 457 940 q 554 978 525 967 q 603 997 583 990 q 622 1003 622 1004 q 630 988 622 1001 q 649 958 638 974 q 676 915 661 939 q 563 836 613 871 q 520 807 542 821 q 482 782 499 793 q 455 764 465 771 q 444 757 444 757 q 433 758 443 757 q 408 761 422 758 q 374 765 393 763 q 342 797 371 765 q 276 867 313 828 l 182 969 l 218 1006 q 242 1031 232 1019 q 254 1043 253 1042 z "},"":{"ha":1107,"x_min":53,"x_max":1032,"o":"m 647 221 q 720 235 690 221 q 770 268 750 249 q 801 309 790 288 q 819 346 813 331 l 1032 292 q 999 216 1021 254 q 952 144 978 178 q 901 84 926 110 q 860 46 876 58 q 787 -1 829 21 q 690 -35 744 -22 q 565 -51 635 -49 q 407 -36 494 -53 q 213 51 288 -14 q 101 204 139 117 q 58 390 63 292 q 74 575 53 488 q 116 693 89 639 q 177 792 143 747 q 249 872 211 838 q 324 929 286 906 q 488 996 408 982 q 629 1006 567 1010 q 765 975 701 1000 q 882 896 838 947 q 950 796 926 844 q 989 674 978 738 l 790 589 q 778 629 785 604 q 756 676 771 654 q 714 712 740 699 q 644 717 688 725 q 580 675 604 710 q 542 603 556 640 q 518 504 526 557 q 518 367 508 428 q 531 315 522 340 q 554 270 539 290 q 592 236 569 250 q 647 221 615 222 m 804 1189 q 788 1179 806 1189 q 744 1156 771 1169 q 684 1125 717 1142 q 624 1094 651 1108 q 578 1071 597 1081 q 560 1063 560 1061 q 549 1076 560 1064 q 528 1104 539 1089 q 496 1143 513 1121 q 601 1233 556 1193 q 674 1297 642 1268 q 710 1325 707 1325 q 726 1303 711 1325 q 757 1257 740 1282 q 788 1210 774 1232 q 804 1189 801 1189 z "},"":{"ha":732,"x_min":-8,"x_max":683,"o":"m 413 164 q 464 174 443 164 q 499 197 485 183 q 521 226 513 211 q 533 253 529 242 l 683 214 q 661 162 675 188 q 631 113 647 136 q 596 72 614 90 q 563 43 578 54 q 510 8 540 24 q 442 -17 481 -8 q 353 -27 403 -26 q 243 -17 304 -28 q 103 46 157 0 q 23 153 50 92 q -6 284 -4 215 q 7 414 -8 353 q 80 568 29 504 q 183 664 131 632 q 299 710 243 701 q 400 717 356 719 q 496 696 451 713 q 578 640 547 676 q 626 569 610 604 q 653 483 646 528 l 513 424 q 503 452 508 435 q 488 485 499 469 q 459 510 478 501 q 410 514 440 519 q 365 485 382 508 q 338 433 347 461 q 321 364 326 401 q 321 267 314 310 q 347 199 326 231 q 413 164 367 167 m 603 910 q 587 900 604 910 q 542 876 569 890 q 483 846 515 863 q 423 815 450 829 q 377 792 396 801 q 358 783 358 782 q 348 797 358 785 q 326 825 338 810 q 294 864 311 842 q 400 954 354 914 q 473 1017 440 989 q 508 1046 506 1046 q 524 1024 510 1046 q 556 978 539 1003 q 586 931 572 953 q 603 910 600 910 z "},"":{"ha":1004,"x_min":50,"x_max":953,"o":"m 953 971 q 921 806 942 897 q 864 613 900 714 q 772 408 828 513 q 635 204 715 304 l 928 204 l 899 0 l 50 0 l 61 100 q 69 169 65 138 q 75 204 72 201 q 242 403 174 301 q 353 588 311 504 q 416 724 396 671 q 436 776 436 776 l 74 776 l 93 971 l 953 971 m 804 1189 q 788 1179 806 1189 q 744 1156 771 1169 q 684 1125 717 1142 q 624 1094 651 1108 q 578 1071 597 1081 q 560 1063 560 1061 q 549 1076 560 1064 q 528 1104 539 1089 q 496 1143 513 1121 q 601 1233 556 1193 q 674 1297 642 1268 q 710 1325 707 1325 q 726 1303 711 1325 q 757 1257 740 1282 q 788 1210 774 1232 q 804 1189 801 1189 z "},"":{"ha":815,"x_min":19,"x_max":757,"o":"m 232 -132 q 256 -135 243 -136 q 280 -130 267 -135 q 308 -114 293 -125 q 288 -104 299 -110 q 265 -97 278 -100 q 238 -93 253 -93 q 228 -96 232 -93 q 218 -114 218 -101 q 225 -128 218 -124 q 232 -132 228 -131 m 368 67 q 329 135 360 113 q 264 168 299 158 q 202 179 229 178 q 175 181 175 181 q 177 196 174 178 q 185 238 181 214 l 196 299 q 254 297 226 293 q 301 313 278 300 q 339 356 325 326 q 353 399 346 371 q 358 454 360 426 q 340 504 356 482 q 290 531 325 526 q 256 530 274 533 q 224 515 239 526 q 197 486 208 504 q 185 442 186 468 l 19 479 q 160 716 49 643 q 471 765 271 789 q 594 726 540 757 q 684 651 647 696 q 739 550 721 606 q 756 436 757 494 q 728 301 754 361 q 661 204 701 242 q 672 184 661 201 q 691 133 682 167 q 703 53 700 100 q 694 -57 707 6 q 638 -185 675 -135 q 550 -267 600 -236 q 441 -311 500 -299 q 318 -324 382 -324 q 215 -308 257 -324 q 145 -270 172 -292 q 105 -227 118 -249 q 88 -194 92 -206 q 85 -125 78 -157 q 113 -71 90 -97 q 192 -33 136 -44 q 249 -30 222 -26 q 294 -40 275 -33 q 336 -60 318 -47 q 368 67 381 -11 m 617 932 q 601 922 618 932 q 556 899 583 913 q 497 868 529 885 q 437 838 464 851 q 391 814 410 824 q 372 806 372 804 q 362 819 372 807 q 340 847 351 832 q 308 886 325 864 q 414 976 368 936 q 487 1040 454 1011 q 522 1068 519 1068 q 538 1047 524 1068 q 569 1000 553 1025 q 600 953 586 975 q 617 932 614 932 z "},"":{"ha":1307,"x_min":32,"x_max":1254,"o":"m 292 242 q 347 438 324 331 q 385 653 369 546 q 408 858 400 761 q 418 1022 415 954 l 821 1022 q 819 1007 821 1019 q 817 980 818 994 q 814 953 815 965 q 813 938 813 940 q 858 967 831 956 q 917 983 886 978 q 978 989 947 989 q 1031 985 1008 989 q 1133 944 1090 974 q 1202 872 1175 914 q 1242 776 1229 829 q 1254 665 1254 724 q 1244 488 1254 583 q 1210 301 1235 392 q 1143 136 1185 211 q 1040 22 1101 61 q 939 -23 990 -10 q 839 -36 888 -36 q 746 -26 790 -36 q 664 -2 701 -17 q 598 28 626 13 q 554 53 569 43 q 418 -9 492 10 q 271 -28 344 -28 q 151 -4 196 -25 q 82 40 106 17 q 42 101 53 67 q 38 171 32 139 q 66 224 43 199 q 144 261 89 250 q 195 265 169 267 q 243 257 221 263 q 292 242 268 251 m 882 500 q 892 639 894 588 q 878 717 890 690 q 844 751 865 743 q 796 758 822 758 q 768 553 785 644 q 734 394 751 463 q 700 282 717 326 q 674 217 683 238 q 727 209 697 206 q 787 242 757 213 q 842 333 817 271 q 882 500 868 394 m 185 165 q 208 163 196 163 q 233 167 219 163 q 261 182 246 171 q 240 192 251 186 q 218 198 231 194 q 192 201 206 201 q 181 199 186 201 q 171 182 171 193 q 178 169 171 174 q 185 165 181 167 m 714 1371 q 732 1361 714 1372 q 776 1333 750 1350 q 833 1294 803 1315 q 889 1257 864 1274 q 951 1281 917 1268 q 1014 1306 985 1294 q 1063 1325 1043 1318 q 1082 1331 1082 1332 q 1090 1315 1082 1329 q 1108 1286 1097 1301 q 1136 1243 1121 1267 q 1022 1164 1072 1199 q 980 1135 1001 1149 q 942 1110 958 1121 q 915 1092 925 1099 q 904 1085 904 1085 q 892 1085 903 1085 q 868 1089 882 1086 q 833 1093 853 1090 q 801 1124 831 1093 q 736 1194 772 1156 l 642 1297 l 678 1333 q 702 1358 692 1347 q 714 1371 713 1369 z "},"":{"ha":882,"x_min":31,"x_max":847,"o":"m 540 142 q 595 152 572 142 q 633 177 618 163 q 656 208 647 192 q 669 236 665 225 l 822 203 q 743 61 789 117 q 636 -26 697 6 q 496 -65 575 -57 q 317 -60 417 -72 q 194 -21 247 -51 q 103 55 140 10 q 49 156 67 100 q 32 269 31 211 q 60 404 33 344 q 126 501 86 464 q 96 563 106 529 q 83 628 86 596 q 81 690 79 661 q 88 736 83 718 q 171 903 110 838 q 313 1001 232 969 q 488 1032 394 1033 q 671 997 582 1031 q 766 936 731 974 q 819 863 801 899 q 847 774 840 819 l 706 718 q 697 747 701 729 q 681 782 692 765 q 650 808 669 799 q 597 814 631 818 q 533 779 556 808 q 503 712 511 750 q 499 636 494 674 q 517 576 503 599 q 661 535 550 525 q 657 519 661 536 q 647 481 653 501 q 632 424 642 456 q 560 426 594 431 q 501 409 531 424 q 454 363 471 394 q 439 312 447 347 q 435 240 431 276 q 462 175 439 204 q 540 142 485 146 m 344 1356 q 363 1346 344 1357 q 407 1317 381 1335 q 464 1279 433 1300 q 519 1242 494 1258 q 581 1266 547 1253 q 644 1291 615 1279 q 693 1310 674 1303 q 713 1315 713 1317 q 720 1300 713 1314 q 739 1271 728 1286 q 767 1228 751 1251 q 653 1149 703 1183 q 610 1119 632 1133 q 572 1094 589 1106 q 545 1076 556 1083 q 535 1069 535 1069 q 523 1070 533 1069 q 499 1074 513 1071 q 464 1078 483 1075 q 432 1109 461 1078 q 367 1179 403 1140 l 272 1282 l 308 1318 q 333 1343 322 1332 q 344 1356 343 1354 z "},"":{"ha":713,"x_min":3,"x_max":689,"o":"m 629 439 q 578 358 614 390 q 499 304 542 325 q 413 273 456 283 q 339 258 369 263 q 371 199 347 221 q 411 169 394 178 q 467 157 438 157 q 523 169 492 157 q 589 219 554 182 l 689 149 q 653 99 674 124 q 608 56 635 78 q 549 19 582 35 q 479 -6 522 4 q 385 -19 436 -17 q 281 -12 335 -21 q 179 19 226 -4 q 91 83 126 44 q 35 167 56 121 q 9 263 15 213 q 7 361 3 313 q 25 453 11 410 q 58 529 39 496 q 169 647 103 601 q 305 710 235 692 q 443 718 375 728 q 560 669 511 708 q 617 595 600 635 q 636 521 633 556 q 629 439 640 481 m 332 349 q 397 358 368 350 q 444 382 422 365 q 471 429 467 399 q 453 469 474 451 q 401 479 432 486 q 356 450 371 471 q 336 406 342 429 q 332 349 331 379 m 231 1051 q 249 1042 231 1053 q 293 1013 267 1031 q 350 975 319 996 q 406 938 381 954 q 467 962 433 949 q 531 987 501 975 q 579 1006 560 999 q 599 1011 599 1013 q 606 996 599 1010 q 625 967 614 982 q 653 924 638 947 q 539 844 589 879 q 497 815 518 829 q 458 790 475 801 q 431 772 442 779 q 421 765 421 765 q 409 766 419 765 q 385 769 399 767 q 350 774 369 771 q 318 805 347 774 q 253 875 289 836 l 158 978 l 194 1014 q 219 1039 208 1028 q 231 1051 229 1050 z "},"":{"ha":1292,"x_min":36,"x_max":1246,"o":"m 1246 326 q 1228 210 1243 260 q 1192 124 1214 160 q 1142 64 1169 88 q 1085 25 1114 40 q 935 -10 1018 -11 q 778 16 842 -10 q 676 85 715 42 q 617 182 636 128 q 592 293 597 236 q 619 597 576 426 q 631 654 629 629 q 624 696 632 676 q 590 722 617 715 q 540 706 560 728 q 508 654 519 683 q 491 429 493 544 q 493 218 489 314 q 508 1 499 107 l 60 1 q 39 233 42 114 q 39 451 36 351 q 53 679 43 568 q 65 794 58 742 q 79 888 72 847 q 93 972 86 933 l 544 972 q 533 931 539 951 q 526 892 529 913 q 522 854 522 871 q 594 913 558 888 q 669 954 629 938 q 753 978 708 971 q 853 982 797 985 q 996 931 939 972 q 1042 886 1021 913 q 1074 822 1063 860 q 1086 733 1086 783 q 1068 618 1086 683 q 1033 476 1044 542 q 1027 421 1029 449 q 1027 369 1025 393 q 1036 328 1029 346 q 1058 303 1043 311 q 1094 299 1079 292 q 1119 317 1108 306 q 1140 351 1132 331 l 1246 326 m 797 1189 q 781 1179 799 1189 q 737 1156 764 1169 q 677 1125 710 1142 q 617 1094 644 1108 q 572 1071 590 1081 q 553 1063 553 1061 q 542 1076 553 1064 q 521 1104 532 1089 q 489 1143 506 1121 q 594 1233 549 1193 q 667 1297 635 1268 q 703 1325 700 1325 q 719 1303 704 1325 q 750 1257 733 1282 q 781 1210 767 1232 q 797 1189 794 1189 z "},"":{"ha":949,"x_min":-6,"x_max":1039,"o":"m 1039 204 q 970 106 1008 146 q 892 42 932 67 q 812 6 851 18 q 739 -12 772 -7 q 681 -17 706 -17 q 647 -17 657 -17 q 533 2 579 -17 q 459 52 488 21 q 416 122 431 83 q 397 203 401 161 q 418 424 386 300 q 426 464 425 446 q 422 494 428 479 q 397 514 417 510 q 360 502 375 518 q 338 465 344 486 q 325 303 326 385 q 326 153 324 221 q 338 -1 331 74 l 13 -1 q -3 165 -1 79 q -3 322 -6 251 q 7 483 0 406 q 16 567 11 528 q 25 635 21 606 q 36 696 31 668 l 364 696 q 356 665 360 681 q 350 637 353 651 q 347 610 347 622 q 399 652 374 633 q 453 683 425 671 q 515 699 482 694 q 588 703 547 704 q 693 668 650 697 q 727 637 711 656 q 751 591 743 618 q 760 527 760 564 q 747 443 760 490 q 721 340 728 389 q 717 257 714 299 q 747 193 721 215 q 816 172 779 165 q 885 197 853 178 q 940 240 917 217 q 969 274 964 264 l 1039 204 m 625 911 q 609 901 626 911 q 565 878 592 892 q 505 847 538 864 q 445 817 472 831 q 399 793 418 803 q 381 785 381 783 q 370 799 381 786 q 349 826 360 811 q 317 865 333 843 q 422 956 376 915 q 495 1019 463 990 q 531 1047 528 1047 q 547 1026 532 1047 q 578 979 561 1004 q 608 933 594 954 q 625 911 622 911 z "},"":{"ha":1292,"x_min":36,"x_max":1246,"o":"m 1246 326 q 1228 210 1243 260 q 1192 124 1214 160 q 1142 64 1169 88 q 1085 25 1114 40 q 935 -10 1018 -11 q 778 16 842 -10 q 676 85 715 42 q 617 182 636 128 q 592 293 597 236 q 619 597 576 426 q 631 654 629 629 q 624 696 632 676 q 590 722 617 715 q 540 706 560 728 q 508 654 519 683 q 491 429 493 544 q 493 218 489 314 q 508 1 499 107 l 60 1 q 39 233 42 114 q 39 451 36 351 q 53 679 43 568 q 65 794 58 742 q 79 888 72 847 q 93 972 86 933 l 544 972 q 533 931 539 951 q 526 892 529 913 q 522 854 522 871 q 594 913 558 888 q 669 954 629 938 q 753 978 708 971 q 853 982 797 985 q 996 931 939 972 q 1042 886 1021 913 q 1074 822 1063 860 q 1086 733 1086 783 q 1068 618 1086 683 q 1033 476 1044 542 q 1027 421 1029 449 q 1027 369 1025 393 q 1036 328 1029 346 q 1058 303 1043 311 q 1094 299 1079 292 q 1119 317 1108 306 q 1140 351 1132 331 l 1246 326 m 471 1321 q 489 1311 471 1322 q 533 1283 507 1300 q 590 1244 560 1265 q 646 1207 621 1224 q 708 1231 674 1218 q 771 1256 742 1244 q 819 1275 800 1268 q 839 1281 839 1282 q 847 1265 839 1279 q 865 1236 854 1251 q 893 1193 878 1217 q 779 1114 829 1149 q 737 1085 758 1099 q 699 1060 715 1071 q 672 1042 682 1049 q 661 1035 661 1035 q 649 1035 660 1035 q 625 1039 639 1036 q 590 1043 610 1040 q 558 1074 588 1043 q 493 1144 529 1106 l 399 1247 l 435 1283 q 459 1308 449 1297 q 471 1321 469 1319 z "},"":{"ha":949,"x_min":-6,"x_max":1039,"o":"m 1039 204 q 970 106 1008 146 q 892 42 932 67 q 812 6 851 18 q 739 -12 772 -7 q 681 -17 706 -17 q 647 -17 657 -17 q 533 2 579 -17 q 459 52 488 21 q 416 122 431 83 q 397 203 401 161 q 418 424 386 300 q 426 464 425 446 q 422 494 428 479 q 397 514 417 510 q 360 502 375 518 q 338 465 344 486 q 325 303 326 385 q 326 153 324 221 q 338 -1 331 74 l 13 -1 q -3 165 -1 79 q -3 322 -6 251 q 7 483 0 406 q 16 567 11 528 q 25 635 21 606 q 36 696 31 668 l 364 696 q 356 665 360 681 q 350 637 353 651 q 347 610 347 622 q 399 652 374 633 q 453 683 425 671 q 515 699 482 694 q 588 703 547 704 q 693 668 650 697 q 727 637 711 656 q 751 591 743 618 q 760 527 760 564 q 747 443 760 490 q 721 340 728 389 q 717 257 714 299 q 747 193 721 215 q 816 172 779 165 q 885 197 853 178 q 940 240 917 217 q 969 274 964 264 l 1039 204 m 299 1043 q 317 1033 299 1044 q 361 1005 335 1022 q 418 967 388 988 q 474 929 449 946 q 535 953 501 940 q 599 978 569 967 q 647 997 628 990 q 667 1003 667 1004 q 674 988 667 1001 q 693 958 682 974 q 721 915 706 939 q 607 836 657 871 q 565 807 586 821 q 526 782 543 793 q 499 764 510 771 q 489 757 489 757 q 477 758 488 757 q 453 761 467 758 q 418 765 438 763 q 386 797 415 765 q 321 867 357 828 l 226 969 l 263 1006 q 287 1031 276 1019 q 299 1043 297 1042 z "},"":{"ha":704,"x_min":-28,"x_max":790,"o":"m 790 213 q 718 96 764 146 q 674 53 699 74 q 617 18 649 33 q 547 -6 585 3 q 463 -12 508 -15 q 352 10 397 -10 q 278 61 307 31 q 233 130 249 92 q 213 208 218 168 q 225 418 199 301 l 153 418 q 125 306 142 358 q 85 201 108 254 l 15 272 q 36 311 25 286 q 56 365 46 332 q 76 443 65 397 q 1 506 29 463 q -28 603 -28 549 q -14 671 -28 639 q 24 726 0 703 q 79 764 47 750 q 147 778 111 778 q 233 755 194 778 q 296 696 272 732 l 296 697 l 579 697 q 497 475 521 575 q 483 389 486 432 q 487 310 479 346 q 517 247 494 274 q 579 210 539 221 q 632 208 607 203 q 678 228 654 213 q 722 282 703 244 l 790 213 m 183 1100 q 201 1090 183 1101 q 246 1062 219 1079 q 303 1024 272 1044 q 358 986 333 1003 q 420 1010 386 997 q 483 1035 454 1024 q 532 1054 513 1047 q 551 1060 551 1061 q 559 1044 551 1058 q 578 1015 567 1031 q 606 972 590 996 q 492 893 542 928 q 449 864 471 878 q 411 839 428 850 q 384 821 394 828 q 374 814 374 814 q 362 815 372 814 q 338 818 351 815 q 303 822 322 819 q 271 853 300 822 q 206 924 242 885 l 111 1026 l 147 1063 q 172 1088 161 1076 q 183 1100 182 1099 z "},"":{"ha":828,"x_min":-15,"x_max":765,"o":"m 675 624 q 747 438 735 525 q 749 283 760 350 q 719 176 739 217 q 694 131 699 136 q 574 26 636 56 q 453 -12 511 -3 q 303 -20 382 -24 q 158 12 225 -17 q 44 98 90 40 q -11 254 -3 156 q -8 331 -15 294 q 14 398 0 367 q 47 456 28 429 q 86 506 65 483 q 196 596 133 557 q 147 763 146 685 q 186 899 149 842 q 291 989 224 956 q 443 1022 358 1022 q 551 1013 497 1022 q 649 981 604 1003 q 723 923 693 960 q 761 832 753 886 q 761 778 765 806 q 747 724 758 754 q 711 663 735 693 l 675 624 m 265 450 q 219 396 238 425 q 192 338 203 371 q 192 269 182 306 q 208 239 197 251 q 233 219 218 228 q 274 214 249 211 q 307 225 293 215 q 328 248 321 235 q 339 277 336 261 q 339 307 342 293 q 313 381 332 343 q 265 450 293 418 m 594 719 q 614 751 608 735 q 617 784 619 767 q 596 818 615 801 q 570 830 583 831 q 549 822 557 829 q 538 802 540 814 q 544 779 536 790 q 563 757 554 768 q 579 738 572 746 q 594 719 588 728 m 658 1189 q 642 1179 660 1189 q 598 1156 625 1169 q 538 1125 571 1142 q 478 1094 506 1108 q 433 1071 451 1081 q 414 1063 414 1061 q 403 1076 414 1064 q 382 1104 393 1089 q 350 1143 367 1121 q 456 1233 410 1193 q 528 1297 496 1268 q 564 1325 561 1325 q 580 1303 565 1325 q 611 1257 594 1282 q 642 1210 628 1232 q 658 1189 656 1189 z "},"":{"ha":667,"x_min":-21,"x_max":579,"o":"m 511 468 q 567 321 558 388 q 567 205 576 254 q 542 127 558 156 q 524 94 526 99 q 432 11 479 35 q 340 -19 385 -12 q 226 -25 286 -28 q 114 -1 165 -22 q 26 65 63 21 q -15 185 -10 110 q -1 292 -21 247 q 47 368 19 338 q 121 428 79 404 q 87 558 83 496 q 124 668 90 621 q 212 743 157 715 q 332 771 267 771 q 415 764 374 771 q 489 740 456 757 q 546 697 522 724 q 576 628 569 669 q 576 586 579 608 q 566 544 574 567 q 539 499 558 522 l 511 468 m 183 321 q 154 286 165 306 q 138 247 143 269 q 140 197 133 225 q 153 174 144 183 q 172 158 160 165 q 203 154 183 151 q 239 175 226 157 q 250 208 251 193 q 226 264 249 232 q 183 321 204 296 m 449 542 q 464 567 458 553 q 467 591 468 578 q 450 618 465 604 q 431 626 440 626 q 414 620 421 626 q 406 605 407 614 q 411 588 404 596 q 425 570 418 578 q 438 556 432 563 q 449 542 443 549 m 535 918 q 519 908 536 918 q 474 885 501 899 q 415 854 447 871 q 355 824 382 838 q 309 800 328 810 q 290 792 290 790 q 280 806 290 793 q 258 833 269 818 q 226 872 243 850 q 332 963 286 922 q 405 1026 372 997 q 440 1054 438 1054 q 456 1033 442 1054 q 488 986 471 1011 q 518 940 504 961 q 535 918 532 918 z "},"":{"ha":1026,"x_min":38,"x_max":993,"o":"m 871 185 q 770 67 826 113 q 647 -2 714 21 q 506 -28 581 -25 q 353 -21 432 -32 q 178 46 243 -6 q 80 170 113 97 q 42 331 47 243 q 49 508 38 418 q 182 975 75 718 l 646 975 q 542 650 575 797 q 520 526 528 588 q 517 413 513 464 q 542 325 522 361 q 604 276 563 289 q 663 275 635 269 q 713 300 686 281 q 758 367 739 319 q 794 514 781 426 q 811 702 806 589 q 803 974 817 815 l 974 974 q 989 699 993 836 q 981 574 988 640 q 961 442 975 508 q 926 310 947 375 q 871 185 904 244 m 775 1206 q 763 1145 775 1174 q 731 1096 751 1117 q 681 1063 710 1075 q 621 1051 653 1051 q 561 1063 589 1051 q 513 1096 533 1075 q 479 1145 492 1117 q 467 1206 467 1174 q 479 1265 467 1238 q 513 1314 492 1293 q 561 1347 533 1335 q 621 1360 589 1360 q 681 1347 653 1360 q 731 1314 710 1335 q 763 1265 751 1293 q 775 1206 775 1238 m 700 1204 q 678 1256 700 1235 q 626 1276 657 1276 q 573 1256 594 1276 q 551 1204 551 1235 q 573 1151 551 1172 q 626 1129 594 1129 q 678 1151 657 1129 q 700 1204 700 1172 z "},"":{"ha":982,"x_min":-25,"x_max":1071,"o":"m 1071 204 q 967 81 1029 132 q 907 38 940 58 q 833 4 874 18 q 746 -15 793 -10 q 644 -12 699 -19 q 547 20 594 -6 q 469 83 499 46 q 365 3 432 31 q 206 -12 299 -25 q 79 33 126 -3 q 8 122 32 69 q -21 236 -17 174 q -17 363 -25 299 q 76 696 0 511 l 410 696 q 333 446 358 557 q 316 352 322 399 q 313 268 310 306 q 328 205 315 231 q 369 174 342 179 q 388 171 378 171 q 406 174 396 171 q 428 185 417 176 q 419 267 419 224 q 423 353 418 310 q 436 440 428 397 q 456 519 444 482 q 517 696 481 608 l 850 696 q 782 472 804 575 q 767 384 772 428 q 765 303 763 340 q 781 236 768 265 q 819 194 793 207 q 882 188 850 183 q 941 209 910 190 q 1003 276 972 228 l 1071 204 m 674 935 q 662 874 674 903 q 629 825 650 846 q 580 792 608 804 q 519 781 551 781 q 460 792 488 781 q 411 825 432 804 q 378 874 390 846 q 365 935 365 903 q 378 994 365 967 q 411 1043 390 1022 q 460 1076 432 1064 q 519 1089 488 1089 q 580 1076 551 1089 q 629 1043 608 1064 q 662 994 650 1022 q 674 935 674 967 m 599 933 q 577 985 599 964 q 525 1006 556 1006 q 472 985 493 1006 q 450 933 450 964 q 472 880 450 901 q 525 858 493 858 q 577 880 556 858 q 599 933 599 901 z "},"":{"ha":793,"x_min":-33,"x_max":815,"o":"m 582 789 q 531 614 549 693 q 504 478 513 535 q 493 358 494 411 q 577 322 542 347 q 633 265 613 297 q 659 194 654 232 q 653 118 664 156 q 599 25 633 57 q 529 -22 564 -7 q 443 -42 489 -39 q 264 -14 342 -47 q 199 24 231 0 q 142 83 167 47 q 103 171 118 119 q 90 292 89 222 q 122 572 93 450 q 179 786 151 694 q 105 783 138 789 q 32 754 72 776 l -33 928 q 26 964 -8 949 q 99 989 56 978 q 199 1000 142 1000 l 597 1000 q 656 1006 626 1001 q 706 1015 679 1008 q 753 1033 733 1022 q 756 1024 753 1033 q 765 1001 760 1015 q 775 970 769 988 q 786 935 781 953 q 815 839 800 892 q 757 815 792 826 q 684 798 728 806 q 582 789 640 790 m 524 147 q 558 155 546 143 q 574 188 571 167 q 563 232 576 215 q 531 260 549 249 q 483 278 510 272 q 486 215 482 243 q 497 171 489 192 q 524 147 506 150 m 271 1335 q 289 1325 271 1336 q 333 1297 307 1314 q 390 1258 360 1279 q 446 1221 421 1238 q 508 1245 474 1232 q 571 1270 542 1258 q 619 1289 600 1282 q 639 1294 639 1296 q 647 1279 639 1293 q 665 1250 654 1265 q 693 1207 678 1231 q 579 1128 629 1163 q 537 1099 558 1113 q 499 1074 515 1085 q 472 1056 482 1063 q 461 1049 461 1049 q 449 1049 460 1049 q 425 1053 439 1050 q 390 1057 410 1054 q 358 1088 388 1057 q 293 1158 329 1119 l 199 1261 l 235 1297 q 259 1322 249 1311 q 271 1335 269 1333 z "},"":{"ha":704,"x_min":-28,"x_max":790,"o":"m 790 213 q 718 96 764 146 q 674 53 699 74 q 617 18 649 33 q 547 -6 585 3 q 463 -12 508 -15 q 352 10 397 -10 q 278 61 307 31 q 233 130 249 92 q 213 208 218 168 q 225 418 199 301 l 153 418 q 125 306 142 358 q 85 201 108 254 l 15 272 q 36 311 25 286 q 56 365 46 332 q 76 443 65 397 q 1 506 29 463 q -28 603 -28 549 q -14 671 -28 639 q 24 726 0 703 q 79 764 47 750 q 147 778 111 778 q 233 755 194 778 q 296 696 272 732 l 296 697 l 579 697 q 497 475 521 575 q 483 389 486 432 q 487 310 479 346 q 517 247 494 274 q 579 210 539 221 q 632 208 607 203 q 678 228 654 213 q 722 282 703 244 l 790 213 m 567 911 q 551 901 568 911 q 506 878 533 892 q 447 847 479 864 q 387 817 414 831 q 341 793 360 803 q 322 785 322 783 q 312 799 322 786 q 290 826 301 811 q 258 865 275 843 q 364 956 318 915 q 437 1019 404 990 q 472 1047 469 1047 q 488 1026 474 1047 q 519 979 503 1004 q 550 933 536 954 q 567 911 564 911 z "}}}
